<?xml version="1.0" encoding="utf-8"?>
<!-- Generator: Adobe Illustrator 24.3.0, SVG Export Plug-In . SVG Version: 6.00 Build 0)  -->
<svg version="1.1" id="Layer_1" xmlns="http://www.w3.org/2000/svg" xmlns:xlink="http://www.w3.org/1999/xlink" x="0px" y="0px"
	 viewBox="0 0 90 90" style="enable-background:new 0 0 90 90;" xml:space="preserve">
<style type="text/css">
	.st0{fill:#050606;}
	.st1{fill:#B5B4D5;}
	.st2{fill:#5A5EA1;}
	.st3{opacity:0.26;fill:#EEEEEE;enable-background:new    ;}
	.st4{clip-path:url(#SVGID_2_);}
	.st5{fill:url(#Path_1544_1_);}
	.st6{fill:#192870;}
	.st7{fill:#FFFFFF;}
	.st8{opacity:0.16;}
	.st9{fill:url(#Path_1546_1_);}
	.st10{fill:url(#Path_1547_1_);}
	.st11{fill:none;stroke:#FFFFFF;stroke-width:3;stroke-miterlimit:10;}
	.st12{fill:#5A5EA1;stroke:#5A5EA1;stroke-miterlimit:10;}
	.st13{fill:#2B2D62;}
	.st14{fill:#8A7565;}
	.st15{fill:none;stroke:#000000;}
</style>
<g id="Group_461" transform="translate(1831.52 825.311)">
	<path id="Union_27" class="st2" d="M-1786.7-742.3h-12.3c-9,0-18,0-27,0c-2.8,0-3.1-0.2-3.1-3.1c0-0.5,0-1,0-1.4
		c-0.1-1.7,0.7-2.5,2.4-2.3c1.9,0.2,2.3-0.6,2.3-2.4c-0.1-14.2,0-28.5,0-42.7c0-4.1,0-4.1,4.2-4.1c3.3,0,6.6-0.1,9.9,0
		c1.7,0.1,2.2-0.6,2.2-2.2c-0.1-5.1,0-10.2,0-15.2c0-2.4,0.3-2.7,2.7-2.7c12.6,0,25.3,0,37.9,0c2.4,0,2.7,0.3,2.7,2.7
		c0,5.1,0.1,10.2,0,15.2c0,1.6,0.5,2.2,2.2,2.2c3.7-0.1,7.3,0,11,0c2.9,0,3.1,0.2,3.1,3.1c0,14.5,0,28.9,0,43.4c0,2.5,0,2.6,2.5,2.7
		c1.5,0,2.1,0.7,2.2,2.2c0.2,4.6,0.1,4.7-4.4,4.7L-1786.7-742.3z M-1747.8-744.5c0.8,0,1.6,0,1.6-1.2c0-1.2-0.9-1.1-1.6-1.1
		c-0.3,0-0.6,0-0.9,0h-75.6c-0.4,0-0.8,0-1.3,0c-0.8,0-1.2,0.3-1.2,1.2c0,0.9,0.5,1.1,1.3,1.1c0.5,0,1,0,1.4,0h74.8c0.3,0,0.7,0,1,0
		L-1747.8-744.5z M-1769.5-749.1c1.8,0.1,2.4-0.5,2.3-2.3c-0.1-10.4,0-20.8,0-31.2c0-10.5,0-20.9,0-31.4c0-1.3-0.2-2.1-1.8-2.1
		c-11.7,0.1-23.4,0.1-35.2,0c-1.3,0-1.8,0.4-1.8,1.7c0,21.2,0,42.3,0,63.5c0,1.4,0.5,1.8,1.8,1.7c2.3-0.1,4.7-0.1,7,0
		c1.7,0.1,2.2-0.5,2.2-2.1c-0.1-6.3,0-12.6,0-18.8c0-2.1,0.3-2.4,2.4-2.4c3.9,0,7.8,0,11.7,0c2.5,0,2.7,0.2,2.7,2.6
		c0,6,0,12.1,0,18.1c0,2.6,0,2.6,2.5,2.6c0.6,0,1.3,0,1.9,0c0.6,0,1.2,0,1.8,0C-1771.1-749.2-1770.3-749.2-1769.5-749.1
		L-1769.5-749.1z M-1752.9-749.1c1.6,0,2.1-0.5,2-2.1c-0.1-7.1,0-14.2,0-21.3c0-7.2,0-14.5,0-21.7c0-1.3-0.4-1.8-1.7-1.8
		c-3.5,0.1-7,0.1-10.5,0c-1.3,0-1.8,0.5-1.8,1.8c0,14.4,0,28.8,0,43.2c0,1.5,0.6,1.9,2,1.9c1.7,0,3.5-0.1,5.2-0.1
		C-1756.1-749.2-1754.5-749.1-1752.9-749.1z M-1822.2-794c0.1,7.1,0,14.2,0,21.3c0,7.2,0,14.3,0,21.5c0,1.4,0.4,2.1,1.9,2
		c3.4-0.1,6.7-0.1,10.1,0c1.5,0,2-0.5,2-2c0-14.3,0-28.7,0-43c0-1.4-0.4-1.9-1.9-1.9c-3.4,0.1-6.7,0.1-10.1,0c-0.1,0-0.1,0-0.2,0
		C-1821.8-796-1822.2-795.5-1822.2-794L-1822.2-794z M-1782.2-749.1c1.3,0,1.8-0.5,1.8-1.8c-0.1-2.9,0-5.7,0-8.6c0-3,0-6,0-8.9
		c0-1.2-0.3-1.8-1.6-1.8c-3,0.1-6,0-9,0c-1.2,0-1.6,0.5-1.6,1.6c0,6,0,11.9,0,17.9c0,1.1,0.5,1.6,1.6,1.6c1.5,0,3,0,4.6,0
		C-1785.1-749.1-1783.6-749.1-1782.2-749.1L-1782.2-749.1z M-1820.1-775.1c0-4.9-0.2-4.9,4-4.8c0.3,0,0.6,0,0.9,0
		c5.7,0,4.9-0.2,5,4.9c0,5.4,0.6,4.9-4.9,4.9c-0.5,0-0.9,0-1.3,0c-0.4,0-0.7,0-1,0C-1820.2-770.1-1820.1-770.6-1820.1-775.1
		L-1820.1-775.1z M-1817.8-775.3c0,2.9,0,2.9,2.4,2.9c2.9,0,2.9,0,2.9-2.5c0-2.8,0-2.8-2.5-2.8h-0.3
		C-1817.8-777.7-1817.8-777.6-1817.8-775.3L-1817.8-775.3z M-1756.5-770.2c-0.4,0-0.9,0-1.4,0c-0.5,0-0.9,0-1.3,0
		c-4.1,0-3.7,0.1-3.7-4.9c0-5.1-0.8-4.9,4.9-4.9c0.3,0,0.6,0,0.9,0c4.2,0,4,0,4,4.8c0,4.6,0.1,5-2.8,5
		C-1756-770.1-1756.2-770.1-1756.5-770.2L-1756.5-770.2z M-1760.5-775.2c0,2.7,0,2.7,2.6,2.7c2.7,0,2.7,0,2.7-2.6
		c0-2.6,0-2.6-2.5-2.6h-0.3C-1760.5-777.7-1760.5-777.6-1760.5-775.2L-1760.5-775.2z M-1800.5-780.3c-1.4,0-2-0.7-2-2.1
		c0-3.1,0-6.2,0-9.3c0-1.5,0.7-2.1,2.2-2.1c3.1,0,6.1,0,9.2,0c1.6,0,2.3,0.8,2.2,2.3c-0.1,1.5,0,3,0,4.5c0,1.6,0,3.1,0,4.7
		c0,1.4-0.6,2.1-2,2.1h-2.7C-1795.9-780.3-1798.2-780.3-1800.5-780.3L-1800.5-780.3z M-1800.2-787.2v0.4c0,4.2,0,4.2,4.3,4.2
		c4.7,0,4.7,0,4.7-4.7c0-4.3,0-4.3-4.4-4.3C-1800.2-791.7-1800.2-791.7-1800.2-787.2L-1800.2-787.2z M-1782.3-780.3
		c-0.9,0.1-1.7-0.5-1.9-1.5c0-0.2,0-0.3,0-0.5c0-3.2,0-6.4,0-9.7c-0.1-0.9,0.5-1.8,1.4-2c0.2,0,0.4,0,0.5,0c3.2,0,6.5,0,9.7,0
		c0.9-0.1,1.7,0.5,1.9,1.4c0,0.2,0,0.3,0,0.5c0,1.6,0,3.2,0,4.8s0,3.2,0,4.8c0,1.2-0.5,2-1.8,2c-1.8,0-3.7,0-5.5,0
		C-1779.4-780.3-1780.8-780.3-1782.3-780.3L-1782.3-780.3z M-1781.8-787.1c0,4.5,0,4.5,4.3,4.5c4.6,0,4.6,0,4.6-4.6
		c0-4.5,0-4.5-4.4-4.5C-1781.8-791.7-1781.8-791.7-1781.8-787.1L-1781.8-787.1z M-1756.6-783.1c-0.4,0-0.8,0-1.3,0
		c-5.6,0-4.9,0.5-5-5c0-5.2-0.6-4.8,4.8-4.8c0.4,0,0.8,0,1.2,0c4.1,0,3.9-0.1,3.9,5c0,4.4,0,4.8-2.6,4.8
		C-1755.9-783.1-1756.2-783.1-1756.6-783.1L-1756.6-783.1z M-1760.5-788.2c0,2.8,0,2.8,2.7,2.8c2.6,0,2.6,0,2.6-2.5
		c0-2.7,0-2.7-2.5-2.7h-0.2C-1760.5-790.6-1760.5-790.5-1760.5-788.2L-1760.5-788.2z M-1820.1-788c0-5-0.2-4.9,3.9-4.9
		c0.3,0,0.7,0,1.1,0c5.5,0,4.8-0.4,4.9,4.9c0,5.3,0.6,4.9-4.9,4.9c-0.5,0-0.9,0-1.2,0c-0.3,0-0.6,0-0.9,0
		C-1820.2-783.1-1820.1-783.4-1820.1-788L-1820.1-788z M-1817.8-788.1c0,2.7,0,2.7,2.5,2.7c2.7,0,2.7,0,2.8-2.6c0-2.6,0-2.6-2.7-2.6
		C-1817.8-790.6-1817.8-790.6-1817.8-788.1L-1817.8-788.1z M-1800.7-799.7c-0.9,0.1-1.7-0.5-1.9-1.5c0-0.2,0-0.3,0-0.5
		c0-3.2,0-6.4,0-9.7c0-1.3,0.6-1.8,1.9-1.8c1.6,0,3.2,0,4.9,0c0.5,0,1,0,1.5,0c1.1,0,2.3,0,3.4,0c1.2,0,1.9,0.4,1.9,1.8
		c0,3.3,0,6.6,0,9.9c0.1,0.9-0.5,1.7-1.4,1.8c-0.1,0-0.3,0-0.4,0c-1.8,0-3.6,0-5.4,0C-1797.7-799.7-1799.2-799.7-1800.7-799.7
		L-1800.7-799.7z M-1800.2-806.5v0.2c0,4.4,0,4.4,4.5,4.4c4.4,0,4.4,0,4.4-4.5s0-4.4-4.5-4.4
		C-1800.2-810.8-1800.2-810.8-1800.2-806.5L-1800.2-806.5z M-1782.4-799.7c-0.9,0.1-1.7-0.5-1.8-1.4c0-0.1,0-0.3,0-0.4
		c0-3.3,0-6.6,0-9.9c-0.1-0.8,0.4-1.6,1.3-1.7c0.2,0,0.3,0,0.5,0c1.7,0,3.4,0,5,0h1.5c1.1,0,2.2,0,3.3,0c1.2,0,1.8,0.4,1.8,1.7
		c0,3.3,0,6.7,0,10c0.1,0.8-0.5,1.6-1.3,1.7c-0.1,0-0.2,0-0.3,0c-1.8,0-3.6,0-5.3,0C-1779.2-799.7-1780.8-799.7-1782.4-799.7
		L-1782.4-799.7z M-1777.3-810.8c-4.5,0-4.5,0-4.5,4.4c0,4.5,0,4.5,4.4,4.5c4.5,0,4.5,0,4.5-4.6c0-4.3,0-4.3-4.3-4.3H-1777.3z"/>
</g>
</svg>
