<?xml version="1.0" encoding="utf-8"?>
<!-- Generator: Adobe Illustrator 26.0.3, SVG Export Plug-In . SVG Version: 6.00 Build 0)  -->
<svg version="1.1" id="Layer_1" xmlns="http://www.w3.org/2000/svg" xmlns:xlink="http://www.w3.org/1999/xlink" x="0px" y="0px"
	 viewBox="0 0 316.9 78.2" style="enable-background:new 0 0 316.9 78.2;" xml:space="preserve">
<style type="text/css">
	.st0{fill:#050606;}
	.st1{fill:#B5B4D5;}
	.st2{fill:#5A5EA1;}
</style>
<g>
	<g id="Group_454">
		<g id="Group_450" transform="translate(9.851 9.003)">
			<path id="Path_1361" class="st0" d="M3.1,28.3c-0.1,0-0.3,0-0.3-0.1c-0.1-0.1-0.2-0.2-0.1-0.4c0-0.1,0.1-0.2,0.1-0.3
				c0.1-0.1,0.2-0.1,0.3-0.1c0.1,0,0.3,0,0.3,0.1c0.1,0.1,0.1,0.2,0.1,0.3s0,0.3-0.1,0.4C3.3,28.2,3.2,28.3,3.1,28.3"/>
			<path id="Path_1362" class="st0" d="M31.9,1.1c-0.3,0-0.7,0-1,0v-1c0.4,0,0.7,0,1.1,0L31.9,1.1z M27.9,1.2l-0.1-1
				c0.4,0,0.7-0.1,1.1-0.1l0.1,1C28.6,1.1,28.2,1.2,27.9,1.2 M38,1.9c-0.3-0.1-0.7-0.2-1-0.2l0.2-1c0.3,0.1,0.7,0.1,1,0.2L38,1.9z
				 M21.9,2.4l-0.3-1c0.3-0.1,0.7-0.2,1-0.3l0.3,1C22.5,2.2,22.2,2.3,21.9,2.4 M43.8,3.9c-0.3-0.1-0.6-0.3-0.9-0.4l0.4-0.9
				c0.3,0.1,0.6,0.3,1,0.4L43.8,3.9z M16.2,4.8l-0.5-0.9c0.3-0.2,0.6-0.3,0.9-0.5l0.5,0.9C16.8,4.5,16.5,4.6,16.2,4.8 M49.1,7
				c-0.3-0.2-0.5-0.4-0.8-0.6l0.6-0.8c0.3,0.2,0.6,0.4,0.9,0.6L49.1,7z M11.2,8.2l-0.7-0.7c0.3-0.2,0.5-0.4,0.8-0.7L12,7.6
				C11.7,7.8,11.5,8,11.2,8.2 M53.5,11.1c-0.2-0.3-0.5-0.5-0.7-0.7l0.8-0.7c0.2,0.3,0.5,0.5,0.7,0.8L53.5,11.1z M7,12.6L6.2,12
				c0.2-0.3,0.4-0.5,0.7-0.8l0.8,0.6C7.5,12.1,7.2,12.3,7,12.6 M57.1,16c-0.2-0.3-0.3-0.6-0.5-0.9l0.9-0.5c0.2,0.3,0.4,0.6,0.5,0.9
				L57.1,16z M3.9,17.7L3,17.3c0.2-0.3,0.3-0.6,0.5-0.9l0.9,0.5C4.2,17.1,4,17.4,3.9,17.7 M59.5,21.4c-0.1-0.3-0.2-0.6-0.3-0.9
				l1-0.3c0.1,0.3,0.2,0.6,0.3,1L59.5,21.4z M1.8,23.3l-1-0.2c0.1-0.3,0.2-0.7,0.3-1l1,0.3C2,22.6,1.9,23,1.8,23.3 M60.7,27.3
				c0-0.3-0.1-0.7-0.1-1l1-0.1c0,0.3,0.1,0.7,0.1,1L60.7,27.3z M1,29.2H0c0-0.3,0-0.7,0-1l1,0.1C1.1,28.5,1,28.9,1,29.2 M61.7,33.3
				l-1-0.1c0-0.3,0.1-0.7,0.1-1l1,0.1C61.7,32.6,61.7,33,61.7,33.3 M0.5,35.3c-0.1-0.3-0.1-0.7-0.2-1l1-0.1c0,0.3,0.1,0.7,0.2,1
				L0.5,35.3z M60.3,39.3l-1-0.3c0.1-0.3,0.2-0.6,0.3-0.9l1,0.3C60.5,38.7,60.4,39,60.3,39.3 M2.2,41.2c-0.1-0.3-0.3-0.6-0.4-1
				l1-0.3c0.1,0.3,0.2,0.6,0.4,0.9L2.2,41.2z M57.7,45l-0.9-0.5c0.2-0.3,0.3-0.6,0.5-0.9l0.9,0.5C58,44.4,57.9,44.7,57.7,45
				 M5.2,46.7c-0.2-0.3-0.4-0.6-0.6-0.9l0.9-0.5c0.2,0.3,0.4,0.6,0.6,0.8L5.2,46.7z M54,49.9l-0.8-0.7c0.2-0.2,0.5-0.5,0.7-0.8
				l0.8,0.6C54.4,49.4,54.2,49.7,54,49.9 M9.3,51.4c-0.3-0.2-0.5-0.5-0.7-0.7L9.4,50c0.2,0.2,0.5,0.5,0.7,0.7L9.3,51.4z M49.2,54.1
				l-0.6-0.8c0.3-0.2,0.5-0.4,0.8-0.6l0.6,0.8C49.8,53.7,49.5,53.9,49.2,54.1 M14.3,55.2c-0.3-0.2-0.6-0.4-0.9-0.6l0.6-0.8
				c0.3,0.2,0.6,0.4,0.9,0.5L14.3,55.2z M43.8,57.2l-0.4-0.9c0.3-0.1,0.6-0.3,0.9-0.4l0.5,0.9C44.4,56.9,44.1,57.1,43.8,57.2 M20,58
				c-0.3-0.1-0.7-0.2-1-0.4l0.4-0.9c0.3,0.1,0.6,0.2,1,0.4L20,58z M37.7,59.2l-0.2-1c0.3-0.1,0.7-0.1,1-0.2l0.3,1
				C38.4,59,38.1,59.1,37.7,59.2 M26.1,59.6c-0.4-0.1-0.7-0.1-1-0.2l0.2-1c0.3,0.1,0.7,0.1,1,0.2L26.1,59.6z M31.4,59.9v-1
				c0.3,0,0.7,0,1,0v1C32.1,59.9,31.8,59.9,31.4,59.9"/>
		</g>
		<rect id="Rectangle_303" x="39.2" class="st0" width="3.1" height="9.9"/>
		<rect id="Rectangle_304" x="39.2" y="68.3" class="st0" width="3.1" height="9.9"/>
		<g id="Group_451" transform="translate(14.441 12.495)">
			<path id="Path_1363" class="st0" d="M0.5,24.8c-0.1,0-0.3,0-0.3-0.1c-0.1-0.1-0.2-0.2-0.1-0.4c0-0.1,0-0.2,0.1-0.3
				s0.2-0.1,0.3-0.1s0.3,0,0.3,0.1c0.1,0.1,0.1,0.2,0.1,0.3s0,0.3-0.1,0.4C0.7,24.8,0.6,24.8,0.5,24.8"/>
			<path id="Path_1364" class="st0" d="M0.5,22.8c-0.1,0-0.3,0-0.3-0.1c-0.1-0.1-0.2-0.2-0.1-0.4c0-0.1,0-0.2,0.1-0.3
				s0.2-0.1,0.3-0.1s0.3,0,0.3,0.1c0.1,0.1,0.1,0.2,0.1,0.3s0,0.3-0.1,0.4C0.7,22.8,0.6,22.8,0.5,22.8"/>
			<path id="Path_1365" class="st0" d="M2.5,24.8c-0.1,0-0.3,0-0.3-0.1c-0.1-0.1-0.2-0.2-0.1-0.4c0-0.1,0-0.2,0.1-0.3
				s0.2-0.1,0.3-0.1s0.3,0,0.3,0.1c0.1,0.1,0.1,0.2,0.1,0.3s0,0.3-0.1,0.4C2.7,24.8,2.6,24.8,2.5,24.8"/>
			<path id="Path_1366" class="st0" d="M2.5,22.8c-0.1,0-0.3,0-0.3-0.1c-0.1-0.1-0.2-0.2-0.1-0.4c0-0.1,0-0.2,0.1-0.3
				s0.2-0.1,0.3-0.1s0.3,0,0.3,0.1c0.1,0.1,0.1,0.2,0.1,0.3s0,0.3-0.1,0.4C2.7,22.8,2.6,22.8,2.5,22.8"/>
			<path id="Path_1367" class="st0" d="M2.5,20.9c-0.1,0-0.3,0-0.3-0.1c-0.1-0.1-0.2-0.2-0.1-0.4c0-0.1,0-0.2,0.1-0.3S2.4,20,2.5,20
				s0.3,0,0.3,0.1c0.1,0.1,0.1,0.2,0.1,0.3s0,0.3-0.1,0.4C2.7,20.8,2.6,20.9,2.5,20.9"/>
			<path id="Path_1368" class="st0" d="M4.5,24.8c-0.1,0-0.3,0-0.3-0.1c-0.1-0.1-0.2-0.2-0.1-0.4c0-0.1,0.1-0.2,0.1-0.3
				c0.1-0.1,0.2-0.1,0.3-0.1c0.1,0,0.3,0,0.3,0.1c0.1,0.1,0.1,0.2,0.1,0.3s0,0.3-0.1,0.4C4.7,24.8,4.6,24.8,4.5,24.8"/>
			<path id="Path_1369" class="st0" d="M4.5,22.8c-0.1,0-0.3,0-0.3-0.1c-0.1-0.1-0.2-0.2-0.1-0.4c0-0.1,0.1-0.2,0.1-0.3
				c0.1-0.1,0.2-0.1,0.3-0.1c0.1,0,0.3,0,0.3,0.1c0.1,0.1,0.1,0.2,0.1,0.3s0,0.3-0.1,0.4C4.7,22.8,4.6,22.8,4.5,22.8"/>
			<path id="Path_1370" class="st0" d="M4.5,20.9c-0.1,0-0.3,0-0.3-0.1c-0.1-0.1-0.2-0.2-0.1-0.4c0-0.1,0.1-0.2,0.1-0.3
				C4.3,20,4.4,20,4.5,20c0.1,0,0.3,0,0.3,0.1c0.1,0.1,0.1,0.2,0.1,0.3s0,0.3-0.1,0.4C4.7,20.8,4.6,20.9,4.5,20.9"/>
			<path id="Path_1371" class="st0" d="M4.5,18.9c-0.1,0-0.3,0-0.3-0.1c-0.1-0.1-0.2-0.2-0.1-0.4c0-0.1,0.1-0.2,0.1-0.3
				C4.3,18,4.4,18,4.5,18c0.1,0,0.3,0,0.3,0.1c0.1,0.1,0.1,0.2,0.1,0.3c0,0.1,0,0.3-0.1,0.4C4.7,18.9,4.6,18.9,4.5,18.9"/>
			<path id="Path_1372" class="st0" d="M6.5,24.8c-0.1,0-0.3,0-0.3-0.1c-0.1-0.1-0.2-0.2-0.1-0.4c0-0.1,0-0.2,0.1-0.3
				s0.2-0.1,0.3-0.1c0.1,0,0.3,0,0.3,0.1c0.1,0.1,0.1,0.2,0.1,0.3s0,0.3-0.1,0.4C6.7,24.8,6.6,24.8,6.5,24.8"/>
			<path id="Path_1373" class="st0" d="M6.5,22.8c-0.1,0-0.3,0-0.3-0.1c-0.1-0.1-0.2-0.2-0.1-0.4c0-0.1,0-0.2,0.1-0.3
				s0.2-0.1,0.3-0.1c0.1,0,0.3,0,0.3,0.1c0.1,0.1,0.1,0.2,0.1,0.3s0,0.3-0.1,0.4C6.7,22.8,6.6,22.8,6.5,22.8"/>
			<path id="Path_1374" class="st0" d="M6.5,20.9c-0.1,0-0.3,0-0.3-0.1c-0.1-0.1-0.2-0.2-0.1-0.4c0-0.1,0-0.2,0.1-0.3S6.4,20,6.5,20
				c0.1,0,0.3,0,0.3,0.1c0.1,0.1,0.1,0.2,0.1,0.3s0,0.3-0.1,0.4C6.7,20.8,6.6,20.9,6.5,20.9"/>
			<path id="Path_1375" class="st0" d="M6.5,18.9c-0.1,0-0.3,0-0.3-0.1c-0.1-0.1-0.2-0.2-0.1-0.4c0-0.1,0-0.2,0.1-0.3
				C6.3,18,6.4,18,6.5,18c0.1,0,0.3,0,0.3,0.1c0.1,0.1,0.1,0.2,0.1,0.3c0,0.1,0,0.3-0.1,0.4C6.7,18.9,6.6,18.9,6.5,18.9"/>
			<path id="Path_1376" class="st0" d="M6.5,17c-0.1,0-0.3,0-0.3-0.1c-0.1-0.1-0.2-0.2-0.1-0.4c0-0.1,0-0.2,0.1-0.3
				c0.1-0.1,0.2-0.1,0.3-0.1c0.1,0,0.3,0,0.3,0.1c0.1,0.1,0.1,0.2,0.1,0.3c0,0.1,0,0.3-0.1,0.4C6.7,16.9,6.6,17,6.5,17"/>
			<path id="Path_1377" class="st0" d="M8.5,24.8c-0.1,0-0.3,0-0.3-0.1c-0.1-0.1-0.2-0.2-0.1-0.4c0-0.1,0-0.2,0.1-0.3
				s0.2-0.1,0.3-0.1c0.1,0,0.3,0,0.3,0.1c0.1,0.1,0.1,0.2,0.1,0.3s0,0.3-0.1,0.4C8.7,24.8,8.6,24.8,8.5,24.8"/>
			<path id="Path_1378" class="st0" d="M8.5,22.8c-0.1,0-0.3,0-0.3-0.1c-0.1-0.1-0.2-0.2-0.1-0.4c0-0.1,0-0.2,0.1-0.3
				s0.2-0.1,0.3-0.1c0.1,0,0.3,0,0.3,0.1c0.1,0.1,0.1,0.2,0.1,0.3s0,0.3-0.1,0.4C8.7,22.8,8.6,22.8,8.5,22.8"/>
			<path id="Path_1379" class="st0" d="M8.5,20.9c-0.1,0-0.3,0-0.3-0.1c-0.1-0.1-0.2-0.2-0.1-0.4c0-0.1,0-0.2,0.1-0.3S8.4,20,8.5,20
				c0.1,0,0.3,0,0.3,0.1c0.1,0.1,0.1,0.2,0.1,0.3s0,0.3-0.1,0.4C8.7,20.8,8.6,20.9,8.5,20.9"/>
			<path id="Path_1380" class="st0" d="M8.5,18.9c-0.1,0-0.3,0-0.3-0.1c-0.1-0.1-0.2-0.2-0.1-0.4c0-0.1,0-0.2,0.1-0.3
				C8.3,18,8.4,18,8.5,18c0.1,0,0.3,0,0.3,0.1c0.1,0.1,0.1,0.2,0.1,0.3c0,0.1,0,0.3-0.1,0.4C8.7,18.9,8.6,18.9,8.5,18.9"/>
			<path id="Path_1381" class="st0" d="M8.5,17c-0.1,0-0.3,0-0.3-0.1c-0.1-0.1-0.2-0.2-0.1-0.4c0-0.1,0-0.2,0.1-0.3
				c0.1-0.1,0.2-0.1,0.3-0.1c0.1,0,0.3,0,0.3,0.1c0.1,0.1,0.1,0.2,0.1,0.3c0,0.1,0,0.3-0.1,0.4C8.7,16.9,8.6,17,8.5,17"/>
			<path id="Path_1382" class="st0" d="M8.5,15c-0.1,0-0.3,0-0.3-0.1c-0.1-0.1-0.2-0.2-0.1-0.4c0-0.1,0-0.2,0.1-0.3
				c0.1-0.1,0.2-0.1,0.3-0.1c0.1,0,0.3,0,0.3,0.1c0.1,0.1,0.1,0.2,0.1,0.3c0,0.1,0,0.3-0.1,0.4C8.7,15,8.6,15,8.5,15"/>
			<path id="Path_1383" class="st0" d="M10.5,24.8c-0.1,0-0.3,0-0.3-0.1c-0.1-0.1-0.2-0.2-0.1-0.4c0-0.1,0.1-0.2,0.1-0.3
				c0.1-0.1,0.2-0.1,0.3-0.1c0.1,0,0.3,0,0.3,0.1c0.1,0.1,0.1,0.2,0.1,0.3s0,0.3-0.1,0.4C10.7,24.8,10.6,24.8,10.5,24.8"/>
			<path id="Path_1384" class="st0" d="M10.5,22.8c-0.1,0-0.3,0-0.3-0.1c-0.1-0.1-0.2-0.2-0.1-0.4c0-0.1,0.1-0.2,0.1-0.3
				c0.1-0.1,0.2-0.1,0.3-0.1c0.1,0,0.3,0,0.3,0.1c0.1,0.1,0.1,0.2,0.1,0.3s0,0.3-0.1,0.4C10.7,22.8,10.6,22.8,10.5,22.8"/>
			<path id="Path_1385" class="st0" d="M10.5,20.9c-0.1,0-0.3,0-0.3-0.1c-0.1-0.1-0.2-0.2-0.1-0.4c0-0.1,0.1-0.2,0.1-0.3
				c0.1-0.1,0.2-0.1,0.3-0.1c0.1,0,0.3,0,0.3,0.1c0.1,0.1,0.1,0.2,0.1,0.3s0,0.3-0.1,0.4C10.7,20.8,10.6,20.9,10.5,20.9"/>
			<path id="Path_1386" class="st0" d="M10.5,18.9c-0.1,0-0.3,0-0.3-0.1c-0.1-0.1-0.2-0.2-0.1-0.4c0-0.1,0.1-0.2,0.1-0.3
				c0.1-0.1,0.2-0.1,0.3-0.1c0.1,0,0.3,0,0.3,0.1c0.1,0.1,0.1,0.2,0.1,0.3c0,0.1,0,0.3-0.1,0.4C10.7,18.9,10.6,18.9,10.5,18.9"/>
			<path id="Path_1387" class="st0" d="M10.5,17c-0.1,0-0.3,0-0.3-0.1c-0.1-0.1-0.2-0.2-0.1-0.4c0-0.1,0.1-0.2,0.1-0.3
				c0.1-0.1,0.2-0.1,0.3-0.1c0.1,0,0.3,0,0.3,0.1c0.1,0.1,0.1,0.2,0.1,0.3c0,0.1,0,0.3-0.1,0.4C10.7,16.9,10.6,17,10.5,17"/>
			<path id="Path_1388" class="st0" d="M10.5,15c-0.1,0-0.3,0-0.3-0.1c-0.1-0.1-0.2-0.2-0.1-0.4c0-0.1,0.1-0.2,0.1-0.3
				c0.1-0.1,0.2-0.1,0.3-0.1c0.1,0,0.3,0,0.3,0.1c0.1,0.1,0.1,0.2,0.1,0.3c0,0.1,0,0.3-0.1,0.4C10.7,15,10.6,15,10.5,15"/>
			<path id="Path_1389" class="st0" d="M10.5,13c-0.1,0-0.3,0-0.3-0.1c-0.1-0.1-0.2-0.2-0.1-0.4c0-0.1,0.1-0.2,0.1-0.3
				c0.1-0.1,0.2-0.1,0.3-0.1c0.1,0,0.3,0,0.3,0.1c0.1,0.1,0.1,0.2,0.1,0.3c0,0.1,0,0.3-0.1,0.4C10.7,13,10.6,13,10.5,13"/>
			<path id="Path_1390" class="st0" d="M12.5,24.8c-0.1,0-0.3,0-0.3-0.1c-0.1-0.1-0.2-0.2-0.1-0.4c0-0.1,0.1-0.2,0.1-0.3
				c0.1-0.1,0.2-0.1,0.3-0.1c0.1,0,0.3,0,0.3,0.1c0.1,0.1,0.1,0.2,0.1,0.3s0,0.3-0.1,0.4C12.7,24.8,12.6,24.8,12.5,24.8"/>
			<path id="Path_1391" class="st0" d="M12.5,22.8c-0.1,0-0.3,0-0.3-0.1c-0.1-0.1-0.2-0.2-0.1-0.4c0-0.1,0.1-0.2,0.1-0.3
				c0.1-0.1,0.2-0.1,0.3-0.1c0.1,0,0.3,0,0.3,0.1c0.1,0.1,0.1,0.2,0.1,0.3s0,0.3-0.1,0.4C12.7,22.8,12.6,22.8,12.5,22.8"/>
			<path id="Path_1392" class="st0" d="M12.5,20.9c-0.1,0-0.3,0-0.3-0.1c-0.1-0.1-0.2-0.2-0.1-0.4c0-0.1,0.1-0.2,0.1-0.3
				c0.1-0.1,0.2-0.1,0.3-0.1c0.1,0,0.3,0,0.3,0.1c0.1,0.1,0.1,0.2,0.1,0.3s0,0.3-0.1,0.4C12.7,20.8,12.6,20.9,12.5,20.9"/>
			<path id="Path_1393" class="st0" d="M12.5,18.9c-0.1,0-0.3,0-0.3-0.1c-0.1-0.1-0.2-0.2-0.1-0.4c0-0.1,0.1-0.2,0.1-0.3
				c0.1-0.1,0.2-0.1,0.3-0.1c0.1,0,0.3,0,0.3,0.1c0.1,0.1,0.1,0.2,0.1,0.3c0,0.1,0,0.3-0.1,0.4C12.7,18.9,12.6,18.9,12.5,18.9"/>
			<path id="Path_1394" class="st0" d="M12.5,17c-0.1,0-0.3,0-0.3-0.1c-0.1-0.1-0.2-0.2-0.1-0.4c0-0.1,0.1-0.2,0.1-0.3
				c0.1-0.1,0.2-0.1,0.3-0.1c0.1,0,0.3,0,0.3,0.1c0.1,0.1,0.1,0.2,0.1,0.3c0,0.1,0,0.3-0.1,0.4C12.7,16.9,12.6,17,12.5,17"/>
			<path id="Path_1395" class="st0" d="M12.5,15c-0.1,0-0.3,0-0.3-0.1c-0.1-0.1-0.2-0.2-0.1-0.4c0-0.1,0.1-0.2,0.1-0.3
				c0.1-0.1,0.2-0.1,0.3-0.1c0.1,0,0.3,0,0.3,0.1c0.1,0.1,0.1,0.2,0.1,0.3c0,0.1,0,0.3-0.1,0.4C12.7,15,12.6,15,12.5,15"/>
			<path id="Path_1396" class="st0" d="M12.5,13c-0.1,0-0.3,0-0.3-0.1c-0.1-0.1-0.2-0.2-0.1-0.4c0-0.1,0.1-0.2,0.1-0.3
				c0.1-0.1,0.2-0.1,0.3-0.1c0.1,0,0.3,0,0.3,0.1c0.1,0.1,0.1,0.2,0.1,0.3c0,0.1,0,0.3-0.1,0.4C12.7,13,12.6,13,12.5,13"/>
			<path id="Path_1397" class="st0" d="M23.6,2.8c-0.4,0-0.7-0.1-1-0.4c-0.3-0.3-0.4-0.6-0.4-1s0.1-0.7,0.4-1c0.3-0.3,0.6-0.4,1-0.4
				s0.7,0.1,1,0.4C24.9,0.7,25,1,25,1.4s-0.1,0.8-0.4,1C24.3,2.7,24,2.8,23.6,2.8"/>
			<path id="Path_1398" class="st0" d="M23.2,7.8c-0.4,0-0.7-0.1-1-0.4s-0.4-0.6-0.4-1s0.1-0.7,0.4-1c0.3-0.3,0.6-0.4,1-0.4
				s0.7,0.1,1,0.4s0.4,0.6,0.4,1s-0.1,0.8-0.4,1C24,7.7,23.6,7.8,23.2,7.8"/>
			<path id="Path_1399" class="st0" d="M18.4,12.3c-0.5,0-0.9-0.2-1.3-0.5s-0.6-0.8-0.5-1.3c0-0.5,0.2-0.9,0.5-1.3
				c0.3-0.3,0.8-0.5,1.3-0.5c0.5,0,1,0.2,1.3,0.5c0.4,0.3,0.5,0.8,0.5,1.3s-0.2,1-0.5,1.3S18.9,12.3,18.4,12.3"/>
			<path id="Path_1400" class="st0" d="M12.7,16.8c-0.5,0-0.9-0.2-1.3-0.5s-0.6-0.8-0.5-1.3c0-0.5,0.2-0.9,0.5-1.3
				c0.3-0.3,0.8-0.5,1.3-0.5s1,0.2,1.3,0.5c0.4,0.3,0.5,0.8,0.5,1.3s-0.2,1-0.5,1.3C13.6,16.7,13.2,16.8,12.7,16.8"/>
			<path id="Path_1401" class="st0" d="M8.8,23.2c-0.5,0-0.9-0.2-1.3-0.5S6.9,21.9,7,21.4c0-0.5,0.2-0.9,0.5-1.3
				c0.3-0.3,0.8-0.5,1.3-0.5s1,0.2,1.3,0.5c0.4,0.3,0.5,0.8,0.5,1.3s-0.2,1-0.5,1.3C9.8,23,9.3,23.2,8.8,23.2"/>
			<path id="Path_1402" class="st0" d="M20.4,23.4c-0.5,0-0.9-0.2-1.3-0.5c-0.4-0.3-0.6-0.8-0.5-1.3c0-0.5,0.2-0.9,0.5-1.3
				c0.3-0.3,0.8-0.5,1.3-0.5s1,0.2,1.3,0.5c0.4,0.3,0.5,0.8,0.5,1.3s-0.2,1-0.5,1.3C21.4,23.3,20.9,23.4,20.4,23.4"/>
			<path id="Path_1403" class="st0" d="M12.5,11.1c-0.1,0-0.3,0-0.3-0.1c-0.1-0.1-0.2-0.2-0.1-0.4c0-0.1,0.1-0.2,0.1-0.3
				c0.1-0.1,0.2-0.1,0.3-0.1c0.1,0,0.3,0,0.3,0.1c0.1,0.1,0.1,0.2,0.1,0.3c0,0.1,0,0.3-0.1,0.4C12.7,11,12.6,11.1,12.5,11.1"/>
			<path id="Path_1404" class="st0" d="M14.4,24.8c-0.1,0-0.3,0-0.3-0.1c-0.1-0.1-0.2-0.2-0.1-0.4c0-0.1,0-0.2,0.1-0.3
				s0.2-0.1,0.3-0.1c0.1,0,0.3,0,0.3,0.1c0.1,0.1,0.1,0.2,0.1,0.3s0,0.3-0.1,0.4C14.7,24.8,14.6,24.8,14.4,24.8"/>
			<path id="Path_1405" class="st0" d="M14.4,22.8c-0.1,0-0.3,0-0.3-0.1c-0.1-0.1-0.2-0.2-0.1-0.4c0-0.1,0-0.2,0.1-0.3
				s0.2-0.1,0.3-0.1c0.1,0,0.3,0,0.3,0.1c0.1,0.1,0.1,0.2,0.1,0.3s0,0.3-0.1,0.4C14.7,22.8,14.6,22.8,14.4,22.8"/>
			<path id="Path_1406" class="st0" d="M14.4,20.9c-0.1,0-0.3,0-0.3-0.1c-0.1-0.1-0.2-0.2-0.1-0.4c0-0.1,0-0.2,0.1-0.3
				s0.2-0.1,0.3-0.1c0.1,0,0.3,0,0.3,0.1c0.1,0.1,0.1,0.2,0.1,0.3s0,0.3-0.1,0.4C14.7,20.8,14.6,20.9,14.4,20.9"/>
			<path id="Path_1407" class="st0" d="M14.4,18.9c-0.1,0-0.3,0-0.3-0.1c-0.1-0.1-0.2-0.2-0.1-0.4c0-0.1,0-0.2,0.1-0.3
				c0.1-0.1,0.2-0.1,0.3-0.1c0.1,0,0.3,0,0.3,0.1c0.1,0.1,0.1,0.2,0.1,0.3c0,0.1,0,0.3-0.1,0.4C14.7,18.9,14.6,18.9,14.4,18.9"/>
			<path id="Path_1408" class="st0" d="M14.4,17c-0.1,0-0.3,0-0.3-0.1c-0.1-0.1-0.2-0.2-0.1-0.4c0-0.1,0-0.2,0.1-0.3
				c0.1-0.1,0.2-0.1,0.3-0.1c0.1,0,0.3,0,0.3,0.1c0.1,0.1,0.1,0.2,0.1,0.3c0,0.1,0,0.3-0.1,0.4C14.7,16.9,14.6,17,14.4,17"/>
			<path id="Path_1409" class="st0" d="M12.2,14.8c-0.1,0-0.3,0-0.3-0.1c-0.1-0.1-0.2-0.2-0.1-0.4c0-0.1,0-0.2,0.1-0.3
				c0.1-0.1,0.2-0.1,0.3-0.1c0.1,0,0.3,0,0.3,0.1c0.1,0.1,0.1,0.2,0.1,0.3c0,0.1,0,0.3-0.1,0.4C12.5,14.8,12.4,14.8,12.2,14.8"/>
			<path id="Path_1410" class="st0" d="M14.4,13c-0.1,0-0.3,0-0.3-0.1c-0.1-0.1-0.2-0.2-0.1-0.4c0-0.1,0-0.2,0.1-0.3
				c0.1-0.1,0.2-0.1,0.3-0.1c0.1,0,0.3,0,0.3,0.1c0.1,0.1,0.1,0.2,0.1,0.3c0,0.1,0,0.3-0.1,0.4C14.7,13,14.6,13,14.4,13"/>
			<path id="Path_1411" class="st0" d="M14.4,11.1c-0.1,0-0.3,0-0.3-0.1c-0.1-0.1-0.2-0.2-0.1-0.4c0-0.1,0-0.2,0.1-0.3
				c0.1-0.1,0.2-0.1,0.3-0.1c0.1,0,0.3,0,0.3,0.1c0.1,0.1,0.1,0.2,0.1,0.3c0,0.1,0,0.3-0.1,0.4C14.7,11,14.6,11.1,14.4,11.1"/>
			<path id="Path_1412" class="st0" d="M14.4,9.1c-0.1,0-0.3,0-0.3-0.1C14,8.9,13.9,8.8,14,8.6c0-0.1,0-0.2,0.1-0.3
				c0.1-0.1,0.2-0.1,0.3-0.1c0.1,0,0.3,0,0.3,0.1c0.1,0.1,0.1,0.2,0.1,0.3c0,0.1,0,0.3-0.1,0.4C14.7,9.1,14.6,9.1,14.4,9.1"/>
			<path id="Path_1413" class="st0" d="M16.4,24.8c-0.1,0-0.3,0-0.3-0.1c-0.1-0.1-0.2-0.2-0.1-0.4c0-0.1,0.1-0.2,0.1-0.3
				c0.1-0.1,0.2-0.1,0.3-0.1c0.1,0,0.3,0,0.3,0.1c0.1,0.1,0.1,0.2,0.1,0.3s0,0.3-0.1,0.4C16.7,24.8,16.6,24.8,16.4,24.8"/>
			<path id="Path_1414" class="st0" d="M16.4,22.8c-0.1,0-0.3,0-0.3-0.1c-0.1-0.1-0.2-0.2-0.1-0.4c0-0.1,0.1-0.2,0.1-0.3
				c0.1-0.1,0.2-0.1,0.3-0.1c0.1,0,0.3,0,0.3,0.1c0.1,0.1,0.1,0.2,0.1,0.3s0,0.3-0.1,0.4C16.7,22.8,16.6,22.8,16.4,22.8"/>
			<path id="Path_1415" class="st0" d="M16.4,20.9c-0.1,0-0.3,0-0.3-0.1c-0.1-0.1-0.2-0.2-0.1-0.4c0-0.1,0.1-0.2,0.1-0.3
				c0.1-0.1,0.2-0.1,0.3-0.1c0.1,0,0.3,0,0.3,0.1c0.1,0.1,0.1,0.2,0.1,0.3s0,0.3-0.1,0.4C16.7,20.8,16.6,20.9,16.4,20.9"/>
			<path id="Path_1416" class="st0" d="M16.4,18.9c-0.1,0-0.3,0-0.3-0.1c-0.1-0.1-0.2-0.2-0.1-0.4c0-0.1,0.1-0.2,0.1-0.3
				c0.1-0.1,0.2-0.1,0.3-0.1c0.1,0,0.3,0,0.3,0.1c0.1,0.1,0.1,0.2,0.1,0.3c0,0.1,0,0.3-0.1,0.4C16.7,18.9,16.6,18.9,16.4,18.9"/>
			<path id="Path_1417" class="st0" d="M16.4,17c-0.1,0-0.3,0-0.3-0.1c-0.1-0.1-0.2-0.2-0.1-0.4c0-0.1,0.1-0.2,0.1-0.3
				c0.1-0.1,0.2-0.1,0.3-0.1c0.1,0,0.3,0,0.3,0.1c0.1,0.1,0.1,0.2,0.1,0.3c0,0.1,0,0.3-0.1,0.4C16.7,16.9,16.6,17,16.4,17"/>
			<path id="Path_1418" class="st0" d="M16.4,15c-0.1,0-0.3,0-0.3-0.1c-0.1-0.1-0.2-0.2-0.1-0.4c0-0.1,0.1-0.2,0.1-0.3
				c0.1-0.1,0.2-0.1,0.3-0.1c0.1,0,0.3,0,0.3,0.1c0.1,0.1,0.1,0.2,0.1,0.3c0,0.1,0,0.3-0.1,0.4C16.7,15,16.6,15,16.4,15"/>
			<path id="Path_1419" class="st0" d="M16.4,13c-0.1,0-0.3,0-0.3-0.1c-0.1-0.1-0.2-0.2-0.1-0.4c0-0.1,0.1-0.2,0.1-0.3
				c0.1-0.1,0.2-0.1,0.3-0.1c0.1,0,0.3,0,0.3,0.1c0.1,0.1,0.1,0.2,0.1,0.3c0,0.1,0,0.3-0.1,0.4C16.7,13,16.6,13,16.4,13"/>
			<path id="Path_1420" class="st0" d="M16.4,11.1c-0.1,0-0.3,0-0.3-0.1c-0.1-0.1-0.2-0.2-0.1-0.4c0-0.1,0.1-0.2,0.1-0.3
				c0.1-0.1,0.2-0.1,0.3-0.1c0.1,0,0.3,0,0.3,0.1c0.1,0.1,0.1,0.2,0.1,0.3c0,0.1,0,0.3-0.1,0.4C16.7,11,16.6,11.1,16.4,11.1"/>
			<path id="Path_1421" class="st0" d="M16.4,9.1c-0.1,0-0.3,0-0.3-0.1C16,8.9,15.9,8.8,16,8.6c0-0.1,0.1-0.2,0.1-0.3
				c0.1-0.1,0.2-0.1,0.3-0.1c0.1,0,0.3,0,0.3,0.1c0.1,0.1,0.1,0.2,0.1,0.3c0,0.1,0,0.3-0.1,0.4C16.7,9.1,16.6,9.1,16.4,9.1"/>
			<path id="Path_1422" class="st0" d="M16.4,7.2c-0.1,0-0.3,0-0.3-0.1C16,7,15.9,6.9,16,6.7c0-0.1,0.1-0.2,0.1-0.3
				c0.1-0.1,0.2-0.1,0.3-0.1c0.1,0,0.3,0,0.3,0.1c0.1,0.1,0.1,0.2,0.1,0.3c0,0.1,0,0.3-0.1,0.4C16.7,7.1,16.6,7.2,16.4,7.2"/>
			<path id="Path_1423" class="st0" d="M18.4,24.8c-0.1,0-0.3,0-0.3-0.1c-0.1-0.1-0.2-0.2-0.1-0.4c0-0.1,0.1-0.2,0.1-0.3
				c0.1-0.1,0.2-0.1,0.3-0.1c0.1,0,0.3,0,0.3,0.1c0.1,0.1,0.1,0.2,0.1,0.3s0,0.3-0.1,0.4C18.7,24.8,18.6,24.8,18.4,24.8"/>
			<path id="Path_1424" class="st0" d="M18.4,22.8c-0.1,0-0.3,0-0.3-0.1c-0.1-0.1-0.2-0.2-0.1-0.4c0-0.1,0.1-0.2,0.1-0.3
				c0.1-0.1,0.2-0.1,0.3-0.1c0.1,0,0.3,0,0.3,0.1c0.1,0.1,0.1,0.2,0.1,0.3s0,0.3-0.1,0.4C18.7,22.8,18.6,22.8,18.4,22.8"/>
			<path id="Path_1425" class="st0" d="M18.4,20.9c-0.1,0-0.3,0-0.3-0.1c-0.1-0.1-0.2-0.2-0.1-0.4c0-0.1,0.1-0.2,0.1-0.3
				c0.1-0.1,0.2-0.1,0.3-0.1c0.1,0,0.3,0,0.3,0.1c0.1,0.1,0.1,0.2,0.1,0.3s0,0.3-0.1,0.4C18.7,20.8,18.6,20.9,18.4,20.9"/>
		</g>
		<path id="Path_1426" class="st1" d="M70,40.2L42.2,67.7V40.2H70z"/>
		<path id="Path_1427" class="st0" d="M42.7,40.7v25.6l26-25.6H42.7z M42.6,68l-0.9-0.4v-28h29.8L42.6,68z"/>
		<g id="Group_452" transform="translate(32.387 12.773)">
			<path id="Path_1428" class="st0" d="M0.5,18.6c-0.1,0-0.3,0-0.3-0.1c-0.1-0.1-0.2-0.2-0.1-0.4c0-0.1,0.1-0.2,0.1-0.3
				c0.1-0.1,0.2-0.1,0.3-0.1s0.3,0,0.3,0.1c0.1,0.1,0.1,0.2,0.1,0.3c0,0.1,0,0.3-0.1,0.4S0.6,18.6,0.5,18.6"/>
			<path id="Path_1429" class="st0" d="M0.5,16.7c-0.1,0-0.3,0-0.3-0.1c-0.1-0.1-0.2-0.2-0.1-0.4c0-0.1,0.1-0.2,0.1-0.3
				c0.1-0.1,0.2-0.1,0.3-0.1s0.3,0,0.3,0.1c0.1,0.1,0.1,0.2,0.1,0.3c0,0.1,0,0.3-0.1,0.4C0.7,16.6,0.6,16.7,0.5,16.7"/>
			<path id="Path_1430" class="st0" d="M0.5,14.7c-0.1,0-0.3,0-0.3-0.1c-0.1-0.1-0.2-0.2-0.1-0.4c0-0.1,0.1-0.2,0.1-0.3
				c0.1-0.1,0.2-0.1,0.3-0.1s0.3,0,0.3,0.1c0.1,0.1,0.1,0.2,0.1,0.3c0,0.1,0,0.3-0.1,0.4S0.6,14.7,0.5,14.7"/>
			<path id="Path_1431" class="st0" d="M0.5,12.8c-0.1,0-0.3,0-0.3-0.1c-0.1-0.1-0.2-0.2-0.1-0.4c0-0.1,0.1-0.2,0.1-0.3
				c0.1-0.1,0.2-0.1,0.3-0.1s0.3,0,0.3,0.1c0.1,0.1,0.1,0.2,0.1,0.3c0,0.1,0,0.3-0.1,0.4C0.7,12.7,0.6,12.8,0.5,12.8"/>
			<path id="Path_1432" class="st0" d="M0.5,10.8c-0.1,0-0.3,0-0.3-0.1c-0.1-0.1-0.2-0.2-0.1-0.4c0-0.1,0.1-0.2,0.1-0.3
				c0.1-0.1,0.2-0.1,0.3-0.1s0.3,0,0.3,0.1c0.1,0.1,0.1,0.2,0.1,0.3c0,0.1,0,0.3-0.1,0.4S0.6,10.8,0.5,10.8"/>
			<path id="Path_1433" class="st0" d="M0.5,8.8c-0.1,0-0.3,0-0.3-0.1C0.1,8.6,0,8.5,0.1,8.3c0-0.1,0.1-0.2,0.1-0.3
				c0.1-0.1,0.2-0.1,0.3-0.1s0.3,0,0.3,0.1c0.1,0.1,0.1,0.2,0.1,0.3c0,0.1,0,0.3-0.1,0.4S0.6,8.8,0.5,8.8"/>
			<path id="Path_1434" class="st0" d="M0.5,6.9c-0.1,0-0.3,0-0.3-0.1C0.1,6.7,0,6.6,0.1,6.4c0-0.1,0.1-0.2,0.1-0.3
				C0.3,6,0.4,6,0.5,6s0.3,0,0.3,0.1c0.1,0.1,0.1,0.2,0.1,0.3c0,0.1,0,0.3-0.1,0.4C0.7,6.8,0.6,6.9,0.5,6.9"/>
			<path id="Path_1435" class="st0" d="M0.5,4.9c-0.1,0-0.3,0-0.3-0.1C0.1,4.7,0,4.6,0.1,4.4c0-0.1,0.1-0.2,0.1-0.3
				C0.3,4,0.4,4,0.5,4s0.3,0,0.3,0.1c0.1,0.1,0.1,0.2,0.1,0.3c0,0.1,0,0.3-0.1,0.4S0.6,4.9,0.5,4.9"/>
			<path id="Path_1436" class="st0" d="M2.5,24.5c-0.1,0-0.3,0-0.3-0.1C2.1,24.3,2,24.2,2.1,24c0-0.1,0-0.2,0.1-0.3s0.2-0.1,0.3-0.1
				s0.3,0,0.3,0.1c0.1,0.1,0.1,0.2,0.1,0.3s0,0.3-0.1,0.4C2.7,24.5,2.6,24.5,2.5,24.5"/>
			<path id="Path_1437" class="st0" d="M2.5,22.6c-0.1,0-0.3,0-0.3-0.1c-0.1-0.1-0.2-0.2-0.1-0.4c0-0.1,0-0.2,0.1-0.3
				s0.2-0.1,0.3-0.1s0.3,0,0.3,0.1c0.1,0.1,0.1,0.2,0.1,0.3s0,0.3-0.1,0.4C2.7,22.5,2.6,22.6,2.5,22.6"/>
			<path id="Path_1438" class="st0" d="M2.5,20.6c-0.1,0-0.3,0-0.3-0.1c-0.1-0.1-0.2-0.2-0.1-0.4c0-0.1,0-0.2,0.1-0.3
				s0.2-0.1,0.3-0.1s0.3,0,0.3,0.1c0.1,0.1,0.1,0.2,0.1,0.3s0,0.3-0.1,0.4C2.7,20.6,2.6,20.6,2.5,20.6"/>
			<path id="Path_1439" class="st0" d="M2.5,18.6c-0.1,0-0.3,0-0.3-0.1c-0.1-0.1-0.2-0.2-0.1-0.4c0-0.1,0-0.2,0.1-0.3
				c0.1-0.1,0.2-0.1,0.3-0.1s0.3,0,0.3,0.1c0.1,0.1,0.1,0.2,0.1,0.3c0,0.1,0,0.3-0.1,0.4C2.7,18.6,2.6,18.6,2.5,18.6"/>
			<path id="Path_1440" class="st0" d="M2.5,16.7c-0.1,0-0.3,0-0.3-0.1c-0.1-0.1-0.2-0.2-0.1-0.4c0-0.1,0-0.2,0.1-0.3
				c0.1-0.1,0.2-0.1,0.3-0.1s0.3,0,0.3,0.1c0.1,0.1,0.1,0.2,0.1,0.3c0,0.1,0,0.3-0.1,0.4C2.7,16.6,2.6,16.7,2.5,16.7"/>
			<path id="Path_1441" class="st0" d="M2.5,14.7c-0.1,0-0.3,0-0.3-0.1c-0.1-0.1-0.2-0.2-0.1-0.4c0-0.1,0-0.2,0.1-0.3
				c0.1-0.1,0.2-0.1,0.3-0.1s0.3,0,0.3,0.1c0.1,0.1,0.1,0.2,0.1,0.3c0,0.1,0,0.3-0.1,0.4C2.7,14.7,2.6,14.7,2.5,14.7"/>
			<path id="Path_1442" class="st0" d="M2.5,12.8c-0.1,0-0.3,0-0.3-0.1c-0.1-0.1-0.2-0.2-0.1-0.4c0-0.1,0-0.2,0.1-0.3
				c0.1-0.1,0.2-0.1,0.3-0.1s0.3,0,0.3,0.1c0.1,0.1,0.1,0.2,0.1,0.3c0,0.1,0,0.3-0.1,0.4C2.7,12.7,2.6,12.8,2.5,12.8"/>
			<path id="Path_1443" class="st0" d="M2.5,10.8c-0.1,0-0.3,0-0.3-0.1c-0.1-0.1-0.2-0.2-0.1-0.4c0-0.1,0-0.2,0.1-0.3
				c0.1-0.1,0.2-0.1,0.3-0.1s0.3,0,0.3,0.1c0.1,0.1,0.1,0.2,0.1,0.3c0,0.1,0,0.3-0.1,0.4C2.7,10.8,2.6,10.8,2.5,10.8"/>
			<path id="Path_1444" class="st0" d="M2.5,8.8c-0.1,0-0.3,0-0.3-0.1C2.1,8.6,2,8.5,2.1,8.3c0-0.1,0-0.2,0.1-0.3
				c0.1-0.1,0.2-0.1,0.3-0.1s0.3,0,0.3,0.1c0.1,0.1,0.1,0.2,0.1,0.3c0,0.1,0,0.3-0.1,0.4C2.7,8.8,2.6,8.8,2.5,8.8"/>
			<path id="Path_1445" class="st0" d="M2.5,6.9c-0.1,0-0.3,0-0.3-0.1C2.1,6.7,2,6.6,2.1,6.4c0-0.1,0-0.2,0.1-0.3C2.3,6,2.4,6,2.5,6
				s0.3,0,0.3,0.1c0.1,0.1,0.1,0.2,0.1,0.3c0,0.1,0,0.3-0.1,0.4C2.7,6.8,2.6,6.9,2.5,6.9"/>
			<path id="Path_1446" class="st0" d="M2.5,4.9c-0.1,0-0.3,0-0.3-0.1C2.1,4.7,2,4.6,2.1,4.4c0-0.1,0-0.2,0.1-0.3C2.3,4,2.4,4,2.5,4
				s0.3,0,0.3,0.1c0.1,0.1,0.1,0.2,0.1,0.3c0,0.1,0,0.3-0.1,0.4C2.7,4.9,2.6,4.9,2.5,4.9"/>
			<path id="Path_1447" class="st0" d="M2.5,3C2.4,3,2.2,3,2.2,2.9C2.1,2.8,2,2.7,2.1,2.5c0-0.1,0-0.2,0.1-0.3s0.2-0.1,0.3-0.1
				s0.3,0,0.3,0.1c0.1,0.1,0.1,0.2,0.1,0.3s0,0.3-0.1,0.4C2.7,2.9,2.6,3,2.5,3"/>
			<path id="Path_1448" class="st0" d="M4.5,24.5c-0.1,0-0.3,0-0.3-0.1C4.1,24.3,4,24.2,4.1,24c0-0.1,0-0.2,0.1-0.3s0.2-0.1,0.3-0.1
				c0.1,0,0.3,0,0.3,0.1c0.1,0.1,0.1,0.2,0.1,0.3s0,0.3-0.1,0.4C4.7,24.5,4.6,24.5,4.5,24.5"/>
			<path id="Path_1449" class="st0" d="M4.5,22.6c-0.1,0-0.3,0-0.3-0.1c-0.1-0.1-0.2-0.2-0.1-0.4c0-0.1,0-0.2,0.1-0.3
				s0.2-0.1,0.3-0.1c0.1,0,0.3,0,0.3,0.1c0.1,0.1,0.1,0.2,0.1,0.3s0,0.3-0.1,0.4C4.7,22.5,4.6,22.6,4.5,22.6"/>
			<path id="Path_1450" class="st0" d="M4.5,20.6c-0.1,0-0.3,0-0.3-0.1c-0.1-0.1-0.2-0.2-0.1-0.4c0-0.1,0-0.2,0.1-0.3
				s0.2-0.1,0.3-0.1c0.1,0,0.3,0,0.3,0.1c0.1,0.1,0.1,0.2,0.1,0.3s0,0.3-0.1,0.4C4.7,20.6,4.6,20.6,4.5,20.6"/>
			<path id="Path_1451" class="st0" d="M4.5,18.6c-0.1,0-0.3,0-0.3-0.1c-0.1-0.1-0.2-0.2-0.1-0.4c0-0.1,0-0.2,0.1-0.3
				c0.1-0.1,0.2-0.1,0.3-0.1c0.1,0,0.3,0,0.3,0.1c0.1,0.1,0.1,0.2,0.1,0.3c0,0.1,0,0.3-0.1,0.4C4.7,18.6,4.6,18.6,4.5,18.6"/>
			<path id="Path_1452" class="st0" d="M4.5,16.7c-0.1,0-0.3,0-0.3-0.1c-0.1-0.1-0.2-0.2-0.1-0.4c0-0.1,0-0.2,0.1-0.3
				c0.1-0.1,0.2-0.1,0.3-0.1c0.1,0,0.3,0,0.3,0.1c0.1,0.1,0.1,0.2,0.1,0.3c0,0.1,0,0.3-0.1,0.4C4.7,16.6,4.6,16.7,4.5,16.7"/>
			<path id="Path_1453" class="st0" d="M4.5,14.7c-0.1,0-0.3,0-0.3-0.1c-0.1-0.1-0.2-0.2-0.1-0.4c0-0.1,0-0.2,0.1-0.3
				c0.1-0.1,0.2-0.1,0.3-0.1c0.1,0,0.3,0,0.3,0.1c0.1,0.1,0.1,0.2,0.1,0.3c0,0.1,0,0.3-0.1,0.4C4.7,14.7,4.6,14.7,4.5,14.7"/>
			<path id="Path_1454" class="st0" d="M4.5,12.8c-0.1,0-0.3,0-0.3-0.1c-0.1-0.1-0.2-0.2-0.1-0.4c0-0.1,0-0.2,0.1-0.3
				c0.1-0.1,0.2-0.1,0.3-0.1c0.1,0,0.3,0,0.3,0.1c0.1,0.1,0.1,0.2,0.1,0.3c0,0.1,0,0.3-0.1,0.4C4.7,12.7,4.6,12.8,4.5,12.8"/>
			<path id="Path_1455" class="st0" d="M4.5,10.8c-0.1,0-0.3,0-0.3-0.1c-0.1-0.1-0.2-0.2-0.1-0.4c0-0.1,0-0.2,0.1-0.3
				c0.1-0.1,0.2-0.1,0.3-0.1c0.1,0,0.3,0,0.3,0.1c0.1,0.1,0.1,0.2,0.1,0.3c0,0.1,0,0.3-0.1,0.4C4.7,10.8,4.6,10.8,4.5,10.8"/>
			<path id="Path_1456" class="st0" d="M4.5,8.8c-0.1,0-0.3,0-0.3-0.1C4.1,8.6,4,8.5,4.1,8.3c0-0.1,0-0.2,0.1-0.3
				c0.1-0.1,0.2-0.1,0.3-0.1c0.1,0,0.3,0,0.3,0.1c0.1,0.1,0.1,0.2,0.1,0.3c0,0.1,0,0.3-0.1,0.4C4.7,8.8,4.6,8.8,4.5,8.8"/>
			<path id="Path_1457" class="st0" d="M4.5,6.9c-0.1,0-0.3,0-0.3-0.1C4.1,6.7,4,6.6,4.1,6.4c0-0.1,0-0.2,0.1-0.3C4.3,6,4.4,6,4.5,6
				c0.1,0,0.3,0,0.3,0.1c0.1,0.1,0.1,0.2,0.1,0.3c0,0.1,0,0.3-0.1,0.4C4.7,6.8,4.6,6.9,4.5,6.9"/>
			<path id="Path_1458" class="st0" d="M4.5,4.9c-0.1,0-0.3,0-0.3-0.1C4.1,4.7,4,4.6,4.1,4.4c0-0.1,0-0.2,0.1-0.3C4.3,4,4.4,4,4.5,4
				c0.1,0,0.3,0,0.3,0.1c0.1,0.1,0.1,0.2,0.1,0.3c0,0.1,0,0.3-0.1,0.4C4.7,4.9,4.6,4.9,4.5,4.9"/>
			<path id="Path_1459" class="st0" d="M4.5,3C4.4,3,4.2,3,4.2,2.9C4.1,2.8,4,2.7,4.1,2.5c0-0.1,0-0.2,0.1-0.3s0.2-0.1,0.3-0.1
				c0.1,0,0.3,0,0.3,0.1c0.1,0.1,0.1,0.2,0.1,0.3s0,0.3-0.1,0.4C4.7,2.9,4.6,3,4.5,3"/>
			<path id="Path_1460" class="st0" d="M4.5,1C4.4,1,4.2,1,4.2,0.9C4.1,0.8,4,0.7,4.1,0.5c0-0.1,0-0.2,0.1-0.3s0.2-0.1,0.3-0.1
				c0.1,0,0.3,0,0.3,0.1c0.1,0.1,0.1,0.2,0.1,0.3s0,0.3-0.1,0.4C4.7,1,4.6,1,4.5,1"/>
			<path id="Path_1461" class="st0" d="M6.5,24.5c-0.1,0-0.3,0-0.3-0.1C6.1,24.3,6,24.2,6.1,24c0-0.1,0.1-0.2,0.1-0.3
				c0.1-0.1,0.2-0.1,0.3-0.1c0.1,0,0.3,0,0.3,0.1c0.1,0.1,0.1,0.2,0.1,0.3s0,0.3-0.1,0.4C6.7,24.5,6.6,24.5,6.5,24.5"/>
			<path id="Path_1462" class="st0" d="M6.5,22.6c-0.1,0-0.3,0-0.3-0.1c-0.1-0.1-0.2-0.2-0.1-0.4c0-0.1,0.1-0.2,0.1-0.3
				c0.1-0.1,0.2-0.1,0.3-0.1c0.1,0,0.3,0,0.3,0.1c0.1,0.1,0.1,0.2,0.1,0.3s0,0.3-0.1,0.4C6.7,22.5,6.6,22.6,6.5,22.6"/>
			<path id="Path_1463" class="st0" d="M6.5,20.6c-0.1,0-0.3,0-0.3-0.1c-0.1-0.1-0.2-0.2-0.1-0.4c0-0.1,0.1-0.2,0.1-0.3
				c0.1-0.1,0.2-0.1,0.3-0.1c0.1,0,0.3,0,0.3,0.1c0.1,0.1,0.1,0.2,0.1,0.3s0,0.3-0.1,0.4C6.7,20.6,6.6,20.6,6.5,20.6"/>
			<path id="Path_1464" class="st0" d="M6.5,18.6c-0.1,0-0.3,0-0.3-0.1c-0.1-0.1-0.2-0.2-0.1-0.4c0-0.1,0.1-0.2,0.1-0.3
				c0.1-0.1,0.2-0.1,0.3-0.1c0.1,0,0.3,0,0.3,0.1c0.1,0.1,0.1,0.2,0.1,0.3c0,0.1,0,0.3-0.1,0.4C6.7,18.6,6.6,18.6,6.5,18.6"/>
			<path id="Path_1465" class="st0" d="M6.5,16.7c-0.1,0-0.3,0-0.3-0.1c-0.1-0.1-0.2-0.2-0.1-0.4c0-0.1,0.1-0.2,0.1-0.3
				c0.1-0.1,0.2-0.1,0.3-0.1c0.1,0,0.3,0,0.3,0.1c0.1,0.1,0.1,0.2,0.1,0.3c0,0.1,0,0.3-0.1,0.4C6.7,16.6,6.6,16.7,6.5,16.7"/>
			<path id="Path_1466" class="st0" d="M6.5,14.7c-0.1,0-0.3,0-0.3-0.1c-0.1-0.1-0.2-0.2-0.1-0.4c0-0.1,0.1-0.2,0.1-0.3
				c0.1-0.1,0.2-0.1,0.3-0.1c0.1,0,0.3,0,0.3,0.1c0.1,0.1,0.1,0.2,0.1,0.3c0,0.1,0,0.3-0.1,0.4C6.7,14.7,6.6,14.7,6.5,14.7"/>
			<path id="Path_1467" class="st0" d="M6.5,12.8c-0.1,0-0.3,0-0.3-0.1c-0.1-0.1-0.2-0.2-0.1-0.4c0-0.1,0.1-0.2,0.1-0.3
				c0.1-0.1,0.2-0.1,0.3-0.1c0.1,0,0.3,0,0.3,0.1c0.1,0.1,0.1,0.2,0.1,0.3c0,0.1,0,0.3-0.1,0.4C6.7,12.7,6.6,12.8,6.5,12.8"/>
			<path id="Path_1468" class="st0" d="M6.5,10.8c-0.1,0-0.3,0-0.3-0.1c-0.1-0.1-0.2-0.2-0.1-0.4c0-0.1,0.1-0.2,0.1-0.3
				c0.1-0.1,0.2-0.1,0.3-0.1c0.1,0,0.3,0,0.3,0.1c0.1,0.1,0.1,0.2,0.1,0.3c0,0.1,0,0.3-0.1,0.4C6.7,10.8,6.6,10.8,6.5,10.8"/>
			<path id="Path_1469" class="st0" d="M6.5,8.8c-0.1,0-0.3,0-0.3-0.1C6.1,8.6,6,8.5,6.1,8.3c0-0.1,0.1-0.2,0.1-0.3
				c0.1-0.1,0.2-0.1,0.3-0.1c0.1,0,0.3,0,0.3,0.1c0.1,0.1,0.1,0.2,0.1,0.3c0,0.1,0,0.3-0.1,0.4C6.7,8.8,6.6,8.8,6.5,8.8"/>
			<path id="Path_1470" class="st0" d="M6.5,6.9c-0.1,0-0.3,0-0.3-0.1C6.1,6.7,6,6.6,6.1,6.4c0-0.1,0.1-0.2,0.1-0.3
				C6.3,6,6.4,6,6.5,6c0.1,0,0.3,0,0.3,0.1c0.1,0.1,0.1,0.2,0.1,0.3c0,0.1,0,0.3-0.1,0.4C6.7,6.8,6.6,6.9,6.5,6.9"/>
			<path id="Path_1471" class="st0" d="M6.5,4.9c-0.1,0-0.3,0-0.3-0.1C6.1,4.7,6,4.6,6.1,4.4c0-0.1,0.1-0.2,0.1-0.3
				C6.3,4,6.4,4,6.5,4c0.1,0,0.3,0,0.3,0.1c0.1,0.1,0.1,0.2,0.1,0.3c0,0.1,0,0.3-0.1,0.4C6.7,4.9,6.6,4.9,6.5,4.9"/>
			<path id="Path_1472" class="st0" d="M6.5,3C6.4,3,6.2,3,6.2,2.9C6.1,2.8,6,2.7,6.1,2.5c0-0.1,0.1-0.2,0.1-0.3
				c0.1-0.1,0.2-0.1,0.3-0.1c0.1,0,0.3,0,0.3,0.1c0.1,0.1,0.1,0.2,0.1,0.3s0,0.3-0.1,0.4C6.7,2.9,6.6,3,6.5,3"/>
			<path id="Path_1473" class="st0" d="M6.5,1C6.4,1,6.2,1,6.2,0.9C6.1,0.8,6,0.7,6.1,0.5c0-0.1,0-0.2,0.1-0.3s0.2-0.1,0.3-0.1
				c0.1,0,0.3,0,0.3,0.1c0.1,0.1,0.1,0.2,0.1,0.3s0,0.3-0.1,0.4C6.7,1,6.6,1,6.5,1"/>
		</g>
		<path id="Path_1474" class="st1" d="M42.1,10.1L70,37.6H42.1V10.1z"/>
		<path id="Path_1475" class="st0" d="M42.6,37.1h26.1L42.6,11.5V37.1z M71.4,38.2H41.5v-28l0.9-0.4L71.4,38.2z"/>
		<g id="Group_453" transform="translate(38.368 10.814)">
			<path id="Path_1476" class="st0" d="M0.5,1C0.4,1,0.2,1,0.2,0.9C0.1,0.8,0,0.7,0.1,0.5c0-0.1,0-0.2,0.1-0.3s0.2-0.1,0.3-0.1
				s0.3,0,0.3,0.1c0.1,0.1,0.1,0.2,0.1,0.3s0,0.3-0.1,0.4C0.7,1,0.6,1,0.5,1"/>
		</g>
		<rect id="Rectangle_305" x="47" y="15.6" class="st0" width="1.1" height="22"/>
		<rect id="Rectangle_306" x="41.7" y="19.2" class="st0" width="9.6" height="1.1"/>
		<rect id="Rectangle_307" x="41.9" y="25.3" class="st0" width="16.4" height="1.1"/>
		<rect id="Rectangle_308" x="42.3" y="32.4" class="st0" width="23.4" height="1.1"/>
		<rect id="Rectangle_309" x="53.6" y="22.1" class="st0" width="1.1" height="15.9"/>
		<path id="Path_1477" class="st1" d="M39.5,67.7L11.6,40.2h27.9V67.7z"/>
		<path id="Path_1478" class="st0" d="M12.9,40.7L39,66.3V40.7H12.9z M39.1,68L10.2,39.7H40v28L39.1,68z"/>
		<rect id="Rectangle_310" x="60.4" y="28.5" class="st0" width="1.1" height="9.1"/>
		<rect id="Rectangle_311" x="71.7" y="37.5" class="st0" width="10.2" height="3"/>
		<path id="Path_1479" class="st0" d="M12.9,37H39V11.4L12.9,37z M40,38.1H10.2L39.1,9.8l0.9,0.4V38.1z"/>
		<rect id="Rectangle_312" y="37.5" class="st0" width="10.2" height="3"/>
		<path id="Path_1496" class="st0" d="M41.5,46.8l7.3-7.1l0.8,0.8l-7.3,7.1L41.5,46.8z"/>
		<path id="Path_1497" class="st0" d="M41.9,53.3l13.6-13.5l0.8,0.7L42.6,54L41.9,53.3z"/>
		<path id="Path_1498" class="st0" d="M41.7,60.2L62.3,40l0.8,0.8L42.5,60.9L41.7,60.2z"/>
		<path id="Path_1499" class="st0" d="M42.5,46.2l0.8-0.8l3.2,3.2l-0.8,0.8L42.5,46.2z"/>
		<path id="Path_1500" class="st0" d="M43.1,52.4l0.8-0.7l3.2,3.2l-0.8,0.8L43.1,52.4z"/>
		<path id="Path_1501" class="st0" d="M43.4,59.2l0.8-0.8l3.2,3.2l-0.8,0.8L43.4,59.2z"/>
		<path id="Path_1502" class="st0" d="M48.1,47.5l0.8-0.8l3.2,3.2l-0.8,0.8L48.1,47.5z"/>
		<path id="Path_1503" class="st0" d="M48.4,54.3l0.8-0.7l3.2,3.2l-0.8,0.8L48.4,54.3z"/>
		<path id="Path_1504" class="st0" d="M47.5,41.9l0.8-0.8l3.2,3.2l-0.7,0.8L47.5,41.9z"/>
		<path id="Path_1505" class="st0" d="M53.1,43.2l0.8-0.8l3.2,3.2l-0.8,0.8L53.1,43.2z"/>
		<path id="Path_1506" class="st0" d="M53.4,50l0.8-0.8l3.2,3.2l-0.8,0.8L53.4,50z"/>
		<path id="Path_1507" class="st0" d="M58.4,45.1l0.8-0.7l3.2,3.2l-0.8,0.8L58.4,45.1z"/>
		<rect id="Rectangle_325" x="33.5" y="40.3" class="st0" width="1.1" height="22"/>
		<rect id="Rectangle_326" x="30.2" y="57.6" class="st0" width="9.6" height="1.1"/>
		<rect id="Rectangle_327" x="23.2" y="51.5" class="st0" width="16.4" height="1.1"/>
		<rect id="Rectangle_328" x="15.9" y="44.4" class="st0" width="23.4" height="1.1"/>
		<rect id="Rectangle_329" x="26.9" y="39.9" class="st0" width="1.1" height="15.9"/>
		<rect id="Rectangle_330" x="20.1" y="40.2" class="st0" width="1.1" height="9.1"/>
	</g>
	<g id="Group_455" transform="translate(110.001 6.547)">
		<path id="Path_1480" class="st0" d="M0.9,47.1H5v1.3H2.5V52h2.4v1.3H2.5v3.8h2.6v1.3H1V47.1H0.9z M8.2,58.3V47.1h1.5l2.7,8.5h0.1
			c0-0.6-0.1-1.2-0.1-1.7s-0.1-1.1-0.1-1.7s-0.1-1.3-0.1-1.9s0-1.7,0-3.2h1.6v11.3h-1.5l-2.8-8.8l0,0c0.1,1,0.2,1.8,0.2,2.3
			s0.1,1.2,0.1,1.8c0,0.7,0,1.4,0,2.1c0,0.5,0,0.9,0,1.3s0,0.7,0,1.1L8.2,58.3z M20.2,52.4H23v1.4c0,0.9-0.1,1.9-0.3,2.8
			c-0.1,0.6-0.5,1.1-0.9,1.5c-0.4,0.3-1,0.4-1.5,0.4c-0.7,0.1-1.5-0.2-2-0.7c-0.5-0.6-0.8-1.3-0.9-2.1c-0.2-1.2-0.2-2.4-0.2-3.6
			c0-1.1,0.1-2.1,0.3-3.1c0.1-0.6,0.5-1.2,1-1.6c0.5-0.4,1.2-0.5,1.8-0.5c1.3,0,2.5,1,2.7,2.3l-1.5,0.6c0-0.4-0.2-0.8-0.5-1.1
			c-0.2-0.2-0.5-0.4-0.9-0.4c-0.5,0-0.9,0.3-1.1,1c-0.2,1-0.3,2.1-0.3,3.1c0,1.1,0.1,2.2,0.3,3.3c0,0.4,0.2,0.7,0.4,1
			c0.2,0.2,0.5,0.3,0.7,0.3c0.8,0,1.3-0.8,1.3-2.6v-0.8h-1.3L20.2,52.4z M27.9,58.3h-1.5V47.1h1.5V58.3z M31.7,58.3V47.1h1.5
			l2.7,8.5H36c0-0.6-0.1-1.1-0.1-1.7s-0.1-1.1-0.1-1.7s-0.1-1.3-0.1-1.9s0-1.7,0-3.2h1.6v11.3h-1.4l-2.7-8.7l0,0
			c0.1,1,0.2,1.8,0.2,2.3s0.1,1.2,0.1,1.8s0,1.4,0,2.1c0,0.5,0,0.9,0,1.3s0,0.7,0,1.1L31.7,58.3z M40.9,47.1H45v1.3h-2.5V52h2.4v1.3
			h-2.4v3.8h2.6v1.3H41L40.9,47.1z M48.2,47.1h4.1v1.3h-2.6V52h2.4v1.3h-2.4v3.8h2.6v1.3h-4.1C48.2,58.4,48.2,47.1,48.2,47.1z
			 M55.5,58.3V47.1h2.1c0.7-0.1,1.4,0.2,1.9,0.6c0.5,0.5,0.7,1.2,0.7,1.9c0,0.5,0,1.1-0.1,1.6c-0.1,0.4-0.3,0.9-0.6,1.2
			c-0.2,0.3-0.5,0.5-0.9,0.5l2.1,5.5h-1.6L57,52.9l0,0v5.5L55.5,58.3z M57,52.1c1,0,1.6-0.6,1.6-1.9c0-0.4-0.1-0.9-0.3-1.3
			c-0.2-0.4-0.6-0.6-1-0.5h-0.2L57,52.1z M63.7,56.4c0.4,0.3,1,0.5,1.5,0.6c0.4,0,0.8-0.2,1.1-0.5c0.3-0.4,0.4-0.8,0.3-1.3
			c0-0.4-0.2-0.8-0.4-1.2c-0.3-0.4-0.7-0.8-1.1-1.2c-0.4-0.4-0.8-0.8-1.1-1.2c-0.3-0.4-0.5-0.8-0.5-1.3c-0.2-0.9,0-1.8,0.5-2.5
			c0.5-0.6,1.2-1,2-0.9c0.6,0,1.2,0.1,1.7,0.4v1.5c-0.4-0.3-0.8-0.5-1.3-0.5c-0.4,0-0.7,0.1-1,0.4C65.1,49,65,49.5,65,49.9
			c0,0.3,0.1,0.7,0.3,0.9c0.2,0.3,0.6,0.7,1.1,1.2s0.9,1,1.3,1.5c0.3,0.5,0.5,1,0.5,1.5c0.1,0.9-0.1,1.8-0.7,2.5
			c-0.5,0.5-1.3,0.9-2,0.8c-0.6,0-1.2-0.2-1.7-0.5L63.7,56.4z M76.5,51.7c0.6-0.4,1-1.1,1.1-1.8c0-0.2-0.1-0.5-0.2-0.6
			C77.2,49.1,77,49,76.8,49c-0.3,0-0.5,0.1-0.6,0.3c-0.2,0.2-0.3,0.4-0.3,0.7c0,0.2,0.1,0.3,0.1,0.5c0.1,0.2,0.2,0.4,0.3,0.6
			C76.3,51.3,76.4,51.5,76.5,51.7 M77.7,56.4l-1.6-2.6c-0.5,0.5-0.8,1.1-0.9,1.8c0,0.1,0,0.2,0,0.4c0.1,0.3,0.2,0.6,0.5,0.9
			c0.2,0.2,0.5,0.4,0.8,0.4C77,57.2,77.5,56.9,77.7,56.4 M78.4,57.4c-0.2,0.3-0.5,0.6-0.9,0.8c-0.3,0.2-0.7,0.3-1.1,0.3
			c-0.6,0-1.2-0.2-1.7-0.7c-0.5-0.4-0.8-1.1-0.9-1.7c0-0.1,0-0.3-0.1-0.4c0.1-1.2,0.7-2.3,1.7-3c-0.5-0.8-0.9-1.7-1-2.6
			c0-0.6,0.3-1.2,0.7-1.6c0.4-0.4,1-0.6,1.6-0.6c0.5,0,1,0.2,1.5,0.5c0.4,0.3,0.6,0.8,0.7,1.3c0.1,0.6-0.1,1.1-0.3,1.6
			c-0.4,0.6-0.8,1.2-1.4,1.7l1.5,2.4l0.9-1.3l1,0.8l-1.2,1.7l1.2,1.9h-1.7L78.4,57.4z M87,47.1h1.9c0.8-0.1,1.6,0.2,2.1,0.7
			c0.4,0.6,0.6,1.2,0.6,1.9v0.5c0,0.5-0.1,1.1-0.3,1.6c-0.2,0.4-0.6,0.7-1.1,0.8l0,0c1.1,0.3,1.8,1.3,1.6,2.4c0,0.2,0,0.3,0,0.4
			s0,0.2,0,0.3c0.1,0.8-0.3,1.5-0.8,2c-0.6,0.4-1.3,0.6-2,0.6h-1.9L87,47.1z M88.4,48.3V52c0.5,0.1,1-0.1,1.3-0.4
			c0.3-0.5,0.4-1,0.3-1.5c0-0.5-0.1-0.9-0.3-1.3c-0.2-0.3-0.6-0.5-1-0.4L88.4,48.3z M88.4,53.2V57c0.4,0.1,0.9,0,1.2-0.3
			c0.3-0.3,0.4-0.7,0.4-1.1v-0.5C90,53.9,89.5,53.3,88.4,53.2L88.4,53.2z M95.3,47.1h1.5v7.8c0,0.5,0,1.1,0.2,1.6
			c0.1,0.4,0.5,0.6,0.9,0.5c0.5,0,0.9-0.1,1-0.4c0.2-0.5,0.3-1,0.2-1.5v-8h1.6v8.1c0.1,0.9-0.1,1.8-0.5,2.5
			c-0.5,0.6-1.3,0.9-2.1,0.8c-0.8,0.1-1.6-0.2-2.1-0.8c-0.5-0.8-0.7-1.7-0.6-2.6L95.3,47.1z M106,58.3h-1.5V47.1h1.5V58.3z
			 M109.8,47.1h1.5V57h2.6v1.3h-4.1V47.1z M116.8,47.1h2.2c0.9-0.1,1.7,0.2,2.3,0.9c0.5,0.6,0.8,1.3,0.9,2c0.1,0.5,0.2,1,0.2,1.5
			s0.1,1.1,0.1,1.6c0.1,1.4-0.2,2.7-0.8,4c-0.3,0.5-0.8,0.9-1.4,1.1c-0.7,0.2-1.4,0.3-2.2,0.2h-1.3V47.1z M118.3,48.3V57
			c0.6,0.1,1.1-0.1,1.6-0.4c0.4-0.4,0.7-0.9,0.8-1.5c0.1-0.7,0.1-1.4,0.1-2.2c0-1.1-0.1-2.2-0.3-3.2c-0.1-0.5-0.4-0.8-0.8-1.1
			C119.3,48.4,118.8,48.3,118.3,48.3 M125.9,47.1h4.1v1.3h-2.6V52h2.4v1.3h-2.4v3.8h2.6v1.3h-4.2L125.9,47.1z M133.1,58.3V47.1h2.1
			c0.7-0.1,1.4,0.2,1.9,0.6c0.5,0.5,0.7,1.2,0.7,1.9c0,0.5,0,1.1-0.1,1.6c-0.1,0.4-0.3,0.9-0.6,1.2c-0.2,0.3-0.5,0.5-0.9,0.5
			l2.1,5.5h-1.6l-2.1-5.5l0,0v5.5L133.1,58.3z M134.6,52.1c1.1,0,1.6-0.6,1.6-1.9c0-0.4-0.1-0.9-0.3-1.3c-0.2-0.4-0.6-0.6-1-0.5
			h-0.2L134.6,52.1z M141.3,56.4c0.4,0.3,1,0.5,1.5,0.6c0.4,0,0.8-0.2,1.1-0.5c0.3-0.4,0.4-0.8,0.3-1.3c0-0.4-0.2-0.8-0.4-1.2
			c-0.3-0.4-0.7-0.8-1.1-1.2c-0.4-0.4-0.8-0.8-1.1-1.2c-0.3-0.4-0.5-0.8-0.5-1.3c-0.2-0.9,0-1.8,0.5-2.5c0.5-0.6,1.2-1,2-0.9
			c0.6,0,1.2,0.1,1.7,0.4v1.5c-0.4-0.3-0.8-0.5-1.3-0.5c-0.4,0-0.7,0.1-1,0.4c-0.3,0.3-0.4,0.8-0.4,1.2c0,0.3,0.1,0.7,0.3,0.9
			c0.4,0.4,0.7,0.8,1.1,1.2c0.5,0.5,0.9,1,1.3,1.5c0.3,0.5,0.5,1,0.5,1.5c0.1,0.9-0.1,1.8-0.7,2.5c-0.5,0.5-1.3,0.9-2,0.8
			c-0.6,0-1.2-0.2-1.6-0.5L141.3,56.4z"/>
		<path id="Path_1481" class="st2" d="M15.2,0l0.5,3.2c-0.1,0-0.2-0.1-0.3-0.1S15.2,3,15.1,3c-0.3-0.1-0.6-0.2-0.9-0.2
			c-0.4-0.1-0.8-0.1-1.1-0.1H7.2c-0.3,0-0.7,0-1,0.1C6,2.9,5.9,3.1,6,3.4v0.9c0,0.3,0.1,0.5,0.2,0.6C6.5,5,6.8,5,7.2,5h4.5
			c1.1-0.1,2.1,0.2,3.1,0.7c0.8,0.6,1.1,1.5,1.1,2.5v3.9c0.1,1-0.2,2.1-0.8,2.9c-0.8,0.8-2,1.1-3.1,1H0.6l-0.5-3.2
			c0.3,0.2,0.7,0.3,1,0.4c0.5,0.1,1,0.2,1.5,0.2h6.1c0.3,0,0.7,0,1-0.1c0.1-0.1,0.2-0.3,0.2-0.6v-1.1c0-0.2-0.1-0.4-0.2-0.6
			c-0.3-0.1-0.6-0.2-1-0.1H3.5c-1,0.1-1.9-0.2-2.7-0.7C0.2,9.4-0.1,8.5,0,7.5V3.9c-0.1-1,0.2-2.1,0.9-2.9c0.7-0.7,1.6-1,2.6-1
			L15.2,0z M17.7,4.3h6.1L24,6.2h0.1c0.2-0.6,0.6-1.1,1.1-1.5c0.6-0.3,1.3-0.5,2-0.4h3v3.8C30.1,8,30,8,29.9,7.9
			c-0.1,0-0.2-0.1-0.3-0.1c-0.3-0.1-0.5-0.2-0.8-0.2c-0.5,0-1-0.1-1.5-0.1c-0.8-0.1-1.6,0.1-2.3,0.4c-0.4,0.4-0.6,1-0.5,1.6v3.8
			c0,0.5,0,1.1,0.2,1.6c0.1,0.3,0.2,0.6,0.4,0.9c0,0,0,0.1,0.1,0.1c0,0,0,0.1,0.1,0.1h-7.4c0,0,0-0.1,0.1-0.1c0,0,0-0.1,0.1-0.1
			c0.2-0.3,0.3-0.6,0.4-0.9c0.1-0.5,0.2-1.1,0.2-1.6V7c0-0.5,0-1.1-0.2-1.6c-0.1-0.3-0.2-0.6-0.4-0.9C17.8,4.5,17.8,4.4,17.7,4.3
			C17.8,4.4,17.8,4.4,17.7,4.3 M31.9,13.3V7c0-0.5,0-1.1-0.2-1.6c-0.1-0.3-0.2-0.6-0.4-0.9c0,0,0-0.1-0.1-0.1V4.3h6.7v9
			c0,0.5,0,1.1,0.2,1.6c0.1,0.3,0.2,0.6,0.4,0.9c0,0,0,0.1,0.1,0.1c0,0,0,0.1,0.1,0.1h-7.4v-0.1c0,0,0-0.1,0.1-0.1
			c0.2-0.3,0.3-0.6,0.4-0.9C31.9,14.4,31.9,13.9,31.9,13.3 M32,0h6v3.1h-6V0z M65.8,0l0.5,3.2c-0.1,0-0.2-0.1-0.3-0.1S65.8,3,65.7,3
			c-0.3-0.1-0.6-0.2-0.9-0.2c-0.4-0.1-0.8-0.1-1.1-0.1h-5.9c-0.3,0-0.7,0-1,0.1c-0.2,0.1-0.3,0.3-0.2,0.6v0.9c0,0.3,0.1,0.5,0.2,0.6
			C57.1,5,57.4,5,57.8,5h4.5c1.1-0.1,2.1,0.2,3.1,0.7c0.8,0.6,1.1,1.5,1.1,2.5v3.9c0.1,1-0.2,2.1-0.8,2.9c-0.8,0.8-2,1.1-3.1,1H51.2
			l-0.5-3.2c0.3,0.2,0.7,0.3,1,0.4c0.5,0.1,1,0.2,1.5,0.2h6.1c0.3,0,0.7,0,1-0.1c0.1-0.1,0.2-0.3,0.2-0.6v-1.1
			c0-0.2-0.1-0.4-0.2-0.6c-0.3-0.1-0.6-0.2-1-0.1h-5.1c-1,0.1-1.9-0.2-2.7-0.7c-0.6-0.8-0.9-1.7-0.8-2.7V3.9c-0.1-1,0.2-2.1,0.9-2.9
			c0.7-0.7,1.6-1,2.6-1L65.8,0z M69.4,4.3h11.1c1.1-0.1,2.3,0.3,3.1,1c0.7,1,1.1,2.2,0.9,3.4v5.1c0,0.5,0,0.9,0.2,1.4
			c0.1,0.3,0.2,0.6,0.4,0.8H79l-0.3-1.3h-0.1c-0.1,0.4-0.4,0.8-0.7,1c-0.6,0.2-1.1,0.3-1.7,0.3h-4.3c-1,0.1-2-0.2-2.8-0.9
			c-0.6-0.8-0.8-1.7-0.7-2.7v-0.8c-0.1-1,0.2-1.9,0.7-2.7c0.8-0.7,1.8-1,2.8-0.8h5.5c0.3,0,0.6,0,0.8-0.2c0.1-0.2,0.2-0.4,0.2-0.6
			s0-0.4-0.2-0.6c-0.3-0.1-0.5-0.2-0.8-0.2h-6c-0.4,0-0.7,0-1.1,0.1c-0.3,0-0.6,0.1-0.9,0.2l-0.2,0.1C69.1,6.9,69,7,69,7L69.4,4.3z
			 M78.5,10.4h-2.7c-0.3,0-0.7,0.1-1,0.2c-0.2,0.1-0.3,0.4-0.3,0.8v1.3c0,0.4,0.1,0.7,0.3,0.8c0.3,0.1,0.6,0.2,1,0.2h1.4
			c0.6,0,0.9-0.1,1.1-0.3c0.2-0.4,0.2-0.9,0.2-1.3V10.4z M93.3,7.8h5.2c1.4,0,2.3,0.3,2.7,0.9c0.4,0.6,0.6,1.2,0.6,1.9v2.6
			c-0.1,0.7-0.4,1.4-0.9,1.9c-0.8,0.7-1.8,1-2.8,0.9H86.8l-0.5-2.8c0.1,0.1,0.3,0.1,0.4,0.2s0.3,0.1,0.4,0.2
			c0.4,0.1,0.8,0.2,1.2,0.3c0.6,0.1,1.2,0.1,1.8,0.1h5.1c0.2,0,0.4,0,0.6-0.1c0.1-0.1,0.2-0.3,0.2-0.5v-0.2c0-0.2,0-0.4-0.2-0.5
			s-0.4-0.2-0.6-0.1h-5.3c-1.4,0-2.3-0.3-2.7-0.9c-0.4-0.6-0.6-1.2-0.6-1.9V7.5c0-0.9,0.4-1.7,1.1-2.2c0.8-0.6,1.8-0.9,2.8-0.8H101
			l0.5,2.9c-0.3-0.3-0.7-0.5-1.1-0.5c-0.6-0.1-1.2-0.2-1.8-0.2c-0.1,0-0.2,0-0.4,0h-5.1c-0.2,0-0.4,0-0.6,0.1
			c-0.1,0.1-0.2,0.2-0.2,0.3v0.5c0,0.1,0.1,0.3,0.2,0.3C92.9,7.8,93.1,7.8,93.3,7.8 M105.4,4.3V1.9l6.1-0.1v2.6h4.9v2.3h-4.9v6.2
			c0,0.3,0,0.5,0.2,0.7c0.3,0.2,0.7,0.2,1,0.2h2.1c0.3,0,0.7,0,1-0.1c0.2,0,0.5-0.1,0.7-0.2c0.1,0,0.2-0.1,0.3-0.1s0.1-0.1,0.2-0.1
			l-0.4,2.7h-7.7c-0.9,0-1.8-0.2-2.5-0.7s-1.1-1.5-1.1-2.9V6.6h-2.6V4.3H105.4z M117.7,0h6.7v5.4h0.1l0.4-0.6
			c0.1-0.1,0.2-0.2,0.3-0.3c0.1-0.1,0.2-0.1,0.3-0.2c0.1,0,0.3-0.1,0.4,0h4.8c1.1-0.1,2.3,0.3,3.1,1.1c0.7,0.9,1,2,1,3.1v4.8
			c0,0.5,0,1.1,0.2,1.6c0.1,0.3,0.2,0.6,0.4,0.9c0,0,0,0.1,0.1,0.1c0,0,0,0.1,0.1,0.1h-7.5c0,0,0-0.1,0.1-0.1c0,0,0-0.1,0.1-0.1
			c0.2-0.3,0.3-0.6,0.4-0.9c0.1-0.5,0.2-1.1,0.2-1.6V7.6c0-0.3,0-0.5-0.2-0.8c-0.2-0.2-0.5-0.2-0.8-0.2h-2.4c-0.3,0-0.6,0-0.8,0.2
			s-0.2,0.5-0.2,0.8v5.7c0,0.5,0,1.1,0.2,1.6c0.1,0.3,0.2,0.6,0.4,0.9c0,0,0,0.1,0.1,0.1c0,0,0,0.1,0.1,0.1h-7.4c0,0,0-0.1,0.1-0.1
			c0,0,0-0.1,0.1-0.1c0.2-0.3,0.3-0.6,0.4-0.9c0.1-0.5,0.2-1.1,0.2-1.6V2.7c0-0.5,0-1.1-0.2-1.6c-0.1-0.3-0.2-0.6-0.4-0.9
			C117.8,0.2,117.8,0.2,117.7,0C117.8,0.1,117.7,0.1,117.7,0 M137.7,4.3h11.1c1.1-0.1,2.3,0.3,3.1,1c0.7,1,1.1,2.2,0.9,3.4v5.1
			c0,0.5,0,0.9,0.2,1.4c0.1,0.3,0.2,0.6,0.4,0.8h-6.1l-0.3-1.3h-0.1c-0.1,0.4-0.4,0.8-0.7,1c-0.6,0.2-1.1,0.3-1.7,0.3h-4.3
			c-1,0.1-2-0.2-2.8-0.9c-0.6-0.8-0.8-1.7-0.7-2.7v-0.8c-0.1-1,0.2-1.9,0.7-2.7c0.8-0.7,1.8-1,2.8-0.8h5.5c0.3,0,0.6,0,0.8-0.2
			c0.1-0.2,0.2-0.4,0.2-0.6s0-0.4-0.2-0.6c-0.3-0.1-0.5-0.2-0.8-0.2h-6c-0.4,0-0.7,0-1.1,0.1c-0.3,0-0.6,0.1-0.9,0.2l-0.2,0.1
			c-0.1,0-0.2,0.1-0.2,0.1L137.7,4.3z M146.8,10.4h-2.7c-0.3,0-0.7,0.1-1,0.2c-0.2,0.1-0.3,0.4-0.3,0.8v1.3c0,0.4,0.1,0.7,0.3,0.8
			c0.3,0.1,0.6,0.2,1,0.2h1.4c0.6,0,0.9-0.1,1.1-0.3c0.2-0.4,0.3-0.9,0.2-1.4V10.4z M155.9,4.3H167c1.1-0.1,2.3,0.3,3.1,1
			c0.7,1,1.1,2.2,0.9,3.4v5.1c0,0.5,0,0.9,0.2,1.4c0.1,0.3,0.2,0.6,0.4,0.8h-6.1l-0.3-1.3h-0.1c-0.1,0.4-0.4,0.8-0.7,1
			c-0.6,0.2-1.1,0.3-1.7,0.3h-4.3c-1,0.1-2-0.2-2.8-0.9c-0.6-0.8-0.8-1.7-0.7-2.7v-0.8c-0.1-1,0.2-1.9,0.7-2.7
			c0.8-0.7,1.8-1,2.8-0.8h5.5c0.3,0,0.6,0,0.8-0.2c0.1-0.2,0.2-0.4,0.2-0.6s0-0.4-0.2-0.6c-0.3-0.1-0.5-0.2-0.8-0.2h-6
			c-0.4,0-0.7,0-1.1,0.1c-0.3,0-0.6,0.1-0.9,0.2l-0.2,0.1c-0.1,0-0.2,0.1-0.2,0.1L155.9,4.3z M164.9,10.4h-2.7c-0.3,0-0.7,0.1-1,0.2
			c-0.2,0.1-0.3,0.4-0.3,0.8v1.3c0,0.4,0.1,0.7,0.3,0.8c0.3,0.1,0.6,0.2,1,0.2h1.4c0.6,0,0.9-0.1,1.1-0.3c0.2-0.4,0.3-0.9,0.2-1.4
			V10.4z"/>
		<path id="Path_1482" class="st2" d="M14.1,21.6l0.5,3.1c0,0-0.1,0-0.1-0.1h-0.1c-0.3-0.1-0.6-0.2-1-0.2c-0.4-0.1-0.9-0.1-1.3-0.1
			H7.5c-0.3,0-0.6,0.1-0.9,0.2c-0.2,0.2-0.3,0.5-0.3,0.8v8.6c0,0.3,0.1,0.6,0.3,0.8c0.3,0.2,0.6,0.2,0.9,0.2H11c0.8,0,1.5,0,2.3-0.1
			c0.4,0,0.8-0.2,1.1-0.3l0.2-0.1c0.1,0,0.1-0.1,0.2-0.1l-0.5,3.2H4.2c-1.1,0.1-2.2-0.3-3.1-1.1c-0.8-1-1.2-2.3-1.1-3.6v-6.6
			c-0.1-1.3,0.2-2.6,1.1-3.7c0.8-0.8,2-1.1,3.1-1.1h9.9V21.6z M32.4,29.4v4.7c0.1,0.9-0.2,1.9-0.7,2.7c-0.8,0.7-1.8,1-2.8,0.9h-9.5
			c-1,0.1-2-0.2-2.8-0.9c-0.6-0.8-0.8-1.7-0.7-2.7v-4.6c-0.1-1,0.2-1.9,0.7-2.7c0.8-0.7,1.8-1,2.8-0.8h9.5c1-0.1,2,0.2,2.8,0.8
			C32.3,27.5,32.5,28.5,32.4,29.4 M22,29.1v5.2c0,0.3,0,0.5,0.2,0.7s0.4,0.3,0.7,0.2h2.5c0.3,0,0.5,0,0.7-0.2
			c0.1-0.2,0.2-0.5,0.2-0.7v-5.2c0-0.3,0-0.5-0.2-0.7s-0.5-0.3-0.7-0.2h-2.5c-0.2,0-0.5,0.1-0.7,0.2C22,28.6,22,28.9,22,29.1
			 M33.7,25.9H40l0.2,1.2h0.1l0,0l0,0c0.1-0.3,0.3-0.6,0.6-0.8c0.3-0.3,0.6-0.4,1-0.4h5c1.1-0.1,2.3,0.3,3.1,1.1c0.7,0.9,1,2,1,3.1
			v4.7c0,0.5,0,1.1,0.2,1.6c0.1,0.3,0.2,0.6,0.4,0.9c0,0,0,0.1,0.1,0.1c0,0,0,0.1,0.1,0.1h-7.5c0,0,0-0.1,0.1-0.1c0,0,0-0.1,0.1-0.1
			c0.2-0.3,0.3-0.6,0.4-0.9c0.1-0.5,0.2-1.1,0.2-1.6v-5.7c0-0.3,0-0.5-0.2-0.8c-0.2-0.2-0.5-0.2-0.8-0.2h-2.2c-0.3,0-0.6,0-0.8,0.2
			s-0.2,0.5-0.2,0.8v5.7c0,0.5,0,1.1,0.2,1.6c0.1,0.3,0.2,0.6,0.4,0.9c0,0,0,0.1,0.1,0.1c0,0,0,0.1,0.1,0.1h-7.4c0,0,0-0.1,0.1-0.1
			c0,0,0-0.1,0.1-0.1c0.2-0.3,0.3-0.6,0.4-0.9c0.1-0.5,0.2-1.1,0.2-1.6v-6.3c0-0.5,0-1.1-0.2-1.6c-0.1-0.3-0.2-0.6-0.4-0.9
			C33.8,26,33.8,26,33.7,25.9C33.7,26,33.7,25.9,33.7,25.9 M59.4,29.4h5.2c1.4,0,2.3,0.3,2.7,0.9c0.4,0.6,0.6,1.2,0.6,1.9v2.6
			c-0.1,0.7-0.4,1.4-0.9,1.9c-0.8,0.7-1.8,1-2.8,0.9H53.1l-0.5-2.8c0.1,0.1,0.3,0.1,0.4,0.2s0.3,0.1,0.4,0.2
			c0.4,0.1,0.8,0.2,1.2,0.3c0.6,0.1,1.2,0.1,1.8,0.1h5.1c0.2,0,0.4,0,0.6-0.1c0.1-0.1,0.2-0.3,0.2-0.5v-0.2c0-0.2,0-0.4-0.2-0.5
			s-0.4-0.2-0.6-0.1h-5.3c-1.4,0-2.3-0.3-2.7-0.9c-0.4-0.6-0.6-1.2-0.6-1.9v-2.3c0-0.8,0.4-1.7,1.1-2.2c0.8-0.6,1.8-0.9,2.8-0.8
			h10.5l0.5,2.9c-0.3-0.3-0.7-0.5-1.1-0.5c-0.7-0.4-1.3-0.4-1.9-0.4c-0.1,0-0.2,0-0.4,0h-5.1c-0.2,0-0.4,0-0.6,0.1
			c-0.1,0.1-0.2,0.2-0.2,0.3V29c0,0.1,0.1,0.3,0.2,0.3C59,29.4,59.2,29.4,59.4,29.4 M71.5,25.9v-2.4l6.1-0.1V26h4.9v2.3h-4.9v6.2
			c0,0.3,0,0.5,0.2,0.7c0.3,0.2,0.7,0.2,1,0.2h2.1c0.3,0,0.7,0,1-0.1c0.2,0,0.5-0.1,0.7-0.2c0.1,0,0.2-0.1,0.3-0.1
			c0.1,0,0.1-0.1,0.2-0.1l-0.4,2.7H75c-0.9,0-1.8-0.2-2.5-0.7s-1.1-1.5-1.1-2.9v-5.7h-2.6V26h2.7V25.9z M84.1,25.9h6.1l0.2,1.9h0.1
			c0.2-0.6,0.6-1.1,1.1-1.5c0.6-0.3,1.3-0.5,2-0.4h3v3.8c-0.1,0-0.2-0.1-0.3-0.1c-0.1,0-0.2-0.1-0.3-0.1c-0.3-0.1-0.5-0.2-0.8-0.2
			c-0.5,0-1-0.1-1.5-0.1c-0.8-0.1-1.6,0.1-2.3,0.4c-0.4,0.4-0.6,1-0.5,1.6v3.7c0,0.5,0,1.1,0.2,1.6c0.1,0.3,0.2,0.6,0.4,0.9
			c0,0,0,0.1,0.1,0.1c0,0,0,0.1,0.1,0.1h-7.4c0,0,0-0.1,0.1-0.1c0,0,0-0.1,0.1-0.1c0.2-0.3,0.3-0.6,0.4-0.9c0.1-0.5,0.2-1.1,0.2-1.6
			v-6.3c0-0.5,0-1.1-0.2-1.6c-0.1-0.3-0.2-0.6-0.4-0.9C84.2,26,84.2,26,84.1,25.9C84.2,26,84.1,25.9,84.1,25.9 M115,37.6h-6.3
			l-0.2-1.2h-0.1l0,0l0,0c-0.1,0.3-0.3,0.6-0.6,0.8c-0.3,0.3-0.6,0.4-1,0.4h-4.9c-1.1,0.1-2.3-0.3-3.1-1.1c-0.7-0.9-1-2-0.9-3.1
			v-4.8c0-0.5,0-1.1-0.2-1.6c-0.1-0.3-0.2-0.6-0.4-0.9c0,0,0-0.1-0.1-0.1c0,0,0-0.1-0.1-0.1h6.7v8.4c0,0.3,0,0.5,0.2,0.8
			c0.2,0.2,0.5,0.2,0.8,0.2h2.2c0.3,0,0.6,0,0.8-0.2c0.2-0.2,0.2-0.5,0.2-0.8v-5.7c0-0.5,0-1.1-0.2-1.6c-0.1-0.3-0.2-0.6-0.4-0.9
			c0,0,0-0.1-0.1-0.1c0,0,0-0.1-0.1-0.1h6.8v9c0,0.5,0,1.1,0.2,1.6c0.1,0.3,0.2,0.6,0.4,0.9C114.9,37.4,114.9,37.5,115,37.6
			C114.9,37.5,115,37.6,115,37.6 M122.3,29.4v4.7c0,0.3,0.1,0.7,0.3,0.9c0.3,0.2,0.7,0.3,1,0.3h3c0.7,0,1.3,0,2-0.1
			c0.4-0.1,0.7-0.2,1.1-0.3l0.1-0.1h0.1l-0.4,2.9h-9.4c-1.1,0.1-2.2-0.3-2.9-1c-0.6-0.7-0.9-1.7-0.9-2.6v-4.4c0-1,0.3-1.9,0.9-2.6
			c0.8-0.8,1.9-1.1,2.9-1h9.5l0.5,2.9c-0.3-0.3-0.7-0.4-1.1-0.5c-0.6-0.1-1.2-0.2-1.9-0.1h-3.5c-0.4,0-0.7,0.1-1,0.3
			C122.4,28.7,122.3,29,122.3,29.4 M133.1,25.9v-2.4l6.1-0.1V26h4.9v2.3h-4.9v6.2c0,0.3,0,0.5,0.2,0.7c0.3,0.2,0.7,0.2,1,0.2h2.1
			c0.3,0,0.7,0,1-0.1c0.2,0,0.5-0.1,0.7-0.2c0.1,0,0.2-0.1,0.3-0.1s0.1-0.1,0.2-0.1l-0.4,2.7h-7.7c-0.9,0-1.8-0.2-2.5-0.7
			S133,35.4,133,34v-5.7h-2.5V26L133.1,25.9z M146.5,34.9v-6.3c0-0.5,0-1.1-0.2-1.6c-0.1-0.3-0.2-0.6-0.4-0.9c0,0,0-0.1-0.1-0.1
			c0,0,0-0.1-0.1-0.1h6.7v9c0,0.5,0,1.1,0.2,1.6c0.1,0.3,0.2,0.6,0.4,0.9c0,0,0,0.1,0.1,0.1c0,0,0,0.1,0.1,0.1h-7.4
			c0,0,0-0.1,0.1-0.1c0,0,0-0.1,0.1-0.1c0.2-0.3,0.3-0.6,0.4-0.9C146.5,36,146.6,35.4,146.5,34.9 M146.6,21.6h6v3.1h-6V21.6z
			 M171.4,29.4V34c0.1,0.9-0.2,1.9-0.7,2.7c-0.8,0.7-1.8,1-2.8,0.9h-9.5c-1,0.1-2-0.2-2.8-0.9c-0.6-0.8-0.8-1.7-0.7-2.7v-4.6
			c-0.1-1,0.2-1.9,0.7-2.7c0.8-0.7,1.8-1,2.8-0.8h9.5c1-0.1,2,0.2,2.8,0.8C171.2,27.5,171.5,28.5,171.4,29.4 M161,29.1v5.2
			c0,0.3,0,0.5,0.2,0.7s0.4,0.3,0.7,0.2h2.5c0.3,0,0.5,0,0.7-0.2c0.1-0.2,0.2-0.5,0.2-0.7v-5.2c0-0.3,0-0.5-0.2-0.7
			s-0.5-0.3-0.7-0.2h-2.5c-0.2,0-0.5,0.1-0.7,0.2C161,28.6,161,28.9,161,29.1 M172.7,25.9h6.3l0.2,1.2h0.1l0,0l0,0
			c0.1-0.3,0.3-0.6,0.6-0.8c0.3-0.3,0.6-0.4,1-0.4h5c1.1-0.1,2.3,0.3,3.1,1.1c0.7,0.9,1,2,1,3.1v4.8c0,0.5,0,1.1,0.2,1.6
			c0.1,0.3,0.2,0.6,0.4,0.9c0,0,0,0.1,0.1,0.1c0,0,0,0.1,0.1,0.1h-7.5c0,0,0-0.1,0.1-0.1c0,0,0-0.1,0.1-0.1c0.2-0.3,0.3-0.6,0.4-0.9
			c0.1-0.5,0.2-1.1,0.2-1.6v-5.8c0-0.3,0-0.5-0.2-0.8c-0.2-0.2-0.5-0.2-0.8-0.2h-2.2c-0.3,0-0.6,0-0.8,0.2s-0.2,0.5-0.2,0.8v5.7
			c0,0.5,0,1.1,0.2,1.6c0.1,0.3,0.2,0.6,0.4,0.9c0,0,0,0.1,0.1,0.1c0,0,0,0.1,0.1,0.1h-7.4c0,0,0-0.1,0.1-0.1s0-0.1,0.1-0.1
			c0.2-0.3,0.3-0.6,0.4-0.9c0.1-0.5,0.2-1.1,0.2-1.6v-6.3c0-0.5,0-1.1-0.2-1.6c-0.1-0.3-0.2-0.6-0.4-0.9
			C172.8,26,172.8,26,172.7,25.9C172.7,26,172.7,25.9,172.7,25.9 M198.4,29.4h5.2c1.4,0,2.3,0.3,2.7,0.9c0.4,0.6,0.6,1.2,0.6,1.9
			v2.6c-0.1,0.7-0.4,1.4-0.9,1.9c-0.8,0.7-1.8,1-2.8,0.9h-11.3l-0.5-2.8c0.1,0.1,0.3,0.1,0.4,0.2s0.3,0.1,0.4,0.2
			c0.4,0.1,0.8,0.2,1.2,0.3c0.6,0.1,1.2,0.1,1.8,0.1h5.1c0.2,0,0.4,0,0.6-0.1c0.1-0.1,0.2-0.3,0.2-0.5v-0.2c0-0.2,0-0.4-0.2-0.5
			s-0.4-0.2-0.6-0.1H195c-1.4,0-2.3-0.3-2.7-0.9c-0.4-0.6-0.6-1.2-0.6-1.9v-2.3c0-0.8,0.4-1.7,1.1-2.2c0.8-0.6,1.8-0.9,2.8-0.8h10.5
			l0.5,2.9c-0.3-0.3-0.7-0.5-1.1-0.5c-0.6-0.1-1.2-0.2-1.8-0.2c-0.1,0-0.2,0-0.4,0h-5.1c-0.2,0-0.4,0-0.6,0.1
			c-0.1,0.1-0.2,0.2-0.2,0.3v0.5c0,0.1,0.1,0.3,0.2,0.3C198,29.4,198.2,29.4,198.4,29.4"/>
		<path id="Path_1483" class="st0" d="M2,64.8H0v-1.9h2V64.8z M13.8,64.8h-2v-1.9h2V64.8z M25.7,64.8h-2v-1.9h2V64.8z M37.6,64.8h-2
			v-1.9h2V64.8z M49.4,64.8h-2v-1.9h2V64.8z M61.3,64.8h-2v-1.9h2V64.8z M73.2,64.8h-2v-1.9h2V64.8z M85,64.8h-2v-1.9h2V64.8z
			 M96.9,64.8h-2v-1.9h2V64.8z M108.8,64.8h-2v-1.9h2V64.8z M120.6,64.8h-2v-1.9h2V64.8z M132.5,64.8h-2v-1.9h2V64.8z M144.4,64.8
			h-2v-1.9h2V64.8z M156.2,64.8h-2v-1.9h2V64.8z M168.1,64.8h-2v-1.9h2V64.8z"/>
		<path id="Path_1484" class="st0" d="M156.2,64.8h-2v-1.9h2V64.8z M168.1,64.8h-2v-1.9h2V64.8z M180,64.8h-2v-1.9h2V64.8z
			 M191.8,64.8h-2v-1.9h2V64.8z M203.7,64.8h-2v-1.9h2V64.8z"/>
	</g>
</g>
</svg>
