<?xml version="1.0" encoding="utf-8"?>
<!-- Generator: Adobe Illustrator 24.3.0, SVG Export Plug-In . SVG Version: 6.00 Build 0)  -->
<svg version="1.1" id="Layer_1" xmlns="http://www.w3.org/2000/svg" xmlns:xlink="http://www.w3.org/1999/xlink" x="0px" y="0px"
	 viewBox="0 0 26.6 26.6" style="enable-background:new 0 0 26.6 26.6;" xml:space="preserve">
<style type="text/css">
	.st0{fill:#050606;}
	.st1{fill:#B5B4D5;}
	.st2{fill:#5A5EA1;}
	.st3{opacity:0.26;fill:#EEEEEE;enable-background:new    ;}
	.st4{clip-path:url(#SVGID_2_);}
	.st5{fill:url(#Path_1544_1_);}
	.st6{fill:#192870;}
	.st7{fill:#FFFFFF;}
	.st8{opacity:0.16;}
	.st9{fill:url(#Path_1546_1_);}
	.st10{fill:url(#Path_1547_1_);}
	.st11{fill:none;stroke:#FFFFFF;stroke-width:3;stroke-miterlimit:10;}
	.st12{fill:#5A5EA1;stroke:#5A5EA1;stroke-miterlimit:10;}
	.st13{fill:#2B2D62;}
	.st14{fill:#8A7565;}
	.st15{fill:none;stroke:#000000;}
</style>
<path id="Path_1545_1_" class="st7" d="M13.4,0C6.1-0.1,0.1,5.8,0,13.1c0,0.1,0,0.2,0,0.3c0.1,7.3,6.1,13.2,13.4,13.1
	c0.1,0,0.2,0,0.3,0c7.2-0.2,12.9-6.1,12.9-13.3C26.6,6,20.7,0,13.4,0C13.4,0,13.4,0,13.4,0z M9.9,19.3c0,0.2,0,0.3-0.3,0.3
	c-0.8,0-1.6,0-2.3,0c-0.3,0-0.3-0.1-0.3-0.4c0-1.4,0-2.8,0-4.1s0-2.8,0-4.1c0-0.3,0.1-0.3,0.3-0.3c0.8,0,1.5,0,2.3,0
	c0.2,0,0.3,0.1,0.3,0.3C9.9,13.6,9.9,16.5,9.9,19.3L9.9,19.3z M8.5,9.2c-0.4,0-0.8-0.1-1.1-0.3C6.8,8.5,6.6,7.8,6.9,7.2
	c0.2-0.6,0.8-1,1.4-1c0.1,0,0.2,0,0.2,0c0.8-0.1,1.5,0.5,1.6,1.4c0,0,0,0.1,0,0.1c0,0.8-0.6,1.5-1.5,1.5C8.6,9.2,8.5,9.2,8.5,9.2
	L8.5,9.2z M20.7,15.9c0,1.1,0,2.2,0,3.2c0,0.2-0.1,0.3-0.3,0.3c-0.8,0-1.5,0-2.3,0c-0.2,0-0.3-0.1-0.3-0.3c0-1.4,0-2.9,0-4.3
	c0-0.4,0-0.7-0.1-1.1c-0.1-0.6-0.5-1-1.1-1.1c-0.7-0.1-1.3,0.2-1.7,0.7c-0.2,0.3-0.3,0.6-0.3,1c0,1.6,0,3.1,0,4.7
	c0,0.3-0.1,0.4-0.4,0.4c-0.8,0-1.5,0-2.3,0c-0.2,0-0.3-0.1-0.3-0.3c0-0.6,0-1.2,0-1.7c0-2.2,0-4.4,0-6.6c0-0.3,0.1-0.4,0.4-0.4
	c0.8,0,1.5,0,2.3,0c0.2,0,0.3,0.1,0.3,0.3c0,0.3,0,0.6,0,0.9l0.1,0c0,0,0.1-0.1,0.1-0.1c0.6-0.8,1.5-1.3,2.5-1.3
	c1-0.1,1.9,0.4,2.6,1.1c0.4,0.6,0.7,1.2,0.8,2C20.7,14.2,20.7,15.1,20.7,15.9L20.7,15.9z"/>
</svg>
