<?xml version="1.0" encoding="utf-8"?>
<!-- Generator: Adobe Illustrator 24.3.0, SVG Export Plug-In . SVG Version: 6.00 Build 0)  -->
<svg version="1.1" id="Layer_1" xmlns="http://www.w3.org/2000/svg" xmlns:xlink="http://www.w3.org/1999/xlink" x="0px" y="0px"
	 viewBox="0 0 90 90" style="enable-background:new 0 0 90 90;" xml:space="preserve">
<style type="text/css">
	.st0{fill:#050606;}
	.st1{fill:#B5B4D5;}
	.st2{fill:#5A5EA1;}
	.st3{opacity:0.26;fill:#EEEEEE;enable-background:new    ;}
	.st4{clip-path:url(#SVGID_2_);}
	.st5{fill:url(#Path_1544_1_);}
	.st6{fill:#192870;}
	.st7{fill:#FFFFFF;}
	.st8{opacity:0.16;}
	.st9{fill:url(#Path_1546_1_);}
	.st10{fill:url(#Path_1547_1_);}
	.st11{fill:none;stroke:#FFFFFF;stroke-width:3;stroke-miterlimit:10;}
	.st12{fill:#5A5EA1;stroke:#5A5EA1;stroke-miterlimit:10;}
	.st13{fill:#2B2D62;}
	.st14{fill:#8A7565;}
	.st15{fill:none;stroke:#000000;}
</style>
<g id="Group_463" transform="translate(1823.369 857.844)">
	<path id="Path_1530" class="st2" d="M-1747.1-774.3c-0.7-2.7-1.7-5.3-2.8-7.9c-1.5-2.9-2-5.3,1.1-7.4c0.2-0.1,0.3-0.3,0.3-0.5
		c0.8-3.3,1.2-6.9-0.1-10c-1-2.1-2.4-4-4.1-5.6c-1.1-1-1.7-2.4-1.6-3.9c0-14.6,0-29.2,0-43.8c0-2.9-0.2-3.1-3.1-3.1
		c-16.4,0-32.9,0-49.3,0c-3.1,0-3.3,0.1-3.3,3.2c0,23.1,0,46.2,0,69.3c0,3,0.1,3.1,3.1,3.1c10.7,0,21.5,0,32.2,0c3.8,0,3.8,0,3,3.6
		c0,0.1,0,0.1,0,0.2c-0.3,1.4,0.3,2.2,1.6,1.8c1.9-0.5,3-0.1,3.9,1.7c0.6,1.3,1.8,1.2,2.3-0.2c0.7-1.9,1.2-3.9,1.8-5.8
		c0.2-0.6,0.1-1.3-0.6-1.6c-0.8-0.3-1.3,0.2-1.6,0.9c-0.4,1-0.7,2-1.1,3.1c-0.8-0.2-1.2-1.2-2.2-1c-1.5,0.4-1.3-0.4-1.1-1.4
		c0.2-1.3,1.4-2.5,0.3-3.8c-12.1,0.4-24.1,0.1-36.2,0.2c-3.2,0-3.2,0-3.2-3.2c0-21.7,0-43.3,0-65c0-2.8,0-2.8,2.8-2.8
		c15.3,0,30.6,0,45.9,0c2,0,2.5,0.5,2.5,2.5c-0.1,14.1,0,28.1,0,42.2c0,2.5,0.1,2.3-2.2,1.5c-2.2-0.9-4.5-1.4-6.8-1.5
		c-11.5-0.1-23-0.1-34.4-0.1c-0.4,0-0.8,0-1.2,0.1c-0.5,0-0.9,0.4-1,0.9c-0.1,0.5,0.3,1.1,0.8,1.2c0,0,0.1,0,0.1,0
		c0.7,0.1,1.5,0.2,2.2,0.2c11.1,0,22.3,0,33.5,0.1c-2.6-0.1-4.9,1.6-5.6,4.1c-0.4,1.2-1.4,1.5-2.6,1.5c-5.4,0-10.9,0-16.3,0
		c-0.7,0-1.4,0-2,0.1c-0.6,0-1,0.5-1,1.1c0,0,0,0,0,0c0,0.5,0.4,0.9,0.9,1c0.7,0.1,1.5,0.2,2.2,0.2c4.3,0,8.7,0,13,0
		c2.2,0,3.2,1.3,3,4.1c-0.1,1.9-1.6,1.5-2.8,1.5c-7.3,0-14.5,0-21.8,0c-0.5,0-1.1,0-1.6,0c-0.9,0-2-0.1-2.1,1.1c0,1.3,1.1,1.1,2,1.1
		c4.8,0,9.6,0,14.5,0c3.2,0,6.4,0,9.6,0c0.9,0,1.8,0.5,2.3,1.2c2.2,2,2.9,5.2,5.5,6.8c1.3,0.5,2.7,0,3.9,0.8c1.2,1,2.9,1.4,4.4,0.9
		c0.9-0.3,1.3,0,1.6,1c1,3,2,6,3.1,9c0.3,0.9,0.3,2.2,1.6,2.3c1.2,0.1,1.4-1.1,1.9-1.9c0.6-1.1,1.3-1.7,2.6-1.1
		c0.6,0.3,1.3,0.5,1.9-0.1C-1746.6-773-1746.9-773.6-1747.1-774.3z M-1759.1-784.5c-1.1,1.1-2.8,1-3.9,0c0,0,0,0,0,0
		c-0.7-0.7-1.7-1-2.8-0.9c-1.3,0.3-2.7-0.5-3-1.9c0-0.1,0-0.3-0.1-0.4c-0.1-1-0.7-1.8-1.6-2.2c-1.4-0.5-2-2.1-1.5-3.4
		c0.1-0.2,0.2-0.3,0.3-0.5c0.4-0.8,0.4-1.7-0.1-2.5c-0.9-1.7-0.3-3,1.3-3.9c0.8-0.4,1.4-1.1,1.5-2c0.3-2,1.7-2.7,3.5-2.5
		c1,0.4,1.6-0.2,2.2-0.7c1-1.2,2.7-1.3,3.8-0.3c0.1,0.1,0.2,0.2,0.3,0.3c0.6,0.7,1.5,1,2.4,0.8c1.5-0.4,2.9,0.5,3.3,1.9
		c0,0.1,0.1,0.3,0.1,0.5c0.1,0.9,0.7,1.8,1.6,2.1c1.3,0.5,1.9,2,1.4,3.3c0,0.1-0.1,0.2-0.1,0.3c-0.5,1-0.5,2.1,0,3.1
		c0.7,1.3,0.1,3-1.2,3.6c0,0,0,0-0.1,0c-0.8,0.3-1.4,1.1-1.5,2c-0.1,1.5-1.3,2.6-2.8,2.5c-0.1,0-0.3,0-0.4,0
		C-1757.4-785.6-1758.4-785.2-1759.1-784.5z M-1750.6-775.2c-1.5-0.2-1.8,1-2.6,2c-1.4-3.4-2.1-6.7-3.9-9.7c0.6,0,1.2,0,1.8-0.2
		c2.4-1.2,2.9,0.2,3.4,2.1c0.4,1.6,1.1,3.2,1.6,4.8C-1750.1-775.8-1749.8-775.1-1750.6-775.2L-1750.6-775.2z"/>
	<path id="Path_1531" class="st2" d="M-1801.9-827.2c5.4-0.1,10.9-0.1,16.3,0c1.9,0,2.5-0.8,2.5-2.6c0-6.5,0-12.9,0-19.4
		c0-1.7-0.6-2.5-2.4-2.4c-5.6,0.1-11.1,0.1-16.7,0c-1.7,0-2.3,0.7-2.3,2.3c0,3.3,0,6.5,0,9.8c0,3.2,0,6.4,0,9.6
		C-1804.6-828.1-1804-827.2-1801.9-827.2z M-1802.2-848.1c0-1.2,0.8-1.3,1.7-1.3c2.2,0,4.5,0,6.7,0c2.2,0,4.3,0.1,6.5,0
		c1.5-0.1,2,0.6,2,2c-0.1,2.9,0,5.8-0.1,8.7c0,0.6,0.6,1.7-0.7,1.7c-1.2,0-2.8-1.4-2.6-2.4c0.3-1,0.3-2.1,0.1-3.2
		c-0.6-3.1-2.6-5.1-5.2-5.1s-4.6,1.9-5.3,5c-0.2,0.7-0.2,1.5-0.1,2.2c0.9,2.1-0.4,2.7-2,3.3c-0.8,0.3-1.1,0.2-1.1-0.7
		C-1802.2-841.1-1802.2-844.6-1802.2-848.1L-1802.2-848.1z M-1790.7-841c-0.1,2.2-1.6,4.1-3.2,4c-1.6-0.1-3-2.2-3-4.3
		c0.1-2.3,1.5-4,3.2-4C-1792.1-845.1-1790.7-843.2-1790.7-841L-1790.7-841z M-1802.2-831.6c0.2-2.5,2.4-4.3,4.8-4.1
		c0.6,0.1,1.2,0.2,1.7,0.5c1.4,0.7,3,0.6,4.3-0.3c1.9-1.2,3.3,0.1,4.6,1c1.2,1,1.7,2.5,1.4,4c-0.1,0.9-1,0.8-1.6,0.8
		c-2.2,0-4.5,0-6.7,0c-2.2,0-4.5-0.1-6.7,0C-1802.1-829.5-1802.4-830.3-1802.2-831.6L-1802.2-831.6z"/>
	<path id="Path_1532" class="st2" d="M-1800.9-822.6c0.7,0.1,1.4,0.1,2,0.1c5.4,0,10.7,0,16.1,0c5.6,0,11.1,0,16.7,0
		c1.1,0,2.9,0.5,2.9-1.2s-1.8-1.2-2.9-1.2c-11,0-22,0-33,0c-0.6,0-1.2,0-1.8,0.1c-0.6,0.1-1.2,0.3-1.2,1.1
		S-1801.6-822.7-1800.9-822.6z"/>
	<path id="Path_1533" class="st2" d="M-1791-817.7c-0.9,0-2,0-1.9,1.2c0.1,1.1,1.1,1.1,1.9,1.1c2.8,0,5.6,0,8.3,0c2.8,0,5.7,0,8.5,0
		c0.8,0,1.8-0.1,1.8-1.1s-1-1.1-1.8-1.1C-1779.7-817.7-1785.4-817.7-1791-817.7z"/>
	<path id="Path_1534" class="st2" d="M-1751.7-795c0-5.2-4.2-9.5-9.4-9.5c0,0,0,0,0,0c-5.1,0.1-9.3,4.2-9.3,9.4
		c-0.1,5.2,4.1,9.4,9.2,9.5c0.1,0,0.1,0,0.2,0C-1755.9-785.7-1751.7-789.9-1751.7-795z M-1761-788c-3.9,0-7-3.1-7-7c0,0,0-0.1,0-0.1
		c-0.1-3.7,2.8-6.9,6.6-7c0.2,0,0.3,0,0.5,0c3.8,0,7,3,7,6.9c0,0,0,0,0,0.1C-1754-791.2-1757.1-788-1761-788
		C-1761-788-1761-788-1761-788L-1761-788z"/>
</g>
</svg>
