<?xml version="1.0" encoding="utf-8"?>
<!-- Generator: Adobe Illustrator 24.3.0, SVG Export Plug-In . SVG Version: 6.00 Build 0)  -->
<svg version="1.1" id="Layer_1" xmlns="http://www.w3.org/2000/svg" xmlns:xlink="http://www.w3.org/1999/xlink" x="0px" y="0px"
	 viewBox="0 0 26.6 26.6" style="enable-background:new 0 0 26.6 26.6;" xml:space="preserve">
<style type="text/css">
	.st0{fill:#050606;}
	.st1{fill:#B5B4D5;}
	.st2{fill:#5A5EA1;}
	.st3{opacity:0.26;fill:#EEEEEE;enable-background:new    ;}
	.st4{clip-path:url(#SVGID_2_);}
	.st5{fill:url(#Path_1544_1_);}
	.st6{fill:#192870;}
	.st7{fill:#FFFFFF;}
	.st8{opacity:0.16;}
	.st9{fill:url(#Path_1546_1_);}
	.st10{fill:url(#Path_1547_1_);}
	.st11{fill:none;stroke:#FFFFFF;stroke-width:3;stroke-miterlimit:10;}
	.st12{fill:#5A5EA1;stroke:#5A5EA1;stroke-miterlimit:10;}
	.st13{fill:#2B2D62;}
	.st14{fill:#8A7565;}
	.st15{fill:none;stroke:#000000;}
</style>
<path id="insta" d="M0,13.3C0,6,5.9,0,13.2,0c7.3,0,13.3,5.9,13.3,13.3c0,0,0,0,0,0c0,7.3-5.9,13.3-13.2,13.3c0,0,0,0,0,0
	C6,26.6,0.1,20.8,0,13.4C0,13.4,0,13.4,0,13.3z M4.4,8.7c0,2.9,0,5.7,0,8.6c0,2.8,1.6,4.4,4.4,4.5c2.9,0,5.8,0,8.7,0
	c2.7,0,4.3-1.5,4.4-4.2c0-1.5,0-3,0-4.5c0-1.5,0-3,0-4.4c0.2-2.2-1.4-4.1-3.6-4.3c-0.2,0-0.5,0-0.7,0c-2.9,0-5.9,0-8.8,0h0
	C6.6,4.1,4.6,5.7,4.4,7.9C4.4,8.2,4.4,8.4,4.4,8.7z M8.6,20c-1.2,0.1-2.3-0.9-2.4-2.1c0-0.1,0-0.2,0-0.3c0-1.6,0-3.1,0-4.7
	c0-1.5,0-3,0-4.5C6.1,7.2,7,6.1,8.2,6c0.1,0,0.2,0,0.3,0c3.1,0,6.3,0,9.4,0c1.2,0,2.2,0.9,2.2,2.1c0,0.1,0,0.1,0,0.2
	c0,3.1,0,6.2,0,9.4c0.1,1.2-0.8,2.2-2,2.3c-0.1,0-0.2,0-0.3,0c-1.6,0-3.2,0-4.8,0C11.6,20,10.1,20,8.6,20L8.6,20z M13.2,8.5
	c-2.5,0-4.5,2-4.5,4.5c0,2.5,1.9,4.5,4.4,4.5c0,0,0.1,0,0.1,0c2.5,0,4.5-2,4.5-4.5c0,0,0-0.1,0-0.1C17.7,10.6,15.7,8.6,13.2,8.5
	L13.2,8.5z M16.7,8.6c0,0.6,0.5,1.2,1.1,1.2c0.6,0,1.1-0.5,1.2-1.2c0-0.6-0.5-1.1-1.1-1.1c0,0,0,0,0,0C17.3,7.4,16.7,7.9,16.7,8.6
	C16.7,8.6,16.7,8.6,16.7,8.6L16.7,8.6z M13.2,15.8c-1.5,0-2.7-1.3-2.7-2.8c0-1.5,1.2-2.7,2.7-2.7c0,0,0,0,0,0c1.5,0,2.7,1.3,2.7,2.8
	c0,0,0,0,0,0C15.9,14.6,14.7,15.8,13.2,15.8L13.2,15.8z"/>
</svg>
