<?xml version="1.0" encoding="utf-8"?>
<!-- Generator: Adobe Illustrator 24.3.0, SVG Export Plug-In . SVG Version: 6.00 Build 0)  -->
<svg version="1.1" id="Layer_1" xmlns="http://www.w3.org/2000/svg" xmlns:xlink="http://www.w3.org/1999/xlink" x="0px" y="0px"
	 viewBox="0 0 438.6 445.1" style="enable-background:new 0 0 438.6 445.1;" xml:space="preserve">
<style type="text/css">
	.st0{fill:#050606;}
	.st1{fill:#B5B4D5;}
	.st2{fill:#5A5EA1;}
	.st3{opacity:0.26;fill:#EEEEEE;enable-background:new    ;}
	.st4{clip-path:url(#SVGID_2_);}
	.st5{fill:url(#Path_1544_1_);}
	.st6{fill:#192870;}
	.st7{fill:#FFFFFF;}
	.st8{opacity:0.16;}
	.st9{fill:url(#Path_1546_1_);}
	.st10{fill:url(#Path_1547_1_);}
	.st11{fill:none;stroke:#FFFFFF;stroke-width:3;stroke-miterlimit:10;}
	.st12{fill:#5A5EA1;stroke:#5A5EA1;stroke-miterlimit:10;}
	.st13{fill:#2B2D62;}
	.st14{fill:#8A7565;}
	.st15{fill:none;stroke:#000000;}
</style>
<path id="Path_1495" class="st3" d="M228.5,55.4l0-55.4l-17,0l0,55.4L228.5,55.4z M374.6,211.7l-143.5,0l0-141.7L374.6,211.7z
	 M228.5,445.1l0-55.4l-17,0v55.4L228.5,445.1z M210.2,211.7l-144,0L210.2,70L210.2,211.7z M374.5,231.8l-144,141.7l0-141.7
	L374.5,231.8z M210.2,373.5l-144-141.4l144,0L210.2,373.5z M55.4,230.1l0-17L0,213v17H55.4z M383.2,230.1l0-17l55.4,0l0,17
	L383.2,230.1z"/>
</svg>
