<?xml version="1.0" encoding="utf-8"?>
<!-- Generator: Adobe Illustrator 24.3.0, SVG Export Plug-In . SVG Version: 6.00 Build 0)  -->
<svg version="1.1" id="Layer_1" xmlns="http://www.w3.org/2000/svg" xmlns:xlink="http://www.w3.org/1999/xlink" x="0px" y="0px"
	 viewBox="0 0 90 90" style="enable-background:new 0 0 90 90;" xml:space="preserve">
<style type="text/css">
	.st0{fill:#050606;}
	.st1{fill:#B5B4D5;}
	.st2{fill:#5A5EA1;}
	.st3{opacity:0.26;fill:#EEEEEE;enable-background:new    ;}
	.st4{clip-path:url(#SVGID_2_);}
	.st5{fill:url(#Path_1544_1_);}
	.st6{fill:#192870;}
	.st7{fill:#FFFFFF;}
	.st8{opacity:0.16;}
	.st9{fill:url(#Path_1546_1_);}
	.st10{fill:url(#Path_1547_1_);}
	.st11{fill:none;stroke:#FFFFFF;stroke-width:3;stroke-miterlimit:10;}
	.st12{fill:#5A5EA1;stroke:#5A5EA1;stroke-miterlimit:10;}
	.st13{fill:#2B2D62;}
	.st14{fill:#8A7565;}
	.st15{fill:none;stroke:#000000;}
</style>
<g id="Group_462" transform="translate(1665.361 865.869)">
	<path id="Path_1524" class="st12" d="M-1607.8-803.3c-0.7,0.5-1.5,0.8-2.3,1.1c-0.4,0.1-0.4,0.5-0.4,0.8c0,2.9,0,5.9,0,8.8
		c0,2.8,0,5.6,0,8.4c0,1-0.3,1.3-1.3,1.3c-5.7,0-11.4,0-17.1,0c-1.1,0-1.3-0.3-1.4-1.4c0-5.6,0-11.3,0-16.9c0-0.6-0.1-1-0.8-1.2
		c-0.6-0.2-1.2-0.5-1.8-0.8c-0.1,0.4-0.1,0.7-0.1,1.1c0,5.9,0,11.8,0,17.8c0,1.2-0.2,1.4-1.4,1.4c-5.2,0-10.4,0-15.6,0
		c-1.3,0-1.5-0.2-1.5-1.5c0-5.2,0-10.3,0-15.5c0.1-0.6-0.3-1.1-0.8-1.2c-2.1-0.7-3.6-2.7-3.5-4.9c0-4.8,0-9.5,0-14.3
		c0-2.9,2.2-5.2,5.1-5.2c0.1,0,0.1,0,0.2,0c5.1,0,10.3,0,15.4,0c0.5,0,1-0.2,1.3-0.6c0.9-1.5,2.6-2.3,4.3-2.3c6.1,0,12.2,0,18.3,0
		c1.7,0,3.4,0.8,4.3,2.3c0.3,0.5,0.8,0.7,1.3,0.6c5,0,10.1,0,15.1,0c2.9-0.2,5.4,2,5.6,4.9c0,0.3,0,0.5,0,0.8c0,4.5,0,9.1,0,13.6
		c0.2,2.4-1.4,4.6-3.7,5.2c-0.5,0.1-0.7,0.6-0.7,1c0,5.2,0,10.4,0,15.7c0,1.3-0.2,1.5-1.5,1.5c-5.2,0-10.4,0-15.7,0
		c-1.2,0-1.4-0.2-1.4-1.4c0-5.9,0-11.8,0-17.8L-1607.8-803.3z M-1612.1-802.5c0-5.6,0-11.2,0-16.8c0-0.2,0-0.5,0-0.7
		c0-0.4,0.3-0.7,0.7-0.8c0.4-0.1,0.8,0.2,0.8,0.6c0.1,0.3,0.1,0.6,0.1,0.9c0,4.9,0,9.7,0,14.6c0,0.8,0.2,0.9,0.9,0.5
		c1.3-0.7,2.1-2,2.1-3.5c0-5.1,0-10.2,0-15.2c0.1-2.1-1.6-3.8-3.7-3.9c-0.1,0-0.2,0-0.3,0c-5.9,0-11.8,0-17.7,0
		c-2.1-0.1-3.9,1.5-4,3.6c0,0.1,0,0.2,0,0.3c0,5.1,0,10.2,0,15.2c-0.1,1.4,0.7,2.7,1.9,3.4c0.8,0.5,1,0.4,1-0.6c0-4.8,0-9.6,0-14.4
		c0-0.3,0-0.7,0.1-1c0.1-0.4,0.5-0.6,0.9-0.6c0.4,0,0.7,0.3,0.7,0.7c0,0.3,0,0.5,0,0.8c0,6,0,12,0,18.1c0,5.3,0,10.5,0,15.8
		c0,0.6,0.1,0.9,0.8,0.9c1.9,0,3.9,0,5.8,0c0.6,0,0.9-0.2,0.8-0.8c-0.1-1.3,0-2.5,0-3.8c0-5.3,0-10.6,0-15.9c0-1.1,0.2-1.4,0.8-1.4
		c0.6,0,0.8,0.4,0.8,1.4c0,6.5,0,13,0,19.6c0,1,0,1,1,1c1.8,0,3.7,0,5.5,0c1,0,1,0,1-1C-1612.1-791.2-1612.1-796.9-1612.1-802.5
		L-1612.1-802.5z M-1591-801.3L-1591-801.3c0-5,0-9.9,0-14.9c0-0.5,0-1,0-1.4c0-0.4,0.4-0.8,0.8-0.8c0,0,0,0,0,0
		c0.4,0,0.8,0.3,0.8,0.8c0,0,0,0,0,0.1c0,0.2,0,0.3,0,0.5c0,4.5,0,9.1,0,13.6c0,0.9,0.1,0.9,0.9,0.5c1.2-0.7,1.9-2,1.8-3.4
		c0-4.6,0-9.3,0-13.9c0.1-1.9-1.4-3.5-3.3-3.6c0,0-0.1,0-0.1,0c-5,0-10,0-15,0c-0.6,0-0.8,0.2-0.8,0.8c-0.1,5.9,0.1,11.8-0.2,17.7
		c-0.3,6.6-0.1,13.3-0.1,19.9c0,0.6,0.2,0.8,0.8,0.8c1.7,0,3.3,0,5,0c0.9,0,0.9,0,0.9-1c0-6,0-12,0-18.1c0-0.3,0-0.5,0-0.8
		c0-0.4,0.3-0.6,0.7-0.6c0.4-0.1,0.7,0.2,0.9,0.5c0.1,0.3,0.1,0.6,0.1,0.9c0,6,0,12,0,18.1c0,1,0,1,1,1c1.6,0,3.2,0,4.8,0
		c1,0,1,0,1-1C-1591-790.8-1591-796-1591-801.3L-1591-801.3z M-1649.8-802.4c0,6.2,0,11.5,0,16.7c0,1.1,0,1.1,1.1,1.1
		c1.5,0,3.1,0,4.6,0c1,0,1,0,1-1c0-6,0-11.9,0-17.9c0-0.2,0-0.4,0-0.7c0.1-0.5,0.3-0.9,0.9-0.9s0.8,0.4,0.8,0.9c0,0.2,0,0.5,0,0.7
		c0,6,0,11.9,0,17.9c0,0.7,0.2,0.9,0.9,0.9c1.6,0,3.1,0,4.7,0c1.2,0,1.2,0,1.2-1.2c-0.2-7.3,0.2-14.6-0.2-21.9
		c-0.3-5.1-0.1-10.2,0-15.4c0-0.6-0.1-0.9-0.8-0.9c-5,0-9.9,0-14.9,0c-1.8,0-3.3,1.3-3.5,3.1c-0.1,1.3-0.1,2.5,0,3.8
		c-0.1,3.7-0.1,7.3,0,11c0,1.2,0.6,2.4,1.6,3c0.3,0.2,0.5,0.4,0.8,0.3s0.2-0.5,0.2-0.8c0-4.5,0-9.1,0-13.6c0-0.9,0.2-1.3,0.8-1.3
		c0.6,0,0.9,0.4,0.9,1.3c0,0.1,0,0.1,0,0.2C-1649.8-811.8-1649.7-806.6-1649.8-802.4L-1649.8-802.4z"/>
	<path id="Path_1525" class="st12" d="M-1620.3-846.7c4.7,0,8.4,3.9,8.4,8.6c0,0.1,0,0.2,0,0.3c-0.3,4.7-4.2,8.3-8.9,8
		c-4.7-0.2-8.3-4.2-8-8.9c0,0,0,0,0-0.1C-1628.6-843.3-1624.8-846.8-1620.3-846.7z M-1613.6-838.3c0-3.7-3-6.8-6.7-6.8c0,0,0,0,0,0
		c-3.7,0-6.8,3-6.8,6.7c0,0,0,0,0,0c0,3.7,3,6.8,6.8,6.8C-1616.6-831.5-1613.6-834.6-1613.6-838.3z"/>
	<path id="Path_1526" class="st12" d="M-1626.1-850.7c-0.1,4.4-3.7,7.8-8.1,7.8c-0.1,0-0.2,0-0.3,0c-4.4-0.3-7.7-4-7.5-8.4
		c0-0.1,0-0.1,0-0.2c0.3-4.3,4-7.6,8.3-7.3C-1629.3-858.7-1626-855-1626.1-850.7z M-1627.8-850.9c0-3.4-2.8-6.2-6.2-6.2
		c-3.4-0.1-6.3,2.7-6.4,6.1c0,0.1,0,0.1,0,0.2c0,3.4,2.8,6.2,6.2,6.2c3.4,0.1,6.2-2.7,6.3-6.1
		C-1627.8-850.8-1627.8-850.9-1627.8-850.9L-1627.8-850.9z"/>
	<path id="Path_1527" class="st12" d="M-1614.6-850.9c0-4.4,3.6-7.9,7.9-7.9c4.4,0,7.9,3.6,8,8c0,4.4-3.6,8-8,8
		C-1611.1-842.9-1614.6-846.5-1614.6-850.9C-1614.6-850.9-1614.6-850.9-1614.6-850.9z M-1612.9-850.9c0,3.4,2.8,6.2,6.2,6.2
		c0,0,0.1,0,0.1,0c3.5,0,6.3-2.8,6.3-6.2c0,0,0,0,0,0c0-3.5-2.8-6.2-6.3-6.2c0,0,0,0,0,0C-1610.1-857.1-1612.9-854.4-1612.9-850.9
		C-1612.9-850.9-1612.9-850.9-1612.9-850.9L-1612.9-850.9z"/>
	<path id="Path_1528" class="st12" d="M-1642.1-826.8c-4.3,0.1-7.9-3.4-8-7.8c0-0.1,0-0.1,0-0.2c0-4.4,3.6-7.9,7.9-8
		c4.4,0,7.9,3.5,8,7.9c0,0,0,0.1,0,0.1c0.1,4.3-3.4,7.9-7.7,7.9C-1642-826.8-1642.1-826.8-1642.1-826.8z M-1635.9-834.6
		c0.1-3.5-2.7-6.4-6.2-6.4c0,0,0,0-0.1,0c-3.4,0.1-6.1,2.8-6.3,6.2c0,3.5,2.7,6.3,6.2,6.4C-1638.8-828.3-1636-831.1-1635.9-834.6
		C-1635.9-834.5-1635.9-834.5-1635.9-834.6L-1635.9-834.6z"/>
	<path id="Path_1529" class="st12" d="M-1598.6-826.8c-4.3,0.1-7.9-3.4-7.9-7.7c0-0.1,0-0.1,0-0.2c0-4.4,3.5-7.9,7.8-8
		c0,0,0.1,0,0.1,0c4.4,0,7.9,3.6,8,7.9c0,4.3-3.5,7.9-7.8,7.9C-1598.5-826.8-1598.5-826.8-1598.6-826.8z M-1604.8-834.7
		c0,3.4,2.8,6.2,6.2,6.2c0,0,0,0,0.1,0c3.5,0,6.3-2.8,6.3-6.3c-0.1-3.4-2.8-6.2-6.2-6.3C-1602-841-1604.8-838.2-1604.8-834.7
		C-1604.8-834.7-1604.8-834.7-1604.8-834.7L-1604.8-834.7z"/>
</g>
</svg>
