<?xml version="1.0" encoding="utf-8"?>
<!-- Generator: Adobe Illustrator 24.3.0, SVG Export Plug-In . SVG Version: 6.00 Build 0)  -->
<svg version="1.1" id="Layer_1" xmlns="http://www.w3.org/2000/svg" xmlns:xlink="http://www.w3.org/1999/xlink" x="0px" y="0px"
	 viewBox="0 0 216 70" style="enable-background:new 0 0 216 70;" xml:space="preserve">
<style type="text/css">
	.st0{fill:#050606;}
	.st1{fill:#B5B4D5;}
	.st2{fill:#5A5EA1;}
	.st3{opacity:0.26;fill:#EEEEEE;enable-background:new    ;}
	.st4{clip-path:url(#SVGID_2_);}
	.st5{fill:url(#Path_1544_1_);}
	.st6{fill:#192870;}
	.st7{fill:#FFFFFF;}
	.st8{opacity:0.16;}
	.st9{fill:url(#Path_1546_1_);}
	.st10{fill:url(#Path_1547_1_);}
	.st11{fill:none;stroke:#FFFFFF;stroke-width:3;stroke-miterlimit:10;}
	.st12{fill:#5A5EA1;stroke:#5A5EA1;stroke-miterlimit:10;}
	.st13{fill:#2B2D62;}
	.st14{fill:#8A7565;}
	.st15{fill:none;stroke:#000000;}
</style>
<g>
	<path id="Path_1486" class="st13" d="M28.3,13c0-0.4-0.1-0.7-0.2-1.1c-0.1-0.3-0.3-0.7-0.5-0.9c-0.3-0.3-0.6-0.6-0.9-0.8
		c-0.4-0.2-0.9-0.4-1.3-0.5c0.8-0.1,1.4-0.5,1.9-1.1c0.4-0.6,0.6-1.3,0.5-2c0.1-1-0.3-2-1.1-2.6c-1-0.6-2.1-0.9-3.2-0.8h-3.1v13.6
		h2.8c1.3,0.1,2.7-0.3,3.8-1C27.9,15.2,28.4,14.1,28.3,13 M27,13.1c0,0.8-0.3,1.5-1,1.9c-0.8,0.5-1.8,0.7-2.8,0.7h-1.5V9.1l0-4.8
		h1.9c0.8,0,1.5,0.1,2.1,0.5c0.5,0.4,0.8,1,0.8,1.7c0.1,0.7-0.3,1.5-0.8,1.9C25,9,24.2,9.2,23.3,9.2h-0.8l0,1.2l0.8,0
		c1-0.1,1.9,0.1,2.7,0.6C26.7,11.5,27,12.3,27,13.1 M38.1,6h-1.2v6.2c0,0.5-0.1,1-0.2,1.5c-0.1,0.4-0.3,0.8-0.6,1.2
		c-0.2,0.3-0.6,0.6-0.9,0.8C34.8,15.9,34.4,16,34,16c-0.7,0-1.4-0.3-1.8-0.9c-0.4-0.7-0.7-1.6-0.6-2.4V6h-1.2v6.7
		c-0.1,1.1,0.2,2.3,0.8,3.2c0.6,0.8,1.6,1.2,2.6,1.1c0.7,0,1.4-0.2,2-0.5c0.5-0.4,1-0.9,1.2-1.5l0,1.8h1.1L38.1,6z M40.2,3.4h1.2
		V1.8h-1.2L40.2,3.4z M41.4,6h-1.2v10.8h1.2L41.4,6z M43.5,16.8h1.2V2.2h-1.2L43.5,16.8z M54,15.2v1.6h1.2V2.2H54v5.6
		c-0.2-0.4-0.4-0.7-0.7-1c-0.2-0.2-0.5-0.5-0.8-0.6C52.2,6,52,5.9,51.7,5.9c-0.3-0.1-0.6-0.1-0.9-0.1c-0.6,0-1.2,0.1-1.7,0.4
		c-0.5,0.3-0.9,0.6-1.2,1.1c-0.4,0.5-0.6,1.1-0.8,1.8c-0.2,0.8-0.3,1.6-0.3,2.4c0,0.8,0.1,1.6,0.3,2.4c0.2,0.6,0.4,1.2,0.8,1.8
		c0.3,0.5,0.8,0.9,1.3,1.1c1.1,0.5,2.3,0.5,3.4,0C53.2,16.4,53.7,15.8,54,15.2 M54,11.4c0,0.6-0.1,1.2-0.2,1.8
		c-0.1,0.5-0.3,1-0.6,1.5c-0.2,0.4-0.5,0.7-0.9,0.9c-0.4,0.2-0.8,0.3-1.2,0.3c-0.9,0-1.7-0.4-2.2-1.2c-0.5-1-0.8-2.2-0.7-3.4
		c-0.1-1.2,0.2-2.3,0.7-3.3c0.4-0.8,1.2-1.2,2.1-1.2c0.4,0,0.9,0.1,1.2,0.3c0.4,0.2,0.7,0.5,1,0.9c0.3,0.4,0.5,0.9,0.6,1.4
		C53.9,10.2,54,10.8,54,11.4 M57.3,3.4h1.2V1.8h-1.2L57.3,3.4z M58.5,6.1h-1.2v10.8h1.2L58.5,6.1z M68.3,16.8V10
		c0.1-1.1-0.2-2.2-0.8-3.1c-0.6-0.7-1.5-1.2-2.5-1.1c-0.7,0-1.4,0.2-2,0.5c-0.6,0.4-1,1-1.3,1.6V6.1h-1.1v10.8h1.2v-6.1
		c0-0.5,0.1-1.1,0.2-1.6c0.1-0.4,0.3-0.9,0.6-1.2c0.2-0.3,0.6-0.6,0.9-0.8c0.4-0.2,0.8-0.3,1.2-0.3c0.7,0,1.3,0.3,1.7,0.8
		c0.4,0.7,0.7,1.5,0.6,2.3v6.9L68.3,16.8z M77.9,14.8v0.7c0.1,1.2-0.2,2.4-0.8,3.5c-0.6,0.8-1.6,1.2-2.5,1.1c-0.3,0-0.7,0-1-0.1
		c-0.3,0-0.6-0.1-0.9-0.2c-0.2-0.1-0.5-0.1-0.7-0.2c-0.1-0.1-0.3-0.1-0.4-0.2l-0.1,1.2c0.1,0,0.2,0.1,0.4,0.2
		c0.2,0.1,0.5,0.1,0.7,0.2c0.3,0.1,0.6,0.1,0.9,0.2c0.3,0,0.7,0.1,1.1,0.1c0.6,0,1.3-0.1,1.9-0.4c0.5-0.2,1-0.6,1.4-1
		c0.4-0.5,0.7-1,0.9-1.6c0.2-0.7,0.3-1.4,0.3-2.1V6h-1.2v1.2c-0.2-0.3-0.5-0.5-0.7-0.8c-0.2-0.2-0.5-0.3-0.7-0.4
		c-0.2-0.1-0.5-0.2-0.7-0.2c-0.3,0-0.5,0-0.8,0c-1.2-0.1-2.4,0.5-3.1,1.4c-0.8,1.3-1.1,2.7-1,4.2c0,0.8,0.1,1.5,0.3,2.2
		c0.2,0.6,0.5,1.2,0.8,1.7c0.4,0.5,0.8,0.8,1.3,1.1c0.5,0.3,1.1,0.4,1.7,0.4c0.3,0,0.6,0,0.8-0.1c0.3-0.1,0.5-0.2,0.8-0.3
		c0.3-0.2,0.5-0.4,0.7-0.6C77.5,15.5,77.7,15.1,77.9,14.8 M77.9,11.4c0,0.6-0.1,1.2-0.2,1.8c-0.1,0.5-0.3,0.9-0.6,1.4
		c-0.2,0.4-0.6,0.7-0.9,0.9c-0.4,0.2-0.8,0.3-1.2,0.3c-0.4,0-0.8-0.1-1.2-0.3c-0.4-0.2-0.7-0.5-0.9-0.9c-0.3-0.4-0.4-0.9-0.6-1.4
		C72.1,12.6,72,12,72,11.4c0-0.6,0.1-1.3,0.2-1.9c0.1-0.5,0.3-1,0.5-1.4c0.2-0.4,0.5-0.7,0.9-0.9C74,7,74.4,6.9,74.9,6.9
		c0.9-0.1,1.8,0.4,2.3,1.2C77.7,9.1,78,10.2,77.9,11.4 M95.1,3.2l-4.5,12.3L86.2,3.2h-1.4l5,13.6h1.4l5.1-13.6L95.1,3.2z
		 M101.4,11.4c0,0,0,0,0-0.2v-0.4c0-0.1,0-0.3,0-0.4c0-0.1,0-0.2,0-0.2h-0.1c-1.3-0.1-2.7,0.2-3.9,0.9c-0.9,0.6-1.4,1.6-1.3,2.6
		c0,0.8,0.3,1.7,0.8,2.3c0.6,0.6,1.5,0.9,2.3,0.9c0.6,0,1.2-0.1,1.7-0.4c0.6-0.3,1.1-0.8,1.5-1.4v1.6l1.1,0l0-0.1c0-0.1,0-0.2,0-0.3
		c0-0.2,0-0.3,0-0.5V9.4c0.1-1-0.2-1.9-0.9-2.7c-0.7-0.6-1.6-1-2.6-0.9c-0.4,0-0.7,0-1.1,0.1c-0.3,0.1-0.7,0.2-1,0.3
		c-0.3,0.1-0.5,0.2-0.8,0.4c-0.2,0.1-0.4,0.2-0.5,0.3l0.4,0.8c0.4-0.3,0.9-0.5,1.3-0.6c0.5-0.1,1-0.2,1.5-0.2c0.6,0,1.2,0.2,1.7,0.6
		c0.4,0.5,0.6,1.2,0.6,1.9v3.1c0,0.9-0.2,1.8-0.7,2.5c-0.5,0.7-1.3,1-2.1,1c-0.6,0.1-1.2-0.2-1.6-0.6c-0.3-0.4-0.5-1-0.5-1.6
		c0-0.7,0.4-1.4,1-1.8C99.4,11.6,100.4,11.3,101.4,11.4 M105.8,16.8h1.2V2.2h-1.2L105.8,16.8z M116.8,6h-1.2v6.2
		c0,0.5-0.1,1-0.2,1.5c-0.1,0.4-0.3,0.8-0.6,1.2c-0.2,0.3-0.6,0.6-0.9,0.8c-0.4,0.2-0.8,0.3-1.2,0.3c-0.7,0-1.4-0.3-1.8-0.9
		c-0.4-0.7-0.6-1.6-0.6-2.4V6h-1.2v6.7c-0.1,1.1,0.2,2.3,0.8,3.2c0.6,0.8,1.6,1.2,2.6,1.1c0.7,0,1.4-0.2,2-0.5
		c0.6-0.4,1-0.9,1.2-1.5l0,1.8h1.1L116.8,6z M121.2,11.7l0-1h4.6c0-1-0.2-2-0.7-2.8c-0.4-0.6-1-1-1.8-1c-0.9,0-1.8,0.5-2.2,1.3
		c-0.5,0.8-0.7,1.7-0.8,2.6v1.1c0,1.1,0.3,2.1,0.9,3c0.8,1,2.1,1.5,3.3,1.1c0.3-0.1,0.6-0.2,0.8-0.3c0.2-0.1,0.4-0.2,0.7-0.4
		c0.1-0.1,0.3-0.2,0.4-0.3l0.6,0.8c-0.2,0.2-0.4,0.3-0.6,0.4c-0.3,0.2-0.6,0.3-0.9,0.5c-0.3,0.1-0.7,0.3-1,0.4
		c-0.3,0.1-0.6,0.1-0.9,0.1c-1.3,0.1-2.5-0.5-3.3-1.5c-0.8-1.2-1.2-2.7-1.1-4.2c0-0.8,0.1-1.5,0.3-2.2c0.2-0.6,0.5-1.2,0.8-1.8
		c0.3-0.5,0.8-0.9,1.3-1.2c0.5-0.3,1.1-0.4,1.6-0.4c1.2-0.1,2.3,0.5,3.1,1.4c0.8,1.2,1.1,2.6,0.9,4l0,0.5L121.2,11.7z M134.7,14
		c0-0.7-0.2-1.4-0.7-1.9c-0.6-0.6-1.2-1-1.9-1.3c-0.5-0.2-1.1-0.6-1.5-0.9c-0.4-0.3-0.6-0.7-0.6-1.1c0-0.5,0.2-1,0.5-1.3
		c0.4-0.4,1-0.5,1.5-0.5c0.4,0,0.8,0.1,1.2,0.1c0.4,0.1,0.7,0.2,1,0.3l0.1-1c-0.1-0.1-0.3-0.1-0.4-0.2c-0.2-0.1-0.4-0.1-0.6-0.2
		s-0.5-0.1-0.7-0.1c-0.2,0-0.4,0-0.7,0c-0.4,0-0.9,0.1-1.3,0.2c-0.4,0.1-0.7,0.3-1,0.6c-0.3,0.2-0.5,0.6-0.7,0.9
		c-0.2,0.4-0.2,0.8-0.2,1.2c0,0.4,0.1,0.8,0.2,1.1c0.2,0.3,0.4,0.6,0.6,0.8c0.3,0.2,0.5,0.4,0.8,0.6c0.3,0.2,0.6,0.3,0.9,0.5
		s0.5,0.3,0.8,0.4c0.2,0.1,0.5,0.3,0.7,0.5c0.2,0.2,0.3,0.4,0.5,0.6c0.1,0.3,0.2,0.5,0.2,0.8c0,0.3-0.1,0.5-0.2,0.8
		c-0.1,0.2-0.3,0.4-0.5,0.6c-0.4,0.4-1,0.6-1.6,0.5c-0.3,0-0.5,0-0.8-0.1c-0.3,0-0.5-0.1-0.8-0.2c-0.2-0.1-0.4-0.1-0.6-0.2
		c-0.1,0-0.2-0.1-0.3-0.2l-0.1,1.2c0.3,0.2,0.7,0.3,1.1,0.4c0.5,0.1,1,0.2,1.5,0.2c0.5,0,1-0.1,1.4-0.2c0.4-0.1,0.8-0.4,1.1-0.6
		c0.3-0.3,0.5-0.6,0.7-1C134.6,14.8,134.7,14.4,134.7,14"/>
	<path id="Path_1487" class="st13" d="M15.2,41.7L15,42.2l-0.2-0.1l0.1-0.4L15.2,41.7z M31.3,26.1c-0.1-0.1-0.3-0.1-0.4-0.2
		c-0.1,0-0.1,0-0.2-0.1c0,0.1,0,0.1,0.1,0.2c0,0.1,0,0.1,0,0.2c0,0.2-0.1,0.4-0.2,0.5c-0.2,0.2-0.4,0.4-0.7,0.5
		c-0.3,0.1-0.5,0.3-0.7,0.4c-0.1,0.1-0.2,0.2-0.3,0.4c0,0.1-0.1,0.3-0.2,0.4c-0.1,0.1-0.2,0.1-0.3,0.1c-0.1,0-0.1,0-0.1-0.1
		c0,0-0.1-0.1-0.1-0.1c0,0-0.1-0.1-0.2-0.1c0,0-0.1,0-0.2,0.1s-0.3,0.2-0.6,0.3l0.4-0.1c0.1,0.1,0.1,0.2,0.2,0.2
		c0,0.1,0.1,0.1,0.1,0.2c-0.3,0.3-0.6,0.5-0.9,0.7c-0.3,0.2-0.5,0.3-0.6,0.4c0,0-0.1-0.1-0.1-0.2c0-0.1,0-0.1-0.1-0.2h-0.4
		c0,0.1,0,0.2-0.1,0.3c0,0.1-0.1,0.2-0.2,0.3c0.1,0,0.2,0,0.3,0.1c0.1,0.1,0.1,0.1,0.1,0.2L25.6,31c0,0,0,0,0,0c0,0,0,0-0.1,0
		c-0.1,0-0.1,0-0.2,0.1c-0.1,0.1-0.1,0.1-0.2,0.2c-0.1,0.1-0.2,0.3-0.2,0.4c-0.1-0.1-0.1-0.1-0.2-0.2c0,0-0.1-0.1-0.1-0.1
		c0.1,0.1,0.2,0.2,0.3,0.3c0.1,0.1,0.1,0.2,0.1,0.3c0,0.1,0,0.3-0.1,0.4c-0.1,0.1-0.2,0.2-0.4,0.3c-0.2-0.2-0.4-0.3-0.6-0.4
		c-0.1-0.1-0.3-0.1-0.4-0.2c-0.1,0.2-0.3,0.4-0.4,0.6c-0.1,0.1-0.2,0.3-0.4,0.3c0,0.1,0.1,0.2,0.1,0.2c0,0.1,0,0.1-0.1,0.1
		c-0.1,0.1-0.1,0.1-0.2,0.2c0,0.3,0,0.5-0.1,0.8c-0.1,0.2-0.3,0.3-0.4,0.3c-0.1,0-0.1,0-0.2-0.1c0,0-0.1-0.1-0.2-0.1
		c-0.1,0-0.2,0.1-0.4,0.4s-0.4,0.6-0.7,1.1c-0.3,0.4-0.6,0.8-0.9,1.2c-0.3,0.3-0.6,0.4-1,0.5c-0.2,0.4-0.4,0.7-0.7,1
		c-0.3,0.3-0.6,0.4-1,0.5C16,40,15.5,40.7,15,41.3c-0.4,0.5-0.8,0.9-1.2,1.3c-0.2,0.1-0.3,0.2-0.5,0.2c-0.1,0-0.2,0.1-0.3,0.1
		c-0.3,0.3-0.6,0.7-0.8,1.1c-0.2,0.1-0.3,0.2-0.5,0.3c-0.2,0.2-0.5,0.4-0.7,0.7c-0.2,0.2-0.4,0.5-0.7,0.7c-0.1,0.1-0.3,0.2-0.5,0.2
		c0,0,0,0,0-0.1c0,0,0,0,0-0.1c-0.1-0.7-0.1-1.2-0.2-1.6c0-0.3-0.1-0.5-0.1-0.5c0-0.2,0-0.3,0.1-0.5c0-0.2,0.1-0.4,0.1-0.6
		c0-0.2,0.1-0.4,0.1-0.5c0-0.3-0.1-0.6-0.2-0.8c0.2-0.1,0.3-0.2,0.3-0.4c0.1-0.2,0.1-0.5,0.1-0.8c0-0.4,0.1-0.9,0.2-1.3
		c0-0.1,0-0.1,0-0.2c0-0.1,0-0.1,0-0.2c0-0.1,0-0.2,0-0.3s0-0.3,0-0.4s0-0.3,0-0.4c0-0.5,0.1-1.1,0.3-1.6c0.1-0.4,0.2-0.7,0.2-0.9
		c0-0.2,0.1-0.4,0.1-0.7c0-0.2,0-0.4-0.1-0.7c0.1,0,0.2-0.1,0.3-0.3c0.1-0.3,0.3-0.5,0.4-0.8c0.2-0.4,0.3-0.8,0.4-1
		c0.1-0.2,0.1-0.3,0.2-0.5c0.2-0.2,0.3-0.5,0.5-0.7c0.2-0.2,0.4-0.4,0.6-0.5c0,0,0.1,0,0.2-0.1s0.3-0.1,0.5-0.2
		c0.1-0.1,0.2-0.1,0.3-0.2c0.1,0,0.1-0.1,0.2-0.2c0.1-0.2,0.2-0.3,0.2-0.5c0-0.2,0.1-0.3,0.1-0.5c-0.2-0.2-0.4-0.3-0.7-0.4
		c-0.2-0.1-0.4-0.1-0.7-0.1c-0.2,0-0.4,0.1-0.5,0.2c-0.3,0.1-0.8,0.3-1.3,0.5c-0.5,0.2-1.1,0.4-1.6,0.5c-0.5,0.1-1,0.2-1.4,0.2H4.8
		c-0.1,0-0.2,0-0.2-0.1c-0.1,0-0.2-0.1-0.4-0.2c-0.1-0.1-0.3-0.1-0.4-0.2c-0.1,0-0.1-0.1-0.2-0.1c-0.1,0-0.2,0-0.3,0l-0.4,0
		c-0.1,0-0.2,0-0.3,0s-0.2,0-0.2,0c-0.1,0-0.1,0-0.2,0v0.6c0.2,0.2,0.4,0.4,0.6,0.6s0.4,0.4,0.6,0.6c0.2,0.2,0.5,0.4,0.7,0.6
		c0.1,0.1,0.3,0.2,0.5,0.2c-0.1-0.2-0.1-0.3-0.2-0.4c0-0.1-0.1-0.2-0.2-0.2c0.2-0.1,0.4-0.1,0.5-0.1c0.3,0,0.6-0.1,1,0h1.6
		c0,0,0.1,0,0.2,0s0.1,0,0.2-0.1c0.1,0,0.1-0.1,0.2-0.1c0.1,0,0.3,0,0.4,0c0.1,0,0.2,0.1,0.3,0.1c0.1,0,0.1,0.1,0.2,0.1
		c0.1,0,0.2,0,0.2-0.1c0.1-0.1,0.2-0.1,0.2-0.2c0.1,0,0.1-0.1,0.2-0.1c0.2,0,0.4,0,0.5,0.1c0.2,0.1,0.3,0.2,0.5,0.3
		c0,0.2-0.1,0.4-0.1,0.5c-0.1,0.2-0.2,0.5-0.3,0.7c-0.1,0.2-0.2,0.5-0.3,0.7c-0.1,0.2-0.1,0.3-0.1,0.5c0,0.1,0,0.2,0,0.3
		c0,0.1,0.1,0.2,0.1,0.3l-0.2,0.2c0,0.2,0,0.3-0.1,0.5c-0.1,0.2-0.1,0.4-0.2,0.6c-0.1,0.2-0.1,0.4-0.2,0.5c0,0.1-0.1,0.2-0.1,0.3
		c0,0.1,0.1,0.2,0.1,0.2c0.1,0.1,0.1,0.2,0.2,0.2c0.1,0.1,0.1,0.1,0.1,0.2c0,0.1-0.1,0.3-0.1,0.4c-0.1,0.2-0.2,0.3-0.3,0.5
		C9,36.9,8.9,37,8.8,37.1c0,0.1,0,0.2,0.1,0.3c0,0.1,0,0.2,0.1,0.3c0,0.1,0,0.2-0.1,0.4c0,0.1-0.1,0.3-0.1,0.4
		c0,0.1-0.1,0.2-0.1,0.3c0.1,0,0.1,0,0.2,0c0,0,0.1,0,0.1,0.1c-0.1,0.5-0.2,1-0.2,1.5s-0.2,1-0.2,1.5c-0.1,0.6-0.2,1.1-0.2,1.6
		s-0.1,0.9-0.1,1.3v0.2c0,0,0,0.1,0,0.1c0,0,0,0.1,0,0.1c0,0.3,0,0.6-0.1,0.9C8,46.6,7.9,47,7.7,47.6s-0.2,1-0.3,1.3
		c-0.1,0.2-0.1,0.5-0.1,0.7c0,0.1,0,0.3,0.1,0.4c0.1,0.2,0.1,0.3,0.2,0.5c0.1,0.2,0.2,0.3,0.3,0.4C8,51,8.1,51,8.2,51
		c0.1,0,0.2,0,0.4-0.1c0.1,0,0.3-0.1,0.4-0.1c0.1,0,0.2-0.1,0.4-0.1c0.1-0.2,0.1-0.4,0.2-0.5c0.1-0.1,0.2-0.2,0.2-0.2
		c0.1-0.1,0.1-0.3,0.2-0.4c0.1-0.2,0.3-0.5,0.5-0.9c0.2-0.4,0.4-0.9,0.5-1.4c0.7-0.6,1.4-1.3,2-1.9c0.7-0.8,1.5-1.7,2.3-2.7
		c0.6-0.7,1.1-1.3,1.5-1.7c0.3-0.3,0.6-0.6,1-0.8c0.1-0.4,0.4-0.7,0.7-1c0.3-0.2,0.5-0.4,0.6-0.6s0.3-0.2,0.3-0.3
		c0.1-0.2,0.2-0.3,0.3-0.5s0.2-0.3,0.3-0.5c0.1-0.2,0.3-0.3,0.4-0.5c0.1-0.1,0.3-0.2,0.4-0.2H21c0-0.1,0-0.2,0.1-0.3
		c0.1-0.1,0.2-0.3,0.4-0.4c0.2-0.2,0.4-0.3,0.5-0.4s0.2-0.2,0.2-0.2c0.1-0.1,0.1-0.2,0.2-0.3c0.1-0.2,0.2-0.4,0.4-0.7
		c0.1-0.2,0.2-0.4,0.4-0.5c0.1-0.1,0.2-0.2,0.3-0.4c0.2-0.1,0.5-0.3,0.8-0.4c0.2-0.1,0.5-0.3,0.7-0.5c0.2-0.2,0.3-0.5,0.4-0.8
		c0.8-0.6,1.5-1.1,2.1-1.5c0.6-0.4,1-0.7,1.2-1c0.6-0.5,1.1-1,1.6-1.6C30.6,27.2,31,26.7,31.3,26.1 M10.4,34
		c-0.1,0.3-0.1,0.5-0.2,0.7s-0.1,0.4-0.1,0.5l-0.2-1.1c0.1,0,0.2-0.1,0.3-0.1S10.4,34,10.4,34 M10,36.5H9.8l0.1-0.5h0.2L10,36.5z
		 M31.8,45.9c-0.1,0-0.1-0.1-0.2-0.1c0,0-0.1-0.1-0.1-0.1c-0.3,0.2-0.6,0.4-0.8,0.6s-0.4,0.3-0.5,0.4c0,0.1,0,0.3-0.1,0.4
		c-0.1,0.1-0.2,0.2-0.4,0.1c-0.2,0-0.4,0-0.6,0.1c-0.3,0.2-0.5,0.4-0.7,0.6c-0.2,0.2-0.3,0.3-0.4,0.4c-0.1,0-0.1,0.1-0.2,0.1
		c0,0-0.1,0-0.1,0s0,0-0.1,0c-0.1,0-0.3,0.2-0.6,0.5c-0.1,0.1-0.3,0.3-0.4,0.3c-0.1,0.1-0.1,0.1-0.2,0.1c-0.1,0-0.2,0-0.3,0
		s-0.2,0-0.3,0c-0.1,0-0.2,0-0.3,0c-0.2,0-0.3-0.1-0.4-0.2c-0.2-0.2-0.3-0.4-0.4-0.6c-0.1-0.2-0.2-0.5-0.3-0.7
		c-0.1-0.2-0.1-0.4-0.1-0.6c0-0.1,0-0.2,0.1-0.3c0.1-0.2,0.2-0.4,0.3-0.5c0.2-0.5,0.4-0.8,0.4-0.9c0.1-0.4,0.3-0.8,0.5-1.1
		c0-0.1,0-0.3,0.1-0.4s0-0.2,0-0.3c0.2-0.2,0.5-0.4,0.6-0.6s0.3-0.3,0.4-0.4c0-0.2,0-0.4,0-0.5s0-0.3,0-0.4
		c-0.1-0.1-0.3-0.2-0.4-0.3S26,41.3,26,41.2c0.1,0,0.2-0.1,0.3-0.2c0.1-0.1,0.1-0.2,0.1-0.3c0-0.2-0.1-0.4-0.2-0.6
		c-0.1-0.2-0.3-0.3-0.5-0.4c-0.2-0.1-0.4-0.1-0.7-0.1c-0.4,0-0.8,0.2-1.2,0.5c-0.4,0.4-0.8,0.9-1.1,1.5c-0.1,0-0.2,0-0.2,0
		c-0.1,0-0.2,0-0.2,0c-0.1,0.1-0.1,0.2-0.2,0.3c-0.1,0.1-0.2,0.2-0.3,0.3c-0.1,0.1-0.1,0.1-0.2,0.2s-0.2,0.2-0.4,0.3
		c0,0.2,0,0.4,0,0.5s0,0.1,0,0.1c-0.2,0-0.4,0-0.6,0.1c0,0,0,0.1,0.1,0.1c0,0,0,0.1,0,0.1c0,0.1-0.1,0.3-0.2,0.4
		c-0.2,0.2-0.4,0.3-0.6,0.4l0.3,0.2c-0.5,0.2-0.9,0.5-1.1,1c-0.3,0.4-0.5,0.7-0.7,0.9c-0.1,0.1-0.2,0.3-0.3,0.4c0.1,0,0.2,0,0.3,0
		c0.1,0,0.1,0.1,0.1,0.1c-0.2,0-0.5,0.1-0.7,0.2c-0.3,0.2-0.5,0.4-0.7,0.7c-0.2,0.3-0.4,0.6-0.6,0.9c-0.1,0.2-0.2,0.5-0.2,0.8
		c0,0.2,0,0.4,0.1,0.6c0.1,0.2,0.3,0.3,0.4,0.4c0.2,0,0.4,0.1,0.6,0.1s0.4,0.1,0.5,0.2c0.1-0.1,0.2-0.2,0.4-0.2
		c0.2-0.1,0.3-0.2,0.6-0.3c0.2-0.1,0.4-0.2,0.6-0.3c0.1-0.1,0.3-0.2,0.4-0.3c0.1-0.1,0.3-0.3,0.4-0.4c0.1-0.1,0.3-0.3,0.4-0.4
		c0.1-0.1,0.3-0.2,0.5-0.3c0-0.1,0-0.2,0-0.3s0-0.1,0,0v0l0,0c0.2,0,0.4-0.1,0.5-0.2c0.2-0.2,0.6-0.4,0.9-0.7c0-0.1,0.1-0.3,0.1-0.4
		c0-0.1,0.1-0.1,0.2-0.1c0,0,0.1,0.1,0.1,0.2c0,0.2,0,0.3,0,0.5v1.1c0,0,0.1,0.1,0.2,0.3s0.3,0.4,0.5,0.8c0.1,0.2,0.3,0.3,0.5,0.5
		c0.1,0.1,0.3,0.2,0.5,0.2c0,0,0.1,0,0.1,0c0,0,0.1,0,0.1,0c0.1,0,0.1,0,0.2,0.1c0.1,0,0.1,0.1,0.2,0.1c0,0,0.1,0.1,0.2,0.1
		c0.3,0,0.6,0,0.9,0s0.6-0.1,0.8-0.1c-0.1,0-0.1-0.1-0.2-0.1c0-0.1-0.1-0.1-0.1-0.1c0,0,0.1,0,0.1,0h0c-0.1,0-0.1,0,0,0s0.2,0,0.5,0
		c0-0.1,0.1-0.3,0.2-0.4c0.1-0.1,0.3-0.2,0.4-0.3c0,0,0.1,0,0.3-0.1s0.4-0.1,0.6-0.2c0.1-0.3,0.3-0.5,0.5-0.7
		c0.4-0.3,0.8-0.5,1.2-0.7c0,0,0-0.1,0-0.1c0,0,0-0.1,0-0.1c0-0.1,0.1-0.2,0.1-0.2c0.1-0.1,0.2-0.3,0.4-0.5L31.8,45.9z M24.2,42.6
		c0,0.2-0.1,0.4-0.2,0.6c-0.1,0.3-0.3,0.5-0.5,0.8c-0.3,0.4-0.5,0.7-0.7,0.9s-0.2,0.3-0.3,0.3c0,0,0,0,0.1,0c0,0,0.1,0,0.1,0.1
		c0,0,0.1,0.1,0.1,0.1c0,0.1-0.1,0.1-0.2,0.2c-0.2,0.1-0.3,0.2-0.5,0.3L22,45.7c-0.1,0.1-0.1,0.3-0.2,0.4c-0.1,0.2-0.2,0.3-0.4,0.4
		c-0.1,0.1-0.3,0.3-0.4,0.4c-0.1,0.1-0.2,0.1-0.3,0.1h0c-0.3,0.4-0.7,0.8-1.1,1.1c-0.4,0.3-0.9,0.6-1.5,0.7c0-0.1,0-0.3,0.1-0.4
		c0.1-0.2,0.1-0.3,0.2-0.4c0.1-0.1,0.2-0.3,0.3-0.4c0-0.1,0.1-0.2,0.1-0.3c0,0,0-0.1,0-0.1c0,0,0-0.1,0-0.1c0.1-0.1,0.1-0.1,0.2-0.1
		c0,0,0.1,0,0.2,0c0.1,0,0.3-0.3,0.8-0.8s1.1-1.4,2-2.5c0.1,0,0.1,0,0.2,0c0,0,0.1,0,0.1,0l0.6-0.7c0.1-0.1,0.2-0.2,0.4-0.3
		c0.1-0.1,0.2-0.1,0.4-0.1c0.1-0.1,0.1-0.1,0.2-0.2c0-0.1,0.1-0.1,0.1-0.2c0.1,0,0.2,0.1,0.2,0.1c0.1,0,0.1,0,0.2,0
		c0,0.1-0.1,0.2,0,0.3C24.1,42.4,24.1,42.5,24.2,42.6 M35.8,49.1c0.1-0.1,0.3-0.3,0.5-0.5s0.5-0.5,0.9-0.8c0.3-0.2,0.5-0.5,0.8-0.7
		c0.2-0.2,0.4-0.4,0.5-0.6l-0.2,0c-0.1,0-0.3,0-0.4,0.1c-0.1,0.1-0.3,0.1-0.4,0.2c-0.1,0-0.2,0.1-0.3,0.1c0,0-0.1,0-0.1,0
		c0,0,0,0,0,0c0,0,0,0,0,0c0,0-0.1,0-0.1,0c-0.2,0-0.5,0.1-0.7,0.3c-0.4,0.3-0.8,0.6-1.1,0.9c0,0-0.1,0-0.1,0c0,0,0,0,0,0
		c0,0,0,0,0,0c0,0-0.1,0-0.1,0c-0.2,0-0.3,0.1-0.5,0.2c-0.3,0.1-0.7,0.3-1.2,0.5s-0.9,0.4-1.2,0.5c-0.2,0.1-0.4,0.1-0.6,0.2
		c-0.3,0-0.5-0.4-0.7-1.1c-0.1-0.4-0.2-0.8-0.3-1c0-0.1-0.1-0.3-0.2-0.4c0.1-0.1,0.2-0.1,0.2-0.1h0.1c0,0,0-0.1,0-0.1
		c0,0,0-0.1,0-0.1c0-0.1,0-0.2,0-0.3c0-0.1,0.1-0.2,0.1-0.3c0-0.4,0.1-0.8,0.2-1.2c0.1-0.3,0.2-0.4,0.3-0.5c0-0.1-0.1-0.1-0.1-0.2
		c0-0.1,0-0.1,0-0.2c0-0.2,0.1-0.3,0.1-0.5c0.1-0.2,0.2-0.5,0.4-0.7c0.2-0.2,0.3-0.4,0.4-0.7c0.1-0.2,0.1-0.3,0.1-0.5
		c0-0.1,0-0.2,0-0.2c0-0.1-0.1-0.2-0.1-0.2c0.3-0.3,0.5-0.6,0.6-1c0-0.2,0-0.5,0.2-0.7c0.2-0.2,0.4-0.4,0.6-0.6
		c0-0.2,0.1-0.4,0.1-0.5s0.1-0.4,0.1-0.5c0.1-0.2,0.2-0.3,0.3-0.4c0.2-0.1,0.3-0.3,0.5-0.4c-0.1-0.1-0.1-0.2-0.1-0.2
		c0-0.1,0.1-0.3,0.2-0.4c0.1-0.2,0.3-0.4,0.5-0.7c0,0,0-0.1,0-0.1c0,0,0-0.1,0-0.1c0-0.2,0.1-0.4,0.3-0.5c0.2-0.3,0.5-0.6,0.8-0.8
		c0.1-0.1,0.2-0.3,0.3-0.4c0.1-0.2,0.2-0.5,0.3-0.7c0.1-0.3,0.2-0.5,0.2-0.7c0-0.1,0.1-0.2,0.2-0.3c0.1-0.5,0.4-0.8,0.8-0.8
		c0-0.2,0-0.3,0.1-0.5s0-0.2,0.1-0.3C38.1,30,38,30,37.9,29.9c-0.1-0.1-0.3-0.1-0.4-0.2c-0.1,0-0.2-0.1-0.3-0.1
		c-0.5-0.1-0.9,0.2-1,0.7c-0.1,0.4-0.3,0.7-0.4,1c-0.1,0.2-0.3,0.5-0.4,0.7c0.1,0.1,0.2,0.1,0.3,0.2c0.1,0.1,0.2,0.1,0.2,0.2
		l-0.2,0.2c-0.1,0-0.1,0-0.2,0c-0.1,0-0.1,0-0.1-0.1c0,0.1-0.1,0.1-0.1,0.1c-0.1,0.1-0.2,0.2-0.3,0.3c-0.1,0.1-0.2,0.2-0.3,0.3
		c-0.1,0.1-0.1,0.1-0.1,0.2c0,0.1,0,0.1,0.1,0.2c0.1,0.1,0.1,0.1,0.2,0.2c0.1,0,0.1,0.1,0.1,0.1c-0.1,0.1-0.3,0.2-0.4,0.3
		s-0.2,0.2-0.3,0.3c-0.1-0.1-0.1-0.1-0.2-0.1c0,0,0,0.1,0,0.1c0,0.1,0,0.1-0.1,0.2c0.1,0,0.3,0.1,0.4,0.2c-0.2,0.1-0.3,0.3-0.4,0.5
		c-0.2,0.2-0.3,0.5-0.4,0.7c-0.2,0.3-0.3,0.6-0.5,0.8c-0.1,0.2-0.2,0.3-0.3,0.5c0,0.1-0.1,0.2-0.1,0.3c0,0.1-0.1,0.2-0.2,0.4
		c-0.1,0.1-0.2,0.2-0.3,0.2c0.1,0.1,0.1,0.1,0.2,0.2c0,0.1,0.1,0.1,0.1,0.2c-0.1,0-0.1,0.1-0.2,0.1c0,0-0.1,0-0.1,0V39
		c0,0.1,0,0.2,0,0.4c0,0.2,0.1,0.3,0.1,0.5c-0.1,0.1-0.1,0.1-0.1,0.2c-0.1,0.1-0.2,0.2-0.3,0.3c-0.1,0.2-0.3,0.3-0.5,0.4
		c0,0.1-0.1,0.2-0.1,0.3c0,0.2-0.1,0.5-0.2,0.8c0,0.2-0.1,0.4-0.3,0.6c-0.1,0.1-0.2,0.2-0.4,0.2l-0.1,0c0.1,0.2,0.1,0.3,0.2,0.4
		c0,0.1,0,0.1,0.1,0.2v0c-0.1,0.1-0.2,0.2-0.3,0.2c-0.1,0-0.1,0.1-0.2,0.1c0.1,0.3,0,0.6-0.1,0.9c-0.1,0.3-0.3,0.6-0.5,0.8
		c0.1,0.1,0.1,0.1,0.2,0.2c0,0.1,0,0.2,0,0.3c0,0.1,0,0.2,0,0.3L29.5,46c0,0.1,0.1,0.2,0.1,0.3c0,0.1,0,0.2,0,0.3
		c0,0.2-0.1,0.3-0.1,0.5c-0.1,0.2-0.2,0.3-0.3,0.5c-0.1,0.1-0.1,0.3-0.1,0.4c0,0.1,0,0.2,0.1,0.3c0,0.1,0.1,0.3,0.1,0.4
		c0,0.1,0.1,0.2,0.1,0.3c0.1,0,0.1-0.1,0.2-0.1c0,0,0.1,0,0.1,0c0.1,0,0.1,0,0.2,0.1c-0.1,0.1-0.3,0.3-0.4,0.4
		c0.1,0.1,0.2,0.3,0.3,0.4s0.2,0.3,0.3,0.4c0.3,0.4,0.6,0.6,0.8,0.6c0.1,0,0.2,0,0.2-0.1c0.1,0,0.2-0.1,0.2-0.1c0.1,0,0.1,0,0.2-0.1
		c0,0,0.1,0,0.1,0c0,0,0,0,0,0.1l-0.1,0.1l0.3-0.2c0,0,0.1,0.1,0.1,0.1c0.1,0,0.1,0,0.2,0c0.3,0,0.7-0.1,1-0.3
		c0.4-0.2,0.8-0.5,1.1-0.8c0,0,0.1,0,0.1,0.1c0.1,0,0.1,0,0.2,0h0.1c0-0.1,0-0.2,0.1-0.3c0-0.1,0.1-0.2,0.2-0.3
		c0-0.1,0.1-0.1,0.2-0.1c0.1,0,0.3,0,0.4,0C35.6,49.1,35.7,49.1,35.8,49.1"/>
	<path id="Path_1488" class="st13" d="M53.8,45.7c0-0.1,0-0.2-0.1-0.3c-0.1-0.1-0.2-0.3-0.3-0.4c-0.4,0.3-0.8,0.5-1,0.6
		c-0.1,0.1-0.2,0.1-0.3,0.2c-0.1,0-0.1,0-0.1-0.1s0-0.1-0.1-0.1c-0.1,0.1-0.3,0.1-0.4,0.2c-0.2,0.2-0.6,0.4-1.1,0.7
		c-0.5,0.3-0.9,0.6-1.2,0.8c-0.3,0.2-0.5,0.3-0.5,0.3c-0.2,0.1-0.4,0.2-0.6,0.2c-0.2,0.1-0.5,0.2-0.8,0.2c-0.3,0.1-0.6,0.2-0.9,0.2
		c-0.2,0-0.4,0.1-0.6,0.1c-0.4,0-0.6-0.2-0.6-0.7c0-0.6,0.1-1.1,0.3-1.6c0.1-0.3,0.2-0.6,0.4-0.9c0.1-0.2,0.2-0.4,0.4-0.7
		c0,0,0.2-0.1,0.4-0.3c0.2-0.2,0.5-0.4,0.8-0.7c0.2-0.2,0.4-0.4,0.6-0.7c0.1-0.2,0.2-0.4,0.2-0.6c0-0.1,0-0.3-0.1-0.4
		c-0.1-0.1-0.2-0.2-0.4-0.3l0,0c-0.1,0-0.1,0-0.1,0c0,0,0,0,0,0.1c0,0-0.1,0-0.1,0c0,0-0.1,0-0.1,0l-0.1-0.1c0,0-0.1,0-0.1,0
		c-0.1,0-0.3,0.1-0.4,0.2c-0.2,0.2-0.5,0.4-0.7,0.7c-0.4,0.3-0.7,0.7-0.9,1.2l-3.2,2.9c-0.6,0.6-1.3,1.1-2,1.6
		c-0.4,0.3-0.8,0.5-1.2,0.5c0,0-0.1,0-0.1,0c0,0-0.1-0.1-0.1-0.1c0.1-0.4,0.3-0.7,0.4-0.9c0.1-0.3,0.2-0.5,0.3-0.7l0.1,0.2
		c0-0.2,0.1-0.4,0.2-0.6c0.2-0.3,0.4-0.6,0.6-0.9c0.2-0.3,0.4-0.6,0.6-1c0.1-0.2,0.2-0.5,0.2-0.7c0,0,0.1,0,0.1,0c0,0,0.1,0,0.1,0.1
		c0,0,0.1-0.2,0.3-0.4c0.2-0.2,0.4-0.6,0.7-1c0.3-0.5,0.6-0.8,1-1.1v-0.8c0,0-0.1,0-0.2-0.1c-0.1,0-0.2-0.1-0.3-0.1
		c-0.1-0.1-0.3-0.1-0.3-0.1s-0.1,0-0.1,0c-0.1,0-0.4,0.1-0.6,0.4c-0.4,0.4-0.7,0.8-1,1.3c-0.2,0.4-0.5,0.7-0.7,1.1s-0.5,0.7-0.7,1.1
		c-0.1,0.3-0.2,0.6-0.4,0.9c-0.3,0.5-0.6,0.9-0.9,1.3c-0.3,0.4-0.6,0.9-0.8,1.3c-0.2,0.3-0.3,0.7-0.3,1.1c0,0.1,0,0.3,0.1,0.4
		c0,0.2,0.1,0.3,0.1,0.5c0,0.1,0.1,0.2,0.1,0.4c0.1,0,0.2,0,0.3,0.1c0.1,0.1,0.2,0.1,0.3,0.2c0.1,0.1,0.2,0.1,0.2,0.1
		c0,0,0.1,0,0.1-0.1c0,0,0-0.1,0-0.1c0,0,0.1-0.1,0.1-0.1c0.1,0,0.1,0,0.1,0.1c0.1,0,0.1,0.1,0.2,0.1c0,0,0.1,0,0.1,0.1
		c0.3,0,0.6-0.1,0.8-0.2c0.4-0.2,0.8-0.4,1.1-0.6c0.4-0.2,0.7-0.5,1-0.8c0.2-0.2,0.3-0.4,0.4-0.7l0.4-0.1c0.3-0.3,0.6-0.5,0.9-0.7
		c0.2-0.2,0.4-0.4,0.6-0.5c-0.1,0.8,0.2,1.7,0.6,2.3c0.5,0.5,1.2,0.8,1.9,0.8c0.3,0,0.6-0.1,0.9-0.2c0.3-0.1,0.5-0.3,0.7-0.5
		c0,0,0,0,0,0c0,0,0,0,0,0c0,0,0,0.1,0,0.1c0,0,0,0,0,0c0.1,0,0.1,0,0.2-0.1c0.1-0.1,0.1-0.2,0.2-0.3c0.4-0.2,0.7-0.3,1.1-0.5
		s0.6-0.3,0.9-0.4c-0.1,0-0.2-0.1-0.2-0.2c0,0,0,0,0-0.1c0.2-0.1,0.4-0.2,0.7-0.3c0.1-0.1,0.3-0.1,0.4-0.1c0,0,0,0,0,0l0.3,0.1
		c0.4-0.5,0.9-0.9,1.3-1.3C53.1,46.1,53.5,45.8,53.8,45.7 M66.4,43.7c-0.1-0.1-0.1-0.2-0.2-0.3c0-0.1-0.1-0.1-0.2-0.1
		c-0.2,0-0.4,0-0.6,0.1c-0.2,0.1-0.4,0.2-0.6,0.4c-0.3,0.2-0.6,0.4-0.9,0.5c0.1,0,0.1,0,0.1,0c0,0,0,0.1,0,0.1l-2.5,1.3
		c-0.8,0.4-1.5,1-2.1,1.7l-0.3-0.2c0,0.1,0,0.2-0.1,0.3c0,0.1-0.1,0.1-0.2,0.1c0,0-0.1,0-0.1,0c0,0,0,0,0,0c0,0,0,0,0,0c0,0,0,0,0,0
		c0,0,0,0-0.1,0c-0.1,0-0.2,0.1-0.4,0.2c-0.2,0.1-0.6,0.3-1,0.5c-0.4,0.2-0.8,0.4-1.3,0.5c-0.4,0.1-0.8,0.2-1.2,0.2
		c-0.2,0-0.4-0.1-0.6-0.3c-0.2-0.2-0.3-0.4-0.4-0.7c-0.1-0.3-0.2-0.5-0.2-0.8c0-0.3,0.1-0.6,0.2-0.8c0.1-0.2,0.3-0.5,0.5-0.6
		c0.2-0.2,0.5-0.3,0.7-0.4s0.5-0.3,0.7-0.4c0.2-0.2,0.4-0.4,0.6-0.6c0.2-0.1,0.4-0.2,0.5-0.3s0.3-0.2,0.4-0.2
		c0.1-0.1,0.2-0.3,0.3-0.4c0.1-0.1,0.2-0.3,0.3-0.4c0.1-0.1,0.2-0.1,0.4-0.2h0.2c0-0.1,0.1-0.3,0.2-0.5c0.3-0.3,0.6-0.7,0.9-1
		c0.3-0.3,0.6-0.7,0.9-1.1c0.2-0.3,0.3-0.6,0.4-0.9c0,0,0.1,0,0.1,0c0,0,0.1,0.1,0.1,0c0.1,0,0.2,0,0.3-0.1c0.1-0.1,0.1-0.3,0.1-0.4
		c0-0.1,0-0.1-0.1-0.2c0-0.1-0.1-0.1-0.1-0.2l-0.2,0.1c-0.1,0-0.1-0.1-0.2-0.1s-0.1-0.1-0.2-0.1c-0.1-0.1-0.2-0.1-0.4-0.2
		c-0.1,0-0.2-0.1-0.4-0.1c-0.4,0-0.7,0.1-1,0.3c-0.5,0.2-1,0.5-1.4,0.8c-0.1,0.1-0.4,0.3-0.8,0.6s-0.9,0.7-1.5,1.1
		c-0.1,0.5-0.2,0.7-0.5,0.7h-0.1c0,0.1,0,0.3-0.1,0.4c-0.1,0.2-0.2,0.3-0.4,0.5c-0.2,0.2-0.4,0.4-0.5,0.5c-0.1,0.1-0.2,0.2-0.2,0.3
		c-0.2,0.3-0.3,0.6-0.4,0.9s-0.2,0.5-0.3,0.7c-0.1,0.1-0.3,0.3-0.4,0.4c-0.1,0.1-0.2,0.1-0.3,0.2c0,0.2,0,0.3,0,0.5s0,0.4,0,0.6
		c0,0.7,0.1,1.3,0.4,1.9c0.3,0.6,0.7,1.1,1.1,1.5c0,0,0-0.1,0-0.1c0,0,0.1-0.1,0.1-0.1c0.1,0.2,0.3,0.3,0.5,0.4
		c0.2,0.1,0.5,0.1,0.7,0.1c0.2,0,0.4,0,0.5,0c0.2,0,0.4-0.1,0.6-0.1c0.2,0,0.4,0,0.5-0.1c0.1,0,0.2,0,0.2-0.1
		c0.1-0.1,0.2-0.1,0.4-0.2c0.2-0.1,0.3-0.2,0.4-0.3c0.1,0,0.1-0.1,0.2-0.1c0.1-0.1,0.2-0.1,0.3-0.1s0.2-0.1,0.3-0.1
		c0-0.1,0-0.1,0-0.2c0-0.1,0.1-0.1,0.1-0.1c0.2-0.1,0.4-0.1,0.4-0.1h0.1c0,0-0.1,0-0.1-0.1c0,0,0,0,0-0.1c0-0.1,0-0.1,0.1-0.1
		c0.1-0.1,0.1-0.1,0.2-0.1c0.3,0,0.6-0.1,0.8-0.3c0.5-0.3,1-0.6,1.4-0.9c0.7-0.5,1.2-0.8,1.6-1.1c0.3-0.2,0.5-0.4,0.8-0.5
		c0-0.2,0.1-0.3,0.2-0.4c0.2-0.2,0.4-0.3,0.7-0.4c0.2-0.1,0.5-0.2,0.7-0.4c0.1-0.1,0.2-0.2,0.2-0.4c0,0,0-0.1,0-0.1c0,0,0-0.1,0-0.1
		c0.1,0,0.2,0,0.3,0C66.2,43.8,66.3,43.8,66.4,43.7 M58.3,40.8c0,0.1,0,0.2-0.1,0.3c-0.1,0.1-0.2,0.2-0.3,0.2
		c-0.1,0.1-0.2,0.1-0.3,0.2c-0.5,0.5-0.9,0.9-1.3,1.2c-0.4,0.3-0.7,0.6-1,0.8l-0.2-0.1c0.5-0.6,1-1.1,1.5-1.6
		C57.2,41.4,57.8,41.1,58.3,40.8 M79.2,44.5c-0.2,0.3-0.3,0.5-0.5,0.7c-0.2,0.3-0.5,0.6-0.7,0.8c-0.2,0.2-0.5,0.5-0.7,0.7
		s-0.5,0.4-0.7,0.7c0,0.1,0,0.3-0.1,0.4c0,0.1-0.1,0.1-0.2,0.1h-0.1c0,0,0-0.1-0.1-0.1c0,0,0,0,0,0c-0.1,0-0.2,0.1-0.3,0.1
		c-0.1,0.1-0.3,0.2-0.5,0.3s-0.4,0.3-0.5,0.4c-0.1,0.1-0.2,0.1-0.3,0.2v0.3c-0.8,0.3-1.4,0.5-1.7,0.7S72.2,50,72.3,50
		c-0.4,0-0.7-0.2-0.8-0.6c-0.2-0.6-0.3-1.2-0.2-1.8v-0.3L71,47c0,0,0.1,0,0.1-0.1c0,0,0.1,0,0.1,0l0.1,0c0-0.1,0-0.2-0.1-0.3
		c0-0.1,0-0.2-0.1-0.2c0,0.1-0.1,0.2-0.1,0.3c0,0.1-0.1,0.1-0.1,0.1l-0.1-0.5c0.1-0.1,0.2-0.1,0.3-0.2c0.1,0,0.2-0.1,0.3-0.1
		c0.1-1,0.3-2,0.7-2.9c0.3-1,0.7-1.9,1.2-2.7c0.2-0.3,0.3-0.5,0.4-0.7s0.2-0.4,0.3-0.5c0.1-0.2,0.1-0.4,0.2-0.6
		c0.1-0.2,0.1-0.4,0.3-0.5c0.1-0.1,0.3-0.2,0.4-0.3c0.3-0.3,0.5-0.6,0.7-0.9s0.4-0.5,0.5-0.7c0.4-0.6,0.7-1.1,0.9-1.5
		c0.1-0.2,0.2-0.4,0.3-0.7c0-0.2-0.1-0.5-0.3-0.6c-0.2-0.2-0.4-0.3-0.7-0.3c-0.3,0-0.6,0.1-0.9,0.3c-0.3,0.3-0.6,0.6-0.9,0.9
		c-0.2,0.3-0.4,0.7-0.6,1s-0.4,0.7-0.6,1c0,0,0.1,0.1,0.1,0.1c0,0,0,0.1,0,0.1c0,0.1,0,0.1,0,0.2c0,0.1-0.1,0.1-0.1,0.1
		c-0.1,0.1-0.1,0.1-0.2,0.2s-0.1,0.1-0.1,0.1c0,0.3,0,0.5,0,0.7c0,0.1,0,0.3,0,0.4c0,0.2-0.1,0.3-0.2,0.4c-0.1,0.1-0.2,0.3-0.4,0.4
		L72.4,39l0.1-0.3c-0.1,0.3-0.2,0.7-0.4,1c-0.1,0.2-0.3,0.4-0.5,0.5c-0.3-0.3-0.8-0.5-1.3-0.5c-0.3,0-0.6,0.1-0.8,0.2
		c-0.2,0.2-0.3,0.3-0.4,0.4c0,0.1-0.1,0.1-0.2,0.1c-0.2,0.1-0.4,0.2-0.5,0.3L68,41c-0.5,0.6-1.1,1.2-1.5,1.8
		c-0.2,0.2-0.4,0.3-0.5,0.4c-0.1,0.1-0.3,0.2-0.4,0.3c-0.2,0.2-0.4,0.5-0.6,0.7c-0.3,0.3-0.6,0.7-1.1,1.2c-0.3,0.3-0.6,0.7-0.9,1.1
		c-0.2,0.3-0.4,0.7-0.6,1c0,0.1-0.1,0.2-0.2,0.3c-0.1,0.1-0.2,0.3-0.3,0.4c-0.1,0.1-0.1,0.2-0.2,0.3c0,0.3,0.1,0.6,0.2,0.9
		c0.1,0.3,0.4,0.5,0.6,0.7c0.2,0.2,0.5,0.3,0.8,0.3c0.1,0,0.1,0,0.2-0.1c0.1-0.1,0.2-0.1,0.3-0.2c0.1-0.1,0.3-0.1,0.4-0.1h0.1
		c0.1-0.1,0.1-0.3,0.2-0.4c0.1-0.1,0.2-0.2,0.3-0.3c0.2-0.1,0.4-0.2,0.6-0.2c0.2-0.2,0.4-0.3,0.6-0.5c0.3-0.2,0.6-0.5,0.9-0.9
		c0.3-0.3,0.6-0.6,0.9-0.8c0.2-0.2,0.4-0.3,0.6-0.5c0.3-0.5,0.6-0.9,0.9-1.3c0.2-0.3,0.5-0.6,0.7-0.8c0,0.1,0.1,0.2,0.1,0.3
		c0,0.1,0,0.2,0,0.3c0,0.2-0.1,0.3-0.1,0.4c-0.1,0.2-0.1,0.4-0.2,0.5c-0.1,0.1-0.1,0.3-0.1,0.4c0,0.1,0,0.2,0.1,0.3
		c0,0.1,0,0.2,0.1,0.3C70.1,47,70,47.1,70,47.3c0,0.1-0.1,0.3-0.1,0.4c0,0.7,0.2,1.4,0.5,2c0.4,0.9,0.8,1.4,1.3,1.4c0,0,0.1,0,0.1,0
		c0,0,0.1,0,0.1,0c0.1,0,0.1,0.1,0.2,0.1c0.1,0.1,0.2,0.1,0.3,0.2c0.1,0,0.1,0.1,0.2,0.1c0.3-0.1,0.6-0.2,0.9-0.4
		c0.2-0.1,0.3-0.2,0.5-0.4c0.1-0.1,0.2-0.1,0.2-0.2c0,0,0-0.1,0.1-0.1c0,0,0.1,0,0.1,0h0.1c0,0,0,0.1,0.1,0.1c0,0,0,0,0,0
		c0.1-0.1,0.3-0.2,0.4-0.3c0.2-0.2,0.5-0.4,0.9-0.8s0.7-0.7,1-0.9c0.2-0.1,0.3-0.3,0.5-0.4c0,0,0.1-0.1,0.2-0.2s0.3-0.3,0.5-0.6
		c0.1-0.2,0.2-0.3,0.4-0.5c0.1-0.1,0.2-0.2,0.3-0.2v-0.1c0-0.1,0-0.2,0-0.2c0,0,0-0.1,0-0.1h0.4c0,0,0-0.1,0-0.1c0,0,0-0.1,0-0.1
		c0-0.1,0-0.2,0.1-0.2c0-0.1,0.1-0.2,0.2-0.3L79.2,44.5z M70.3,42.2c-0.1,0.3-0.2,0.5-0.2,0.7c-0.1,0.2-0.1,0.3-0.1,0.5
		c0,0.1-0.1,0.2-0.2,0.2c-0.1,0.1-0.2,0.2-0.3,0.2c-0.1,0.1-0.2,0.1-0.2,0.2c-0.1,0.1-0.1,0.1-0.1,0.2l0,0.1c-0.1,0-0.1,0.1-0.2,0.3
		l-0.3-0.1c-0.9,1-1.9,1.9-2.9,2.8c-0.5,0.5-1.2,0.8-1.9,0.9h-0.4c0.5-1.1,1.2-2.1,2-3v-0.1c0-0.1,0-0.2,0-0.2s0-0.1,0-0.1
		c0.1,0,0.1,0,0.2,0l0.2-0.1c0.1,0,0.1,0,0.2,0c0,0,0.1,0,0.1,0c0,0,0.1,0,0.1,0c0.2-0.3,0.3-0.6,0.4-0.9s0.2-0.5,0.3-0.7
		c0.8-0.4,1.5-0.7,2.1-0.9C69.5,42.3,69.9,42.2,70.3,42.2"/>
	<path id="Path_1489" class="st14" d="M112.3,39.2c-0.7,0-1.4,0.1-2.2,0.2s-1.5,0.2-2.2,0.3c0,0.1-0.1,0.3-0.2,0.4
		c-0.1,0.1-0.2,0.1-0.3,0.1c-0.1,0-0.1,0-0.2-0.1c0,0-0.1-0.1-0.1-0.2c-0.1,0-0.1-0.1-0.2-0.1c-0.2,0-0.3-0.1-0.4-0.2
		c-0.2-0.1-0.5-0.3-0.9-0.6c-0.4-0.3-0.8-0.5-1.1-0.7c-0.2-0.1-0.4-0.2-0.6-0.3c-1.3-0.5-2.7-0.8-4.1-0.8c-0.3,0-0.6,0-0.9,0.1
		c-0.3,0.1-0.7,0.1-1.1,0.2c0.1-0.3,0.3-0.6,0.5-0.8c0.3-0.4,0.7-0.8,1.1-1.1c0.7-0.6,1.2-1,1.6-1.3l0.5-0.4
		c0.2-0.2,0.4-0.4,0.7-0.6s0.4-0.4,0.7-0.6c0.3-0.3,0.6-0.6,0.8-0.8c0.1-0.1,0.3-0.3,0.4-0.5c0.2-0.6,0.4-1.1,0.6-1.7
		c0.1,0.1,0.1,0.2,0.2,0.4c0.1,0.1,0.2,0.1,0.3,0.1c0.3-0.8,0.5-1.5,0.7-1.9s0.2-0.7,0.2-0.7c-0.6-0.5-1.3-0.8-2.1-1
		c-0.9-0.2-1.8-0.4-2.7-0.3c-0.1,0-0.3,0-0.4,0c-0.2,0-0.3,0-0.5,0.1c-0.1,0-0.3,0-0.4,0c-0.2,0-0.4,0-0.6-0.1
		c-0.3,0-0.6-0.1-0.9-0.2c-0.3-0.1-0.6-0.1-0.9-0.2c-0.2,0-0.4-0.1-0.6-0.1c-0.1,0-0.2,0.1-0.3,0.2c-0.1,0.1-0.3,0.2-0.4,0.3
		c-0.1,0.1-0.2,0.2-0.3,0.2c-0.6,0.2-1.2,0.4-1.9,0.5c-0.4,0.1-0.8,0.2-1.1,0.3c-0.3,0.1-0.5,0.2-0.8,0.3c-0.1,0-0.1,0.1-0.2,0.2
		c-0.1,0.1-0.2,0.2-0.3,0.3c-0.1,0.1-0.2,0.1-0.3,0.1c0,0-0.1,0-0.1,0c0,0,0,0,0-0.1c0,0,0,0,0,0c0,0-0.1,0-0.1,0
		c-0.1,0-0.2,0-0.2,0.1c-0.1,0.1-0.3,0.2-0.4,0.3c-0.3,0-0.6,0.1-0.9,0.1c-0.3,0.1-0.6,0.2-0.9,0.3c-0.2,0.1-0.4,0.2-0.5,0.3
		c-0.2,0.1-0.4,0.3-0.6,0.5c-0.2,0.2-0.4,0.4-0.6,0.6c-0.1,0.1-0.2,0.3-0.2,0.4c0,0.3,0.1,0.6,0.4,0.8c0.3,0.3,0.7,0.5,1.1,0.7
		c0.4,0.2,0.8,0.3,1.1,0.4c0.3,0.1,0.7,0.1,1,0.1c-0.1-0.3-0.2-0.6-0.3-0.9s-0.2-0.5-0.3-0.6c0.2-0.2,0.3-0.3,0.4-0.4
		s0.2-0.2,0.3-0.3c-0.2,0-0.2,0-0.3-0.1c0-0.1,0.1-0.2,0.1-0.3c0.1-0.1,0.3-0.3,0.4-0.4c0.2-0.1,0.4-0.3,0.5-0.3
		c0.1-0.1,0.2-0.1,0.3-0.1c0,0,0.1,0,0.1,0c0,0,0,0,0,0s0,0,0,0s0,0,0,0s0,0,0,0c0,0,0.1,0,0.1,0c0.5-0.1,1.1-0.3,1.6-0.6
		c0.5-0.2,0.8-0.4,1.1-0.5c0.2-0.1,0.3-0.1,0.5-0.1c0.1,0,0.1,0,0.2,0c0.1,0,0.2,0,0.3,0.1c0.1,0,0.1,0,0.2,0v0.9
		c0,0.2-0.1,0.4-0.2,0.7c-0.1,0.3-0.3,0.8-0.5,1.3c-0.2,0.6-0.4,1-0.5,1.4c-0.1,0.3-0.1,0.5-0.2,0.8c0,0,0,0.1,0,0.1
		c0,0,0,0.1,0,0.1c-0.2,0.4-0.5,0.7-0.7,1.1c-0.2,0.4-0.4,0.9-0.6,1.4c-0.2,0.4-0.3,0.9-0.5,1.3s-0.3,0.9-0.5,1.3
		c-0.3,0.7-0.6,1.2-0.8,1.7s-0.5,0.9-0.6,1.2c0,0-0.1,0.1-0.1,0.2c0,0.1,0,0.1,0,0.2c0,0.1,0,0.2,0,0.2c0,0.1,0,0.2,0.1,0.3
		c0,0.1,0,0.2,0,0.2c0,0,0,0.1-0.1,0.3s-0.2,0.5-0.4,1c-0.2,0.4-0.3,0.8-0.4,1.2c-0.1,0.3-0.1,0.7-0.1,1c-0.1,0.2-0.2,0.4-0.3,0.6
		c-0.1,0.3-0.3,0.8-0.5,1.4c-0.1,0.4-0.3,0.8-0.5,1.2c-0.2,0.3-0.3,0.4-0.4,0.4c0,0-0.1,0-0.1,0c0,0,0,0,0,0v0c0,0,0,0,0,0
		c0,0,0,0,0,0c0,0-0.1,0-0.1,0c-0.3,0-0.8,0.6-1.5,1.8c-0.5,0.7-0.9,1.4-1.1,2.3c0,0.2,0.1,0.5,0.2,0.7c0.2,0.3,0.4,0.5,0.7,0.7
		c0.4,0.4,1,0.7,1.6,0.8c0.2,0,0.4,0,0.6-0.1c0.3-0.1,0.6-0.1,0.9-0.2c0.3-0.1,0.6-0.2,0.9-0.2c0.2,0,0.4-0.1,0.6-0.1
		c0.2-0.1,0.5-0.2,0.6-0.4c0.2-0.1,0.3-0.2,0.4-0.3c0.1,0,0.2-0.1,0.3-0.1c0,0,0.1,0,0.1,0c0,0,0,0,0,0s0,0,0,0s0,0,0,0c0,0,0,0,0,0
		c0,0,0.1,0,0.1,0c0.1,0,0.1,0,0.2-0.1c0-0.1,0.1-0.1,0.1-0.2c0-0.1,0.1-0.1,0.2-0.1c0,0,0.1,0,0.1,0c0,0,0,0,0,0v0c0,0,0,0,0,0
		c0,0,0.1,0,0.1,0c0.2,0,0.4-0.1,0.5-0.2c0.3-0.1,0.6-0.3,1.1-0.5c0.5-0.2,0.9-0.4,1.1-0.6c0.2-0.1,0.3-0.2,0.5-0.3l0.3,0.3
		c0,0,0.1-0.1,0.3-0.2s0.4-0.3,0.7-0.5c0.2-0.1,0.4-0.3,0.6-0.4c0.2-0.1,0.3-0.2,0.5-0.2c0.7-0.2,1.3-0.5,1.9-0.9
		c0.7-0.4,1.3-0.9,1.9-1.4c0.4-0.3,0.9-0.7,1.4-1.3c0.5-0.5,1.2-1.2,1.9-1.9c0.2-0.4,0.5-0.7,0.7-1c0.2-0.3,0.3-0.6,0.4-0.9
		c0.1-0.3,0.2-0.7,0.2-1c0-0.3,0-0.7,0-1s0-0.7,0-1c0.8-0.4,1.6-0.7,2.5-0.8c0.6-0.2,1.2-0.3,1.6-0.4s0.7-0.2,0.9-0.3
		c0.1,0,0.1-0.1,0.2-0.1c0,0,0.1-0.1,0.1-0.1c0-0.1,0-0.2,0-0.3C112.2,39.3,112.3,39.3,112.3,39.2 M103.4,28.5c-0.1,0.7-0.5,1.4-1,2
		c-0.9,1.1-1.9,2.1-3,3c-1,0.9-1.9,1.7-2.8,2.4c-0.9,0.7-1.7,1.3-2.6,1.9c0.9-2.3,1.7-4,2.2-5.3c0.5-1.3,0.9-2.1,1.1-2.4
		c-0.1-0.2,0-0.5,0.3-1c0.1-0.2,0.2-0.4,0.4-0.6c0.1-0.1,0.2-0.2,0.3-0.2c0,0,0.1,0,0.1,0c0,0,0,0,0,0c0,0.1,0,0.2,0,0.2
		c0,0,0,0.1,0,0c0,0,0-0.1,0-0.1c0,0,0-0.1,0-0.1c0-0.2,0-0.3-0.1-0.5c0.1,0,0.2-0.1,0.3-0.1c0.1-0.1,0.2-0.1,0.3-0.1
		c0.1,0,0.2-0.1,0.3-0.1c0.1,0,0.2,0,0.2,0.1c0.1,0,0.2,0.1,0.2,0.1c0.1,0,0.2,0.1,0.2,0.1c0.1,0,0.2,0,0.3-0.1
		c0.1,0,0.2-0.1,0.2-0.1c0.1,0,0.1-0.1,0.2-0.1c0.2,0,0.4,0,0.6,0.1c0.2,0,0.5,0.1,0.7,0.2c0.3,0.1,0.6,0.2,0.8,0.2
		c0.1,0,0.3,0.1,0.4,0.1c0.1,0,0.1,0.1,0.1,0.2C103.4,28.3,103.4,28.4,103.4,28.5 M104.6,40.7c0,0-0.1,0.1-0.2,0.1s-0.2,0.2-0.4,0.3
		c-0.1,0.1-0.2,0.1-0.4,0.2c-0.1,0-0.2,0.1-0.3,0.1c-0.1,0-0.1,0-0.2,0c0,0-0.1-0.1-0.1-0.1c0,0-0.1,0-0.2,0
		c-0.3,0.1-0.6,0.2-0.9,0.3c-0.5,0.2-1.2,0.5-2.1,0.9c-0.9,0.4-1.6,0.7-2.1,0.9c-0.5,0.2-0.8,0.4-1,0.5c0,0.1-0.1,0.1-0.1,0.2
		c-0.1,0.1-0.1,0.2-0.2,0.3c-0.1,0.1-0.1,0.2-0.2,0.3c0,0.1-0.1,0.1-0.2,0.1c0,0-0.1,0-0.1,0c0,0,0,0,0-0.1l0,0c0,0,0,0,0,0
		c0,0-0.1,0-0.1,0c-0.2,0-0.3,0.1-0.5,0.1c-0.2,0.1-0.4,0.2-0.6,0.4L94,45.8c-0.4,0.2-0.9,0.3-1.2,0.4c-0.3,0.1-0.7,0.2-1.1,0.2
		v-1.4c0-0.3,0.1-0.6,0.1-0.8c0.1-0.4,0.2-0.8,0.4-1.4c0.2-0.5,0.3-1,0.4-1.4c0.1-0.3,0.1-0.6,0.1-0.9v-0.1c0.1,0,0.2,0,0.3,0
		s0.2,0,0.4,0.1c0.1,0,0.2,0,0.3,0c1.2-0.1,2.4-0.4,3.4-0.9c0.6-0.3,1.2-0.5,1.8-0.7c0.4-0.1,0.7-0.2,1.1-0.2c0.9,0,1.8,0.2,2.6,0.5
		c0.5,0.2,0.9,0.4,1.3,0.7C104.2,40,104.4,40.3,104.6,40.7 M105.1,43c0,0.1,0,0.2-0.1,0.3c-0.1,0.2-0.1,0.4-0.2,0.6
		c-0.1,0.2-0.2,0.5-0.2,0.7c0,0.1-0.1,0.3-0.1,0.5c-0.3,0.2-0.5,0.4-0.7,0.6c-0.2,0.2-0.4,0.3-0.5,0.5l0.1,0.6
		c-2.5,2.2-5.4,4.1-8.4,5.6c-0.4,0.2-0.8,0.4-1.2,0.5c-0.5,0.2-1.2,0.4-1.9,0.7c-1,0.4-2.1,0.7-3.2,0.9h-0.6v-1.1
		c0-0.3,0.1-0.5,0.2-0.7c0.2-0.4,0.3-0.7,0.5-1.1c0.2-0.4,0.4-0.7,0.5-1.1c0.1-0.2,0.2-0.4,0.2-0.7c0-0.1,0.1-0.1,0.2-0.1
		c0,0,0,0,0.1,0c0,0,0.1,0,0.1,0H90c0.5-0.2,1-0.5,1.3-0.9c0.3-0.3,0.4-0.6,0.4-1c1-0.5,1.8-0.9,2.5-1.3s1.3-0.7,1.8-1
		c1.5-0.8,3.1-1.6,4.7-2.3c1.3-0.6,2.7-1,4.2-1.4c0,0.1,0,0.2,0,0.3c0,0.1,0.1,0.3,0.1,0.4C105,42.8,105,42.9,105.1,43 M126.9,46.7
		c0-0.1,0-0.2-0.1-0.3c-0.1-0.2-0.2-0.3-0.3-0.4c-0.5,0.3-0.9,0.6-1.1,0.7c-0.1,0.1-0.2,0.2-0.3,0.2c-0.1,0-0.1,0-0.1-0.1
		s0-0.1-0.1-0.1c-0.2,0.1-0.3,0.2-0.4,0.3c-0.3,0.2-0.7,0.4-1.2,0.8c-0.6,0.4-1,0.7-1.4,0.9s-0.5,0.3-0.6,0.4
		c-0.2,0.1-0.4,0.2-0.7,0.2c-0.3,0.1-0.6,0.2-1,0.3c-0.4,0.1-0.7,0.2-1,0.3c-0.2,0.1-0.4,0.1-0.6,0.1c-0.4,0-0.7-0.3-0.7-0.8
		c0-0.6,0.2-1.3,0.4-1.9c0.1-0.4,0.3-0.7,0.4-1c0.1-0.3,0.3-0.5,0.4-0.8c0,0,0.2-0.2,0.4-0.4s0.6-0.5,1-0.8c0.3-0.2,0.5-0.5,0.7-0.8
		c0.1-0.2,0.2-0.5,0.2-0.7c0-0.2-0.1-0.3-0.2-0.4c-0.1-0.1-0.3-0.3-0.5-0.4l0,0c-0.1,0-0.1,0-0.1,0c0,0,0,0-0.1,0.1c0,0-0.1,0-0.1,0
		c-0.1,0-0.1,0-0.1-0.1c-0.1,0-0.1-0.1-0.2-0.1c0,0-0.1-0.1-0.2-0.1c-0.2,0-0.3,0.1-0.4,0.3c-0.3,0.2-0.6,0.5-0.8,0.8
		c-0.4,0.4-0.8,0.8-1,1.3l-3.7,3.4c-0.7,0.7-1.5,1.3-2.4,1.9c-0.4,0.3-0.9,0.5-1.4,0.6c0,0-0.1,0-0.1,0c0,0-0.1-0.1-0.1-0.1
		c0.2-0.4,0.3-0.8,0.4-1.1s0.2-0.6,0.3-0.8l0.1,0.2c0-0.3,0.1-0.5,0.2-0.7c0.2-0.4,0.4-0.7,0.7-1.1c0.3-0.4,0.5-0.7,0.7-1.1
		c0.1-0.3,0.2-0.5,0.3-0.8c0,0,0.1,0,0.1,0c0,0,0.1,0.1,0.1,0.1c0,0,0.1-0.2,0.3-0.4s0.4-0.6,0.8-1.1c0.3-0.5,0.7-1,1.2-1.3V41
		c0,0-0.1,0-0.2-0.1s-0.2-0.1-0.4-0.1c-0.2-0.1-0.3-0.1-0.4-0.2s-0.1-0.1-0.1-0.1c-0.2,0-0.4,0.2-0.7,0.5c-0.4,0.5-0.8,0.9-1.1,1.5
		c-0.3,0.4-0.6,0.8-0.8,1.3s-0.5,0.8-0.8,1.3c-0.1,0.3-0.2,0.7-0.4,1c-0.3,0.5-0.6,1-1,1.5c-0.4,0.5-0.7,1-0.9,1.5
		c-0.2,0.4-0.3,0.8-0.3,1.2c0,0.1,0,0.3,0.1,0.4c0,0.2,0.1,0.4,0.1,0.5c0,0.1,0.1,0.3,0.1,0.4c0.1,0,0.2,0.1,0.3,0.1
		c0.1,0.1,0.2,0.1,0.3,0.2c0.1,0.1,0.2,0.1,0.3,0.1c0,0,0.1,0,0.1-0.1c0,0,0-0.1,0.1-0.1c0,0,0.1-0.1,0.1-0.1c0.1,0,0.1,0,0.2,0.1
		c0.1,0,0.1,0.1,0.2,0.1c0.1,0,0.1,0,0.2,0.1c0.3,0,0.7-0.1,1-0.2c0.5-0.2,0.9-0.4,1.3-0.7c0.4-0.2,0.8-0.5,1.1-0.9
		c0.2-0.2,0.4-0.5,0.4-0.8l0.5-0.1c0.4-0.3,0.7-0.6,1-0.8s0.5-0.4,0.7-0.6c-0.1,1,0.2,1.9,0.8,2.7c0.5,0.6,1.3,1,2.2,0.9
		c0.3,0,0.7-0.1,1-0.2c0.3-0.1,0.6-0.3,0.8-0.6c0,0,0,0,0,0c0,0,0,0,0,0.1c0,0,0,0.1,0,0.1c0,0,0,0,0,0c0.1,0,0.1,0,0.2-0.1
		c0.1-0.1,0.1-0.2,0.2-0.3c0.4-0.2,0.9-0.4,1.2-0.5s0.7-0.3,1.1-0.5c-0.1,0-0.3-0.1-0.3-0.2c0,0,0,0,0-0.1c0.3-0.1,0.5-0.3,0.8-0.4
		c0.2-0.1,0.3-0.1,0.5-0.1c0,0,0,0,0,0s0.2,0,0.3,0.1c0.5-0.6,1-1.1,1.5-1.6C126.1,47.2,126.5,46.9,126.9,46.7 M138.8,32.9
		c-0.1-0.1-0.2-0.2-0.2-0.3c-0.1-0.1-0.1-0.1-0.2-0.2c0,0.1-0.1,0.1-0.2,0.2c-0.3,0-0.6,0-0.9,0c-0.4,0-0.7,0-1.1,0.1
		c-0.4,0-0.9,0-1.3,0.1c-0.5,0-0.9,0.1-1.4,0.2c-0.5,0.1-1,0.4-1.4,0.7c-0.1,0-0.2,0-0.2,0l-0.3-0.1c-0.1,0-0.2,0-0.2,0
		c-0.2,0-0.4,0-0.6,0.1c-0.2,0.1-0.4,0.1-0.5,0.2c-0.1,0-0.1,0.1-0.2,0.1c0,0-0.1,0-0.1,0c0,0,0,0,0,0v0c0,0,0,0,0,0c0,0,0,0-0.1,0
		c-0.1,0-0.2,0.1-0.3,0.1c-0.1,0.1-0.2,0.2-0.3,0.3c-0.1,0.1-0.1,0.2-0.1,0.3v0.1c0,0,0.1,0.1,0.2,0.3c0.1,0.1,0.3,0.3,0.4,0.6
		c0.1,0.2,0.2,0.3,0.4,0.4c0.1,0.1,0.3,0.2,0.4,0.3c0.1-0.1,0.2-0.2,0.4-0.3s0.4-0.3,0.7-0.4c0.2-0.1,0.4-0.3,0.6-0.4
		c0.2-0.1,0.3-0.3,0.4-0.4c0.8-0.2,1.5-0.4,2.1-0.5c0.6-0.1,1.1-0.3,1.5-0.3c0.1,0,0.2,0,0.2-0.1c0.1-0.1,0.2-0.1,0.4-0.2
		c0.1,0,0.2-0.1,0.3-0.1c0.1,0,0.1,0,0.2,0c0.1,0,0.1,0,0.1,0l0-0.1l0.1-0.2l0.2,0.2c0.1-0.1,0.2-0.2,0.4-0.2c0.1,0,0.1,0,0.1,0
		c0.1,0,0.1,0.1,0.2,0.1C138.5,33.3,138.6,33.1,138.8,32.9 M136.4,45.4c0-0.1,0-0.1-0.1-0.1c-0.1,0-0.1,0-0.2,0c-0.1,0-0.1,0-0.1,0
		c-0.5,0.3-1,0.5-1.3,0.7c-0.2,0.1-0.3,0.2-0.5,0.2c-0.4,0.4-0.9,0.7-1.2,0.9c-0.3,0.2-0.6,0.4-0.9,0.6c0.1,0,0.2-0.1,0.2-0.2
		c0,0,0.1-0.1,0.1-0.1c0,0,0,0,0,0c0,0-0.1,0-0.1,0c0,0-0.1,0-0.1,0c0,0-0.1,0-0.1,0c0,0.2,0,0.3,0,0.4c-0.3,0.2-0.7,0.4-1,0.5
		s-0.6,0.3-0.9,0.4c0,0.1,0,0.1,0,0.2c0,0.1-0.1,0.1-0.1,0.1l-0.6,0.2c-0.3,0.1-0.7,0.3-1.3,0.5c-0.6,0.3-1.2,0.4-1.9,0.5
		c-0.2,0-0.4-0.1-0.4-0.3c-0.1-0.3-0.2-0.6-0.1-0.9c0-0.4,0.1-0.7,0.3-1c0.1-0.1,0.2-0.3,0.2-0.4s0.2-0.3,0.2-0.5c0,0,0-0.1,0-0.2
		s0.1-0.3,0.1-0.5c0-0.1,0.1-0.2,0.1-0.3c0.1-0.1,0.2-0.2,0.3-0.2c0.1-0.3,0.3-0.6,0.5-0.8c0.3-0.4,0.6-0.7,0.9-1
		c0.3-0.3,0.6-0.5,0.9-0.8s0.6-0.5,0.9-0.8c0-0.1,0-0.2,0.1-0.4c0-0.2,0.1-0.3,0.1-0.5c0-0.1,0.1-0.3,0.1-0.4c0,0,0,0,0,0
		c0-0.1-0.1-0.2-0.1-0.3c-0.1,0-0.3,0-0.4-0.1c-0.1,0-0.2-0.1-0.3-0.2c0,0-0.1,0-0.1-0.1c-0.2,0-0.5,0.2-0.9,0.6
		c-0.5,0.5-1,1.1-1.4,1.7c-0.5,0.7-0.9,1.2-1.2,1.7c-0.2,0.4-0.5,0.8-0.6,1.2c-0.2,0.2-0.4,0.4-0.5,0.6c-0.1,0.1-0.2,0.3-0.2,0.4
		c-0.1,0.1-0.2,0.3-0.3,0.4c-0.1,0.2-0.3,0.5-0.4,0.8c-0.1,0.3-0.3,0.5-0.4,0.8c-0.1,0.2-0.1,0.3-0.1,0.5c0,0.3,0.1,0.5,0.2,0.8
		c0.1,0.3,0.3,0.6,0.5,0.9c0.2,0.3,0.4,0.5,0.7,0.7c0.2,0.1,0.4,0.2,0.7,0.2c0.2,0,0.4,0,0.7-0.1c0.3,0,0.5-0.1,0.8-0.2
		c0.2,0,0.4-0.1,0.6-0.1c0.2,0,0.4-0.1,0.6-0.2c0.3-0.1,0.7-0.3,1.2-0.6s0.9-0.5,1.2-0.7s0.5-0.3,0.6-0.4c0.2-0.2,0.3-0.4,0.4-0.6
		c0.3,0,0.5,0,0.7-0.1c0.2,0,0.3-0.1,0.5-0.2c0.4-0.2,0.8-0.4,1.1-0.6c0.4-0.2,0.7-0.5,1-0.7c0.4-0.3,0.8-0.7,1.1-1.1
		C136.2,46.1,136.3,45.8,136.4,45.4"/>
	<path id="Path_1490" class="st14" d="M142.2,50.7c0.2-0.2,0.4-0.4,0.6-0.6c0.3-0.3,0.6-0.6,1-0.9c0.3-0.3,0.6-0.5,0.9-0.8
		c0.2-0.2,0.4-0.5,0.6-0.7l-0.2,0c-0.1,0-0.3,0-0.4,0.1c-0.2,0.1-0.3,0.1-0.4,0.2c-0.1,0.1-0.2,0.1-0.3,0.1c0,0-0.1,0-0.1,0
		c0,0,0,0,0,0c0,0,0,0,0,0c0,0-0.1,0-0.1,0c-0.3,0-0.5,0.2-0.8,0.4c-0.5,0.3-0.9,0.7-1.3,1.1c0,0-0.1,0-0.1,0c0,0,0,0,0,0
		c0,0,0,0,0,0c0,0-0.1,0-0.1,0c-0.2,0-0.4,0.1-0.6,0.2c-0.3,0.1-0.8,0.3-1.4,0.6c-0.6,0.3-1.1,0.5-1.4,0.6c-0.2,0.1-0.4,0.2-0.7,0.2
		c-0.3,0-0.6-0.4-0.8-1.3c-0.1-0.5-0.2-0.9-0.3-1.2c0-0.2-0.1-0.3-0.2-0.5c0.1-0.1,0.2-0.1,0.3-0.1h0.1c0,0,0-0.1,0-0.1
		c0,0,0-0.1,0-0.1c0-0.1,0-0.2,0-0.3c0-0.1,0.1-0.2,0.1-0.3c0-0.5,0.1-0.9,0.2-1.4c0.1-0.3,0.2-0.5,0.4-0.6c0-0.1-0.1-0.1-0.1-0.2
		c0-0.1,0-0.1,0-0.2c0-0.2,0.1-0.4,0.2-0.6c0.1-0.3,0.3-0.5,0.5-0.8c0.2-0.2,0.3-0.5,0.5-0.8c0.1-0.2,0.2-0.4,0.2-0.6
		c0-0.1,0-0.2,0-0.3c0-0.1-0.1-0.2-0.1-0.3c0.3-0.3,0.5-0.7,0.7-1.1c0-0.3,0.1-0.5,0.2-0.8c0.2-0.3,0.4-0.5,0.7-0.7
		c0-0.2,0.1-0.4,0.1-0.6c0-0.2,0.1-0.4,0.1-0.6c0.1-0.2,0.2-0.4,0.4-0.5c0.2-0.2,0.4-0.3,0.6-0.4c-0.1-0.1-0.1-0.2-0.1-0.3
		c0-0.2,0.1-0.3,0.2-0.5c0.1-0.2,0.3-0.5,0.5-0.9c0,0,0-0.1,0-0.1c0,0,0-0.1,0-0.1c0-0.2,0.1-0.4,0.3-0.6c0.3-0.3,0.6-0.6,0.9-0.9
		c0.1-0.1,0.2-0.3,0.3-0.5c0.1-0.3,0.2-0.5,0.3-0.8c0.1-0.3,0.2-0.6,0.3-0.8c0-0.1,0.1-0.3,0.2-0.4c0.2-0.6,0.5-0.9,0.9-0.9
		c0-0.2,0-0.4,0.1-0.5s0-0.3,0.1-0.4c-0.1-0.1-0.2-0.1-0.3-0.2c-0.1-0.1-0.3-0.1-0.5-0.2c-0.1-0.1-0.2-0.1-0.4-0.1
		c-0.5-0.1-1,0.2-1.2,0.8c-0.1,0.4-0.3,0.8-0.5,1.2c-0.1,0.3-0.3,0.6-0.5,0.8c0.1,0.1,0.2,0.1,0.3,0.2c0.1,0.1,0.2,0.2,0.3,0.3
		l-0.2,0.2c-0.1,0-0.1,0-0.2,0c-0.1,0-0.1-0.1-0.2-0.1c0,0.1-0.1,0.1-0.1,0.2c-0.1,0.1-0.2,0.2-0.3,0.4c-0.1,0.1-0.2,0.3-0.3,0.4
		c-0.1,0.1-0.1,0.2-0.1,0.3c0,0.1,0.1,0.2,0.1,0.2c0.1,0.1,0.2,0.1,0.2,0.2c0.1,0,0.1,0.1,0.1,0.1c-0.2,0.1-0.3,0.3-0.5,0.4
		s-0.2,0.2-0.3,0.3c0,0-0.1-0.1-0.1-0.1c0,0-0.1,0-0.1,0c0,0.1,0,0.1,0,0.2c0,0.1-0.1,0.1-0.1,0.2c0.2,0,0.3,0.1,0.5,0.2
		c-0.2,0.2-0.4,0.4-0.5,0.6c-0.2,0.3-0.4,0.6-0.5,0.8c-0.2,0.4-0.4,0.7-0.5,0.9c-0.1,0.2-0.2,0.4-0.4,0.6c-0.1,0.1-0.1,0.2-0.1,0.3
		c0,0.1-0.1,0.3-0.2,0.4c-0.1,0.1-0.2,0.2-0.4,0.3c0.1,0.1,0.1,0.1,0.2,0.2c0,0.1,0.1,0.2,0.1,0.2c-0.1,0-0.1,0.1-0.2,0.1
		c0,0-0.1,0-0.1,0.1V39c0,0.1,0,0.3,0,0.4c0,0.2,0.1,0.4,0.1,0.6c-0.1,0.1-0.1,0.1-0.2,0.2c-0.1,0.1-0.2,0.2-0.3,0.4
		c-0.2,0.2-0.3,0.4-0.6,0.5c0,0.1-0.1,0.2-0.1,0.4c-0.1,0.2-0.1,0.5-0.2,1c-0.1,0.2-0.2,0.5-0.3,0.7c-0.1,0.1-0.3,0.2-0.4,0.2
		l-0.1,0c0.1,0.2,0.1,0.3,0.2,0.4c0,0.1,0.1,0.1,0.1,0.2v0c-0.1,0.1-0.2,0.2-0.3,0.3c-0.1,0-0.1,0.1-0.2,0.1c0.1,0.3,0,0.7-0.1,1
		c-0.1,0.3-0.4,0.6-0.6,0.9c0.1,0.1,0.2,0.2,0.2,0.3c0,0.1,0,0.2,0.1,0.4c0,0.1,0,0.3,0,0.4l-0.2-0.1c0,0.1,0.1,0.2,0.1,0.3
		c0,0.1,0,0.2,0,0.3c0,0.2-0.1,0.4-0.2,0.5c-0.1,0.2-0.2,0.4-0.3,0.6c-0.1,0.2-0.1,0.3-0.2,0.5c0,0.1,0,0.3,0.1,0.4
		c0,0.2,0.1,0.3,0.1,0.5c0,0.1,0.1,0.3,0.1,0.4c0.1,0,0.1-0.1,0.2-0.1c0.1,0,0.1,0,0.2,0c0.1,0,0.1,0,0.2,0.1
		c-0.1,0.2-0.3,0.3-0.5,0.5c0.1,0.2,0.3,0.3,0.4,0.5s0.3,0.3,0.4,0.5c0.4,0.4,0.7,0.7,0.9,0.7c0.1,0,0.2,0,0.3-0.1
		c0.1,0,0.2-0.1,0.3-0.1c0.1,0,0.1-0.1,0.2-0.1c0,0,0.1,0,0.1,0c0,0,0,0,0,0.1l-0.1,0.2l0.3-0.3c0,0.1,0.1,0.1,0.1,0.1
		c0.1,0,0.2,0,0.3,0c0.4,0,0.8-0.1,1.1-0.3c0.5-0.2,0.9-0.5,1.3-0.9c0,0,0.1,0.1,0.1,0.1c0.1,0,0.1,0,0.2,0h0.1c0-0.1,0-0.2,0.1-0.3
		c0-0.1,0.1-0.2,0.2-0.3c0-0.1,0.1-0.1,0.2-0.2c0.2,0,0.4,0,0.5,0C142,50.6,142.1,50.7,142.2,50.7 M162.4,45.4
		c-0.2,0.3-0.4,0.6-0.6,0.9c-0.3,0.3-0.5,0.6-0.8,0.9c-0.3,0.3-0.6,0.5-0.8,0.8c-0.3,0.3-0.6,0.5-0.8,0.8c0,0.2,0,0.3-0.1,0.5
		c0,0.1-0.1,0.2-0.2,0.1h-0.1c0-0.1,0-0.1-0.1-0.1c-0.1,0-0.2,0.1-0.3,0.1c-0.2,0.1-0.4,0.2-0.6,0.4c-0.3,0.2-0.5,0.3-0.6,0.4
		c-0.1,0.1-0.2,0.1-0.3,0.2v0.3c-0.9,0.3-1.6,0.6-2,0.8s-0.6,0.3-0.6,0.3c-0.4,0-0.8-0.3-1-0.7c-0.2-0.7-0.3-1.4-0.3-2.1v-0.4
		l-0.2-0.3c0.1-0.1,0.1-0.1,0.2-0.1l0.2,0c0-0.1,0-0.3-0.1-0.4c0-0.1,0-0.2-0.1-0.3c0,0.1-0.1,0.2-0.2,0.3c0,0.1-0.1,0.1-0.1,0.1
		l-0.1-0.6c0.1-0.1,0.3-0.2,0.4-0.2c0.1-0.1,0.2-0.1,0.3-0.1c0.1-1.1,0.4-2.3,0.8-3.4c0.4-1.1,0.8-2.2,1.4-3.2
		c0.2-0.3,0.3-0.6,0.5-0.8s0.3-0.4,0.4-0.6c0.1-0.2,0.2-0.4,0.2-0.7c0.1-0.2,0.2-0.4,0.3-0.6c0.1-0.2,0.3-0.3,0.5-0.3
		c0.3-0.4,0.6-0.7,0.8-1c0.2-0.3,0.4-0.6,0.6-0.8c0.4-0.7,0.8-1.3,1-1.7c0.2-0.2,0.3-0.5,0.3-0.8c0-0.3-0.1-0.6-0.3-0.7
		c-0.2-0.2-0.5-0.3-0.8-0.3c-0.4,0-0.7,0.1-1,0.4c-0.4,0.3-0.7,0.7-1,1.1c-0.2,0.4-0.4,0.8-0.7,1.1s-0.4,0.8-0.7,1.2
		c0,0,0.1,0.1,0.1,0.2c0,0.1,0,0.1,0,0.2c0,0.1,0,0.1-0.1,0.2c0,0.1-0.1,0.1-0.2,0.2c-0.1,0.1-0.2,0.1-0.2,0.2c0,0-0.1,0.1-0.1,0.1
		c0,0.3,0,0.6,0,0.8c0,0.1,0,0.3,0,0.4c0,0.2-0.1,0.3-0.2,0.5c-0.1,0.2-0.3,0.3-0.4,0.5l-0.1-0.1l0.1-0.3c-0.1,0.4-0.3,0.8-0.5,1.1
		c-0.1,0.2-0.3,0.4-0.5,0.6c-0.4-0.4-0.9-0.6-1.5-0.6c-0.3,0-0.7,0.1-0.9,0.3c-0.2,0.2-0.4,0.4-0.5,0.5c-0.1,0.1-0.1,0.1-0.2,0.1
		c-0.2,0.1-0.4,0.3-0.6,0.4s-0.3,0.2-0.5,0.3c-0.6,0.7-1.2,1.4-1.8,2.1c-0.2,0.2-0.4,0.3-0.6,0.5c-0.2,0.1-0.3,0.2-0.5,0.3
		c-0.1,0.2-0.3,0.4-0.6,0.8s-0.7,0.8-1.2,1.4c-0.4,0.4-0.7,0.8-1,1.2c-0.3,0.4-0.5,0.8-0.7,1.2c0,0.1-0.1,0.2-0.2,0.3
		c-0.1,0.1-0.2,0.3-0.3,0.4c-0.1,0.1-0.1,0.2-0.2,0.3c0,0.4,0.1,0.7,0.3,1c0.2,0.3,0.4,0.6,0.7,0.8c0.3,0.2,0.6,0.3,0.9,0.3
		c0.1,0,0.1-0.1,0.2-0.1c0.1-0.1,0.2-0.1,0.3-0.2c0.2-0.1,0.3-0.1,0.5-0.1h0.1c0.1-0.2,0.2-0.3,0.3-0.5c0.1-0.1,0.2-0.3,0.4-0.4
		c0.2-0.1,0.5-0.2,0.7-0.3c0.3-0.2,0.5-0.4,0.7-0.6c0.3-0.3,0.7-0.6,1.1-1c0.4-0.4,0.7-0.7,1-0.9c0.2-0.2,0.5-0.4,0.7-0.5
		c0.4-0.6,0.7-1.1,1.1-1.5c0.3-0.3,0.5-0.7,0.8-1c0,0.1,0.1,0.2,0.1,0.4c0,0.1,0,0.2,0,0.4c0,0.2-0.1,0.4-0.1,0.5
		c-0.1,0.2-0.2,0.4-0.2,0.6c-0.1,0.2-0.1,0.3-0.1,0.5c0,0.1,0,0.3,0.1,0.4c0,0.1,0,0.2,0.1,0.3c-0.1,0.2-0.2,0.4-0.2,0.6
		c0,0.2-0.1,0.3-0.1,0.5c0,0.8,0.2,1.6,0.6,2.4c0.5,1.1,1,1.6,1.5,1.6c0.1,0,0.1,0,0.2,0c0,0,0.1,0,0.2,0c0.1,0,0.2,0.1,0.2,0.1
		l0.3,0.2c0.1,0.1,0.2,0.1,0.2,0.1c0.4-0.1,0.7-0.2,1-0.5c0.2-0.1,0.4-0.3,0.6-0.4c0.1-0.1,0.2-0.2,0.2-0.3c0-0.1,0-0.1,0.1-0.1
		c0,0,0.1,0,0.1,0h0.1c0,0,0,0.1,0.1,0.1c0,0,0,0,0,0c0.2-0.1,0.3-0.2,0.4-0.3c0.2-0.2,0.6-0.5,1.1-0.9c0.5-0.4,0.9-0.8,1.1-1
		c0.2-0.2,0.4-0.3,0.6-0.4c0,0,0.1-0.1,0.2-0.2s0.3-0.4,0.5-0.7c0.1-0.2,0.3-0.4,0.4-0.5c0.1-0.1,0.2-0.2,0.3-0.3v-0.1
		c0-0.1,0-0.2,0-0.3c0,0,0-0.1,0-0.1h0.5c0,0,0-0.1,0-0.1c0,0,0-0.1,0-0.1c0-0.1,0-0.2,0.1-0.3c0.1-0.1,0.1-0.2,0.2-0.3L162.4,45.4z
		 M152.1,42.7c-0.1,0.3-0.2,0.6-0.3,0.8c-0.1,0.2-0.1,0.4-0.2,0.6c0,0.1-0.1,0.2-0.2,0.3c-0.1,0.1-0.2,0.2-0.3,0.3
		c-0.1,0.1-0.2,0.2-0.3,0.3c-0.1,0.1-0.1,0.2-0.1,0.3l0,0.2c-0.1,0-0.2,0.2-0.2,0.4l-0.4-0.1c-1,1.2-2.1,2.2-3.3,3.2
		c-0.6,0.6-1.3,0.9-2.1,1.1h-0.4c0.6-1.3,1.4-2.4,2.3-3.5v-0.1c0-0.1,0-0.2,0-0.3c0-0.1,0-0.1,0-0.1c0.1,0,0.1,0,0.2,0
		c0.1,0,0.2,0,0.3-0.1c0.1,0,0.1,0,0.2,0c0,0,0.1,0,0.1,0c0,0,0.1,0,0.1,0c0.2-0.4,0.4-0.7,0.5-1c0.2-0.3,0.3-0.6,0.4-0.8
		c1-0.5,1.8-0.8,2.4-1C151.2,42.8,151.6,42.7,152.1,42.7 M175.1,32.9c-0.1-0.1-0.2-0.2-0.2-0.3c-0.1-0.1-0.1-0.1-0.2-0.2
		c0,0.1-0.1,0.1-0.2,0.2c-0.3,0-0.6,0-0.9,0c-0.4,0-0.7,0-1.1,0.1c-0.4,0-0.9,0-1.3,0.1c-0.5,0-0.9,0.1-1.4,0.2
		c-0.5,0.1-1,0.4-1.4,0.7c-0.1,0-0.2,0-0.2,0c-0.1,0-0.2,0-0.3-0.1c-0.1,0-0.2,0-0.2,0c-0.2,0-0.4,0-0.6,0.1
		c-0.2,0.1-0.4,0.1-0.5,0.2c-0.1,0-0.1,0.1-0.2,0.1c0,0,0,0-0.1,0c0,0,0,0,0,0v0c0,0,0,0,0,0c0,0,0,0-0.1,0c-0.1,0-0.2,0.1-0.3,0.1
		c-0.1,0.1-0.2,0.2-0.3,0.3c-0.1,0.1-0.1,0.2-0.1,0.3v0.1c0,0,0.1,0.1,0.2,0.3s0.3,0.3,0.4,0.6c0.1,0.2,0.2,0.3,0.4,0.4
		c0.1,0.1,0.3,0.2,0.4,0.3c0.1-0.1,0.2-0.2,0.4-0.3s0.4-0.3,0.7-0.4c0.2-0.1,0.4-0.3,0.6-0.4c0.2-0.1,0.3-0.3,0.4-0.4
		c0.8-0.2,1.5-0.4,2.1-0.5s1.1-0.3,1.5-0.3c0.1,0,0.2-0.1,0.2-0.1c0.1-0.1,0.2-0.1,0.4-0.2c0.1,0,0.2-0.1,0.3-0.1c0.1,0,0.1,0,0.2,0
		c0,0,0.1,0,0.1,0l0-0.1l0.1-0.2l0.2,0.2c0.1-0.1,0.2-0.2,0.4-0.2c0.1,0,0.1,0,0.1,0c0.1,0,0.1,0.1,0.2,0.1
		C174.9,33.3,175,33.1,175.1,32.9 M172.8,45.4c0-0.1,0-0.1-0.1-0.1c-0.1,0-0.1,0-0.2,0c-0.1,0-0.1,0-0.1,0c-0.5,0.3-1,0.5-1.3,0.7
		c-0.2,0.1-0.3,0.2-0.5,0.2c-0.4,0.4-0.9,0.7-1.2,0.9c-0.3,0.2-0.6,0.4-0.9,0.6c0.1,0,0.2-0.1,0.2-0.2c0,0,0.1-0.1,0.1-0.1
		c0,0,0,0,0,0c0,0-0.1,0-0.1,0c0,0-0.1,0-0.1,0c0,0-0.1,0-0.1,0c0,0.2,0,0.3,0,0.4c-0.3,0.2-0.7,0.4-1,0.5s-0.6,0.3-0.9,0.4
		c0,0.1,0,0.1,0,0.2c0,0.1-0.1,0.1-0.1,0.1l-0.6,0.2c-0.3,0.1-0.7,0.3-1.3,0.5c-0.6,0.2-1.2,0.4-1.9,0.5c-0.2,0-0.4-0.1-0.4-0.3
		c-0.2-0.6-0.2-1.3,0.1-1.9c0.1-0.1,0.2-0.3,0.2-0.4s0.2-0.3,0.2-0.5c0,0,0-0.1,0-0.2s0.1-0.3,0.1-0.5c0-0.1,0.1-0.2,0.1-0.3
		c0.1-0.1,0.2-0.2,0.3-0.2c0.1-0.3,0.3-0.6,0.5-0.8c0.3-0.4,0.6-0.7,0.9-1c0.3-0.3,0.6-0.5,0.9-0.8s0.6-0.5,0.9-0.8
		c0-0.1,0-0.2,0.1-0.4c0-0.2,0.1-0.3,0.1-0.5c0-0.1,0.1-0.3,0.1-0.4c0,0,0,0,0,0s-0.1-0.2-0.1-0.3c-0.1,0-0.3,0-0.4-0.1
		c-0.1,0-0.2-0.1-0.3-0.2c0,0-0.1,0-0.1-0.1c-0.2,0-0.5,0.2-0.9,0.6c-0.5,0.5-1,1.1-1.4,1.7c-0.5,0.7-0.9,1.2-1.2,1.7
		c-0.2,0.4-0.5,0.8-0.6,1.2c-0.2,0.2-0.4,0.4-0.5,0.6c-0.1,0.1-0.1,0.3-0.2,0.4c-0.1,0.1-0.2,0.3-0.3,0.4c-0.1,0.2-0.3,0.5-0.4,0.8
		c-0.1,0.3-0.3,0.5-0.4,0.8c-0.1,0.2-0.1,0.3-0.1,0.5c0,0.3,0.1,0.5,0.2,0.8c0.1,0.3,0.3,0.6,0.5,0.9c0.2,0.3,0.4,0.5,0.7,0.7
		c0.2,0.1,0.4,0.2,0.7,0.2c0.2,0,0.4,0,0.7-0.1c0.3,0,0.5-0.1,0.8-0.2c0.2,0,0.4-0.1,0.6-0.1c0.2,0,0.4-0.1,0.6-0.2
		c0.3-0.1,0.7-0.3,1.2-0.6s0.9-0.5,1.2-0.7s0.5-0.3,0.6-0.4c0.2-0.2,0.3-0.4,0.4-0.6c0.3,0,0.5,0,0.7-0.1c0.2,0,0.3-0.1,0.5-0.2
		c0.4-0.2,0.8-0.4,1.1-0.6c0.4-0.2,0.7-0.5,1-0.7c0.4-0.3,0.8-0.7,1.1-1.1C172.6,46.1,172.7,45.8,172.8,45.4 M187.7,48.9
		c-0.1,0.1-0.1,0.2-0.2,0.3c0,0.1-0.1,0.2-0.1,0.3c-0.3,0-0.6,0-0.8,0.1c-0.3,0.1-0.6,0.3-0.9,0.5c-0.5,0.4-0.9,0.7-1.1,0.9
		c-0.1,0.1-0.3,0.2-0.4,0.3c0-0.1-0.1-0.1-0.1-0.2c0,0-0.1-0.1-0.1-0.1c0,0-0.1,0-0.3,0.1l-0.9,0.4c-0.4,0.2-0.7,0.3-1.1,0.4
		c-0.3,0.1-0.6,0.1-0.9,0.1c-0.5,0-1-0.3-1.3-1c-0.1-0.3-0.3-0.6-0.4-0.9c-0.1-0.3-0.1-0.6-0.1-0.9c0-0.1,0-0.3,0.1-0.4
		c0-0.2,0.1-0.4,0.2-0.6c0.1-0.2,0.1-0.4,0.2-0.6c0-0.2,0.1-0.3,0-0.5v-0.2c0.4-0.7,0.8-1.4,1.1-2c0.3-0.5,0.5-1,0.7-1.6
		c0.1,0,0.1-0.1,0.2-0.1c0.1,0,0.1-0.1,0.2-0.1c0.1-0.3,0.2-0.6,0.3-0.9s0.2-0.5,0.3-0.8c-0.1-0.1-0.1-0.1-0.2-0.1
		c-0.1-0.1-0.3-0.1-0.5-0.2c-0.2-0.1-0.4-0.1-0.6-0.2c-0.1,0-0.2,0-0.3-0.1c-0.1,0.1-0.2,0.1-0.3,0.2c-0.2,0.1-0.4,0.4-0.7,0.6
		s-0.5,0.5-0.7,0.7c-0.1,0.1-0.3,0.2-0.4,0.3c0,0.1,0,0.2,0,0.3c0,0.1,0,0.1,0,0.2c-0.3,0-0.6,0.2-0.8,0.3c-0.4,0.3-0.8,0.6-1.1,0.9
		c-0.3,0.3-0.6,0.6-0.8,0.9c-0.3,0.3-0.5,0.6-0.8,0.9c-0.1,0-0.3,0.1-0.4,0.2c-0.1,0.1-0.3,0.2-0.4,0.3c-0.2,0.1-0.4,0.1-0.5,0.1
		c0,0,0,0,0,0c0,0,0,0,0,0c0.1-0.3,0.2-0.5,0.3-0.8c0.2-0.5,0.5-1.1,0.9-2c0.4-0.9,0.7-1.5,0.9-2c0.1-0.2,0.2-0.5,0.3-0.8
		c0-0.2-0.1-0.4-0.2-0.6c-0.1-0.2-0.3-0.3-0.5-0.4c-0.2-0.1-0.4-0.1-0.6-0.1c-0.1,0-0.1,0-0.2,0.1c-0.1,0.1-0.2,0.1-0.2,0.2
		c-0.1,0.2-0.1,0.4-0.2,0.6c0,0.2,0,0.3-0.1,0.5v0.2c-0.4,0.7-0.8,1.6-1.2,2.7s-0.9,2.2-1.4,3.6c0,0,0.1,0,0.1,0c0,0,0,0.1,0,0.1
		c-0.4,0.3-0.7,0.7-1,1.1c-0.2,0.3-0.3,0.6-0.3,0.9c0,0.2,0.1,0.3,0.2,0.5c0.1,0.2,0.2,0.3,0.3,0.5c0.1,0.1,0.2,0.2,0.4,0.2
		c0.1,0,0.1,0,0.2,0c0.1,0,0.2,0,0.3,0c0.1,0,0.1,0,0.2,0c0.2,0,0.6-0.3,1.2-0.9s1.5-1.5,2.6-2.7l-0.2-0.1c0.1-0.1,0.1-0.2,0.2-0.4
		c0,0.1,0.1,0.1,0.2,0.1c0,0,0.2-0.1,0.4-0.3s0.5-0.5,0.9-0.9s0.7-0.7,0.9-0.9s0.4-0.3,0.4-0.3c-0.1,0.3-0.2,0.7-0.3,1
		s-0.2,0.7-0.3,1c-0.1,0.4-0.2,0.8-0.3,1.2c-0.1,0.3-0.1,0.6-0.1,0.9c0,0.6,0.1,1.2,0.2,1.7c0.1,0.5,0.3,1,0.5,1.5
		c0.3,0.5,0.6,0.9,1.1,1.2c0.4,0.3,1,0.4,1.5,0.4c0.2,0,0.5,0,0.7-0.1c0.3-0.1,0.6-0.1,1-0.3c0.5-0.2,1.1-0.4,1.7-0.5
		c0-0.2,0.1-0.3,0.2-0.4c0.2-0.2,0.4-0.3,0.7-0.4c0.2-0.1,0.4-0.2,0.6-0.3s0.4-0.2,0.6-0.3c0.6-0.8,1.2-1.4,1.6-1.9
		c0.2-0.3,0.5-0.6,0.8-0.8L187.7,48.9z M175.3,46.1l-0.1-0.3l0.1-0.1l0.2,0.3H175.3z M175.1,46h0.2v0.4h-0.2V46z"/>
	<path id="Path_1491" class="st14" d="M198.8,39.4c0-0.1-0.1-0.3-0.2-0.3c-0.1-0.1-0.2-0.2-0.4-0.3c-0.2-0.1-0.3-0.2-0.5-0.2
		c-0.1,0-0.3-0.1-0.4-0.1c-0.1,0-0.2,0-0.3,0.1c-0.1,0.1-0.3,0.1-0.5,0.3c-0.2,0.1-0.4,0.2-0.5,0.3s-0.2,0.1-0.2,0.1
		c-0.8,0.3-1.5,0.7-2.2,1.1c-0.4,0.3-0.7,0.5-0.9,0.7s-0.5,0.4-0.6,0.5c0,0.2,0,0.3-0.1,0.5c-0.1,0.2-0.2,0.3-0.3,0.4
		c-0.1-0.1-0.2-0.1-0.2-0.1c-0.1,0-0.2,0-0.3,0c0,0,0,0.1,0,0.1c0,0,0,0.1,0,0.1c0,0.1-0.1,0.2-0.2,0.3c-0.2,0.1-0.4,0.3-0.6,0.4
		c-0.2,0.1-0.4,0.2-0.6,0.4c-0.1,0.1-0.2,0.3-0.2,0.5c-0.7,0.4-1.2,0.7-1.6,0.9c-0.4,0.3-0.6,0.4-0.9,0.6c-0.1,0.1-0.3,0.2-0.4,0.2
		c0.1,0,0.2,0,0.3,0c0.1,0,0.1,0.1,0.2,0.1c0,0.1-0.1,0.2-0.2,0.3c0,0-0.1,0-0.1-0.1c0,0-0.1,0-0.2-0.1c-0.1,0-0.1,0.1-0.2,0.2
		s-0.1,0.2-0.2,0.3c0,0.1-0.1,0.1-0.1,0.2c-0.4,0.3-0.8,0.6-1.2,0.9s-0.8,0.7-1.2,1.1c-0.1,0.3-0.2,0.6-0.4,0.9
		c-0.2,0.3-0.4,0.5-0.6,0.8c-0.2,0.2-0.3,0.4-0.4,0.7c-0.1,0.2-0.2,0.5-0.1,0.8c0,0.1,0.1,0.2,0.1,0.2c0.1,0.1,0.2,0.2,0.2,0.3
		c0.1,0,0.1,0.1,0.1,0.2c0,0.1,0.1,0.2,0.1,0.3c0,0.1,0.1,0.2,0.1,0.3c0.1,0.1,0.2,0.2,0.3,0.2c0.2,0.1,0.4,0.1,0.6,0.1
		c0.9-0.1,1.8-0.4,2.6-0.9c0.4-0.3,0.8-0.5,1.2-0.8c0.4-0.3,0.8-0.5,1.2-0.8c-0.1,0-0.2-0.1-0.2-0.1c0,0,0,0,0,0c0,0,0,0,0,0h0.5
		c0-0.1,0.1-0.2,0.2-0.3c0.1-0.2,0.3-0.3,0.5-0.5c0.2-0.2,0.4-0.4,0.6-0.5c0.1-0.1,0.2-0.2,0.3-0.3c0,0.1,0.1,0.3,0.1,0.4
		c0,0.2,0,0.3,0,0.5c0,0.2,0,0.4-0.1,0.6c-0.1,0.2-0.2,0.4-0.3,0.6c-0.1,0.2-0.2,0.3-0.4,0.4c0.1,0,0.1,0.1,0.2,0.1
		c0,0.1,0,0.1,0,0.2c-0.1,0.2-0.2,0.4-0.3,0.5c-0.1,0.3-0.2,0.6-0.3,0.9c-0.1,0.3-0.2,0.6-0.3,0.9c-0.1,0.2-0.2,0.5-0.4,0.7
		c0.1,0.1,0.3,0.1,0.4,0.2c0.1,0.1,0.1,0.2,0.1,0.3c-0.2,0.2-0.5,0.3-0.7,0.4s-0.4,0.3-0.6,0.4c0,0.1,0.1,0.1,0.1,0.2
		c0,0.1,0,0.1,0,0.2c0,0.1,0,0.2-0.1,0.3c-0.1,0.2-0.1,0.3-0.2,0.5c-0.1,0.2-0.2,0.4-0.3,0.6c0,0.1-0.1,0.1-0.1,0.2l-0.2-0.3
		c0,0.1,0,0.2,0,0.3s0,0.3,0,0.4c-0.1,0.1-0.3,0.2-0.4,0.3c-0.1,0.1-0.3,0.2-0.4,0.3c-0.1,0.1-0.1,0.3-0.1,0.4c0.1,0,0.2,0,0.2,0.1
		c0.1,0,0.1,0.1,0.1,0.2c-0.2,0.2-0.5,0.3-0.6,0.5s-0.3,0.3-0.5,0.4l0,0.3c-0.1,0.1-0.2,0.2-0.3,0.3c-0.1,0.1-0.2,0.3-0.4,0.5
		c-0.1,0.2-0.2,0.4-0.4,0.5c-0.1,0.1-0.2,0.2-0.3,0.3c-0.3,0.3-0.9,0.7-1.6,1.3c-0.4,0.3-0.7,0.6-1,0.8c-0.2,0.2-0.5,0.4-0.8,0.5
		c-0.1,0.1-0.4,0.2-0.6,0.3s-0.6,0.3-1,0.4c-0.4,0.2-0.8,0.3-1.1,0.4c-0.2,0.1-0.4,0.1-0.6,0.1c-0.8,0-1.5-0.2-2.2-0.5
		c-0.7-0.4-1.3-0.9-1.8-1.6c-0.5-0.6-0.9-1.3-1.2-2.1c-0.3-0.8-0.4-1.5-0.4-2.3c0-0.2,0-0.3,0-0.6c0-0.2,0-0.5,0.1-0.7
		c0-0.3,0-0.5,0.1-0.7c0-0.2,0-0.4,0-0.6s0-0.3,0-0.4c0-0.1,0-0.3,0-0.4c0.5-1,1-1.8,1.4-2.6c0.4-0.7,0.7-1.3,1-1.8
		c-0.1,0-0.2,0-0.4,0c-0.2-0.1-0.3-0.1-0.5-0.2c-0.3,0.4-0.6,0.7-0.8,1c-0.1,0.2-0.3,0.4-0.4,0.6c-0.2,0.2-0.4,0.4-0.6,0.6
		s-0.3,0.3-0.4,0.5l0.2,0.3c-0.2,0.1-0.3,0.3-0.4,0.5c-0.1,0.3-0.2,0.5-0.3,0.8c-0.1,0.3-0.1,0.5-0.2,0.8c0,0.2-0.1,0.5-0.1,0.7
		c0,0.1,0,0.1,0,0.2c0,0.1,0,0.1,0,0.2l0.2,0.2c0,0.2-0.1,0.3-0.1,0.5c0,0.2-0.1,0.3-0.1,0.5c0,0.2-0.1,0.3-0.2,0.5
		c-0.1,0.1-0.2,0.2-0.4,0.2c0.1,0,0.3,0,0.4,0.1c0.1,0.1,0.1,0.2,0.1,0.4c0,0.3-0.1,0.5-0.4,0.6c0.2,0.1,0.4,0.1,0.6,0.3
		c0.1,0.1,0.2,0.2,0.2,0.3c0,0.2-0.1,0.4-0.1,0.6c-0.1,0.3-0.3,0.5-0.4,0.8c0.1,0.1,0.2,0.2,0.3,0.3l0.1,0.1
		c0.1,0.3,0.2,0.5,0.3,0.8c0.1,0.2,0.3,0.4,0.5,0.6c0.2,0.1,0.3,0.3,0.5,0.5c0.1,0.1,0.2,0.2,0.2,0.4l-0.2,0.3
		c0.6,0.4,1.1,0.8,1.5,1s0.6,0.4,0.7,0.4l-0.1,0.3c0-0.1,0.1-0.1,0.2-0.1c0.1,0,0.2,0,0.3,0c0.3,0,0.6,0.1,0.9,0.3
		c0.2,0.1,0.4,0.2,0.5,0.2c0.1,0,0.2,0.1,0.3,0.1c0.2,0,0.3,0,0.6,0s0.5,0,0.7,0s0.5,0,0.7,0s0.4,0,0.6,0c0.2,0,0.4-0.1,0.6-0.1
		c0.2-0.1,0.4-0.3,0.6-0.5c0.3-0.3,0.5-0.5,0.7-0.6c0.1-0.1,0.2-0.2,0.4-0.3c0,0,0,0,0,0.1c0,0,0,0.1,0,0.1c0,0,0,0.1,0,0.1
		c0,0,0.1,0,0.1,0h0.4c0.2-0.3,0.5-0.6,0.8-0.8c0.3-0.2,0.5-0.3,0.6-0.4c0.1-0.1,0.2-0.2,0.3-0.3c0,0,0-0.1,0-0.1c0,0,0-0.1,0-0.1
		c0-0.2,0.1-0.3,0.2-0.5c0.1-0.2,0.3-0.3,0.5-0.4c0.2-0.1,0.4-0.1,0.6-0.2h0.1c0.3-0.5,0.6-1,0.9-1.4s0.5-0.7,0.7-1
		c-0.1,0-0.1,0-0.2,0c-0.1,0-0.1-0.1-0.1-0.1c0.1-0.1,0.2-0.2,0.4-0.3c0.1-0.1,0.2-0.1,0.3-0.1h0.1c0-0.3,0.1-0.5,0.3-0.7
		c0.2-0.3,0.5-0.5,0.8-0.7c0-0.2,0-0.3,0-0.5c0.1-0.2,0.2-0.4,0.3-0.6c0.2-0.2,0.3-0.4,0.4-0.6c0.1-0.1,0.1-0.2,0.2-0.4
		c0.2-0.5,0.4-1,0.7-1.5c0.1-0.3,0.2-0.6,0.3-0.8c0.1-0.2,0.1-0.4,0.1-0.5c0.1-0.1,0.1-0.2,0.2-0.4c0-0.1,0-0.2,0.1-0.2
		c0,0,0,0,0-0.1c0,0,0,0,0-0.1c0.1-0.1,0.1-0.1,0.2-0.2c0.1-0.1,0.2-0.1,0.2-0.2c0.1-0.1,0.2-0.3,0.2-0.5c0.1-0.2,0.1-0.5,0.1-0.7
		c0,0,0-0.1,0-0.1c0,0,0-0.1,0-0.1c0.6-1.1,1.2-2.2,1.7-3.4c0.3-0.8,0.6-1.6,0.7-2.4c0-0.1,0.1-0.1,0.2-0.2c0.1-0.1,0.2-0.2,0.3-0.3
		c0.1-0.1,0.2-0.1,0.3-0.2c0.1-0.1,0.1-0.1,0.1-0.2c0.1-0.3,0.1-0.5,0.2-0.7s0.1-0.4,0.1-0.5l0.3,0.1c0.1-0.3,0.2-0.6,0.4-0.9
		c0.2-0.3,0.4-0.6,0.7-0.8c0.3-0.2,0.5-0.5,0.8-0.7s0.5-0.5,0.8-0.7c0-0.1,0.1-0.3,0.1-0.4c0.1-0.2,0.1-0.3,0.2-0.5
		c0.1-0.2,0.1-0.3,0.2-0.5C198.7,39.7,198.8,39.6,198.8,39.4 M193.9,42.6c0,0.1-0.1,0.1-0.2,0.2c0,0-0.1,0.1-0.2,0.1l0.2,0.1
		c0,0.1-0.1,0.1-0.1,0.2c-0.1,0.1-0.2,0.2-0.3,0.4c-0.1,0.2-0.2,0.3-0.3,0.5c-0.1,0.2-0.1,0.4-0.1,0.6v0.2c-0.1,0.3-0.3,0.5-0.4,0.7
		c-0.1,0.2-0.1,0.4-0.2,0.6c-0.1,0.1-0.2,0.2-0.3,0.3c-0.1,0.1-0.3,0.3-0.6,0.6c-0.2,0.2-0.3,0.3-0.4,0.5c-0.1,0.1-0.1,0.3-0.1,0.4
		c-0.5,0.3-1,0.7-1.5,1s-1,0.7-1.5,1c-0.6,0.4-1.2,0.7-1.8,1c-0.5,0.2-1,0.3-1.5,0.3c0.1-0.3,0.1-0.5,0.2-0.8c0-0.2,0.1-0.4,0.1-0.5
		c0.2-0.2,0.4-0.4,0.6-0.5c0.2-0.3,0.5-0.6,0.9-1c0.2-0.3,0.5-0.6,0.8-0.9c0.2-0.2,0.5-0.4,0.7-0.5c0.2-0.3,0.4-0.5,0.6-0.8
		s0.4-0.6,0.7-0.8c0.3-0.3,0.6-0.5,0.9-0.7c0.3-0.2,0.6-0.2,0.9-0.2c0.1,0,0.1,0,0.2,0c0,0,0.1,0,0.1,0.1c0,0,0,0,0,0c0,0,0,0,0,0
		c0,0.1,0,0.1,0,0s0-0.2-0.1-0.3c0.1-0.1,0.3-0.2,0.4-0.3s0.3-0.2,0.4-0.3c0.1-0.1,0.3-0.3,0.4-0.4c0.1-0.1,0.1-0.3,0.1-0.4
		c0,0,0-0.1,0-0.1c0,0,0-0.1,0-0.1c0.3,0,0.5,0,0.5,0.1l0,0.1c0,0,0,0,0.1,0c0,0,0,0,0.1,0L193.9,42.6z M204.1,42.2
		c-0.5,0.4-1,0.8-1.4,1.2c-0.2,0.2-0.5,0.5-0.8,0.7c-0.2,0.2-0.4,0.3-0.7,0.4c0,0.1,0,0.3,0.1,0.4c0.1,0.1,0.2,0.1,0.3,0.1
		c0,0,0.1,0,0.1,0c0,0,0.1,0,0.1,0c0.1,0,0.1,0,0.1,0.1c0,0,0.1,0.1,0.1,0.1c0.1,0,0.1,0,0.2,0c0.1,0,0.2-0.1,0.3-0.1
		c0-0.3,0.1-0.5,0.1-0.6s0-0.1,0-0.1c0,0,0.1,0,0.1,0.1c0,0,0.1,0.1,0.1,0.1c0.1,0,0.1,0.1,0.2,0.1c0.1,0,0.3-0.1,0.4-0.1
		c0.2-0.1,0.3-0.3,0.5-0.4c0.1,0.1,0.1,0.1,0.2,0.2c0,0,0.1,0.1,0.1,0.2c0,0.3-0.1,0.5-0.2,0.7c-0.1,0.3-0.3,0.6-0.5,0.9
		c-0.2,0-0.4,0-0.6,0c-0.1,0-0.2,0-0.3,0c-0.1,0.1-0.2,0.2-0.3,0.2c-0.1,0.1-0.3,0.1-0.5,0.2c-0.1,0-0.3,0.1-0.4,0.1l-0.4,0.1
		c0.1,0.6,0,0.9-0.4,0.9c-0.1,0-0.1,0-0.2,0c0,0-0.1-0.1-0.1-0.1l0-0.1c-0.3,0.3-0.6,0.7-1,1c-0.3,0.3-0.6,0.7-0.8,1.1
		c-0.2,0.4-0.3,0.9-0.3,1.4c0,0.2,0,0.3,0.1,0.5c0,0.1,0.1,0.2,0.2,0.3c0.1,0.1,0.2,0.2,0.3,0.3c0.1,0.1,0.1,0.2,0.2,0.4
		c0.1,0,0.2,0.1,0.3,0.2c0.2,0.1,0.4,0.2,0.6,0.4c0.2,0.1,0.4,0.3,0.6,0.3c0.1,0.1,0.2,0.1,0.3,0.1c0.1,0,0.3,0,0.6-0.1
		s0.5-0.1,0.7-0.1c0.2,0,0.4-0.1,0.6-0.1c0.8-0.6,1.4-1.1,1.8-1.5c0.2-0.2,0.4-0.4,0.6-0.6v-0.5c-0.1,0-0.2,0-0.2,0
		c0,0-0.1-0.1-0.1-0.1c0.1,0,0.2-0.1,0.3-0.1s0.2-0.1,0.2-0.1c0-0.1,0-0.2,0-0.3c0-0.1,0-0.2,0-0.2c0,0,0,0,0-0.1c0,0,0,0,0-0.1
		c0.1,0.1,0.1,0.1,0.2,0.1c0.1,0,0.1,0.1,0.2,0.1c0-0.1,0-0.3,0.1-0.6s0.1-0.7,0.1-1.2c0-0.4,0.1-0.7,0.1-1c0-0.2,0.1-0.4,0.2-0.6
		c0.3,0,0.6-0.1,0.7-0.1c0.1,0,0.2,0,0.3-0.1c0.5-0.3,0.9-0.5,1.2-0.6c0.2-0.1,0.4-0.2,0.7-0.2c0.2,0,0.3,0,0.5,0.1
		c0-0.1,0-0.2,0-0.2c0,0,0-0.1,0.1-0.1c0.1,0.1,0.2,0.1,0.4,0.1c0.2,0,0.3,0,0.5,0c0.5-0.2,1.1-0.5,1.6-0.8c1.1-0.6,1.7-0.9,1.8-0.9
		V43l-7.7,1.8c-0.1-0.2-0.1-0.3-0.2-0.5c0-0.2-0.1-0.4-0.1-0.7c0-0.3,0.1-0.6,0.2-0.9c0.1-0.4,0.3-0.7,0.5-1.1
		c0.3-0.5,0.5-0.9,0.7-1.2c0.1-0.2,0.2-0.4,0.3-0.7c0,0,0.1,0.1,0.1,0.1c0.1,0,0.1,0,0.2,0c0.1,0,0.2,0,0.2-0.1
		c0.1-0.1,0.2-0.2,0.4-0.3c0.1-0.1,0.2-0.2,0.3-0.4c0.1-0.1,0.1-0.2,0.1-0.3c0,0,0,0,0-0.1s-0.1-0.3-0.1-0.5c0,0-0.1-0.1-0.2-0.2
		s-0.3-0.2-0.5-0.3s-0.4-0.2-0.5-0.3c-0.1,0-0.2-0.1-0.2-0.1c-0.5,0-0.9,0.1-1.3,0.4c-0.4,0.3-0.8,0.8-1,1.3c0,0-0.1,0.2-0.3,0.7
		S204.3,41,204,42L204.1,42.2z M204.2,47.5c0,0.4-0.1,0.8-0.2,1.2c-0.2,0.5-0.4,0.9-0.7,1.3c-0.3,0.4-0.6,0.8-1,1.1
		c-0.3,0.2-0.7,0.4-1.1,0.4h-0.4c0-0.1,0-0.2-0.1-0.3c0-0.1-0.1-0.2-0.1-0.3c0-0.1,0-0.2,0.1-0.3c0-0.2,0.1-0.4,0.2-0.6
		c0.1-0.3,0.1-0.5,0.2-0.6s0.1-0.3,0.1-0.4c0.4-0.4,0.9-0.7,1.3-1c0.3-0.3,0.7-0.5,1.1-0.7c0.1,0,0.2-0.1,0.3-0.1
		c0.1,0,0.2,0,0.3-0.1C204.1,47.3,204.1,47.4,204.2,47.5C204.2,47.5,204.2,47.6,204.2,47.5"/>
</g>
</svg>
