<?xml version="1.0" encoding="utf-8"?>
<!-- Generator: Adobe Illustrator 24.3.0, SVG Export Plug-In . SVG Version: 6.00 Build 0)  -->
<svg version="1.1" id="Layer_1" xmlns="http://www.w3.org/2000/svg" xmlns:xlink="http://www.w3.org/1999/xlink" x="0px" y="0px"
	 viewBox="0 0 582.7 713.6" style="enable-background:new 0 0 582.7 713.6;" xml:space="preserve">
<style type="text/css">
	.st0{fill:#050606;}
	.st1{fill:#B5B4D5;}
	.st2{fill:#5A5EA1;}
	.st3{opacity:0.26;fill:#EEEEEE;enable-background:new    ;}
	.st4{clip-path:url(#SVGID_2_);}
	.st5{fill:url(#Path_1544_1_);}
	.st6{fill:#192870;}
	.st7{fill:#FFFFFF;}
	.st8{opacity:0.16;}
	.st9{fill:url(#Path_1546_1_);}
	.st10{fill:url(#Path_1547_1_);}
	.st11{fill:none;stroke:#FFFFFF;stroke-width:3;stroke-miterlimit:10;}
	.st12{fill:#5A5EA1;stroke:#5A5EA1;stroke-miterlimit:10;}
	.st13{fill:#2B2D62;}
	.st14{fill:#8A7565;}
	.st15{fill:none;stroke:#000000;}
</style>
<g id="Group_468" transform="translate(-616.92 -119.982)">
	<g id="Group_469">
		<g>
			<defs>
				<rect id="SVGID_1_" x="616.9" y="120" width="582.7" height="713.6"/>
			</defs>
			<clipPath id="SVGID_2_">
				<use xlink:href="#SVGID_1_"  style="overflow:visible;"/>
			</clipPath>
			<g id="Group_468-2" class="st4">
				
					<radialGradient id="Path_1544_1_" cx="1065.7161" cy="817.4783" r="0.5085" gradientTransform="matrix(790.8821 0 0 -776.1554 -841817.75 635064)" gradientUnits="userSpaceOnUse">
					<stop  offset="0" style="stop-color:#AEB0B3"/>
					<stop  offset="0.252" style="stop-color:#AFB1AE"/>
					<stop  offset="0.484" style="stop-color:#B2B5A4"/>
					<stop  offset="0.497" style="stop-color:#B2B6A6"/>
					<stop  offset="0.697" style="stop-color:#B2CCC2"/>
					<stop  offset="0.872" style="stop-color:#B2DAD3"/>
					<stop  offset="1" style="stop-color:#B3DFDA"/>
				</radialGradient>
				<path id="Path_1544" class="st5" d="M1038.1,178.2C815.4,178.2,635,355.3,635,573.8s180.5,395.6,403.1,395.6
					s403.1-177.1,403.1-395.6S1260.7,178.2,1038.1,178.2z M1038.1,874c-169,0-305.9-134.4-305.9-300.2s137-300.2,305.9-300.2
					S1344,408,1344,573.8S1207,874,1038.1,874z"/>
			</g>
		</g>
	</g>
	<g id="Group_470" transform="translate(608.036 1468.327) rotate(-90)">
		
			<ellipse id="Ellipse_67" transform="matrix(-2.535182e-06 -1 1 -2.535182e-06 685.7853 1132.4055)" class="st6" cx="909.1" cy="223.3" rx="3.5" ry="3.5"/>
		
			<ellipse id="Ellipse_68" transform="matrix(-2.535182e-06 -1 1 -2.535182e-06 718.4554 1181.0016)" class="st6" cx="949.7" cy="231.3" rx="3.5" ry="3.5"/>
		
			<ellipse id="Ellipse_69" transform="matrix(-2.535182e-06 -1 1 -2.535182e-06 740.1085 1234.6487)" class="st6" cx="987.4" cy="247.3" rx="3.5" ry="3.5"/>
		
			<ellipse id="Ellipse_70" transform="matrix(-2.535182e-06 -1 1 -2.535182e-06 753.2355 1292.1237)" class="st6" cx="1022.7" cy="269.4" rx="3.5" ry="3.5"/>
		
			<ellipse id="Ellipse_71" transform="matrix(-2.535182e-06 -1 1 -2.535182e-06 741.2318 1407.9338)" class="st6" cx="1074.6" cy="333.4" rx="3.5" ry="3.5"/>
		
			<ellipse id="Ellipse_72" transform="matrix(-2.535182e-06 -1 1 -2.535182e-06 716.3448 1460.885)" class="st6" cx="1088.6" cy="372.3" rx="3.5" ry="3.5"/>
		
			<ellipse id="Ellipse_73" transform="matrix(-2.535182e-06 -1 1 -2.535182e-06 679.1478 1512.176)" class="st6" cx="1095.7" cy="416.5" rx="3.5" ry="3.5"/>
		
			<ellipse id="Ellipse_74" transform="matrix(-2.535182e-06 -1 1 -2.535182e-06 630.6718 1551.7301)" class="st6" cx="1091.2" cy="460.5" rx="3.5" ry="3.5"/>
		
			<ellipse id="Ellipse_75" transform="matrix(-2.535182e-06 -1 1 -2.535182e-06 576.2438 1579.1924)" class="st6" cx="1077.7" cy="501.5" rx="3.5" ry="3.5"/>
		
			<ellipse id="Ellipse_76" transform="matrix(-2.535182e-06 -1 1 -2.535182e-06 519.4846 1594.4493)" class="st6" cx="1057" cy="537.5" rx="3.5" ry="3.5"/>
		
			<ellipse id="Ellipse_77" transform="matrix(-2.535182e-06 -1 1 -2.535182e-06 188.7779 1265.0714)" class="st6" cx="726.9" cy="538.1" rx="3.5" ry="3.5"/>
		
			<ellipse id="Ellipse_78" transform="matrix(-2.535182e-06 -1 1 -2.535182e-06 202.9618 1207.6572)" class="st6" cx="705.3" cy="502.3" rx="3.5" ry="3.5"/>
		
			<ellipse id="Ellipse_79" transform="matrix(-2.535182e-06 -1 1 -2.535182e-06 228.4117 1155.2472)" class="st6" cx="691.8" cy="463.4" rx="3.5" ry="3.5"/>
		
			<ellipse id="Ellipse_80" transform="matrix(-2.535182e-06 -1 1 -2.535182e-06 266.4587 1108.6161)" class="st6" cx="687.5" cy="421.1" rx="3.5" ry="3.5"/>
		
			<ellipse id="Ellipse_81" transform="matrix(-2.535182e-06 -1 1 -2.535182e-06 312.8448 1070.814)" class="st6" cx="691.8" cy="379" rx="3.5" ry="3.5"/>
		
			<ellipse id="Ellipse_82" transform="matrix(-2.535182e-06 -1 1 -2.535182e-06 364.7788 1044.4899)" class="st6" cx="704.6" cy="339.9" rx="3.5" ry="3.5"/>
		
			<ellipse id="Ellipse_83" transform="matrix(-2.535182e-06 -1 1 -2.535182e-06 423.0808 1030.2118)" class="st6" cx="726.6" cy="303.6" rx="3.5" ry="3.5"/>
		
			<ellipse id="Ellipse_84" transform="matrix(-2.535182e-06 -1 1 -2.535182e-06 482.1289 1027.2036)" class="st6" cx="754.7" cy="272.5" rx="3.5" ry="3.5"/>
		
			<ellipse id="Ellipse_85" transform="matrix(-2.535182e-06 -1 1 -2.535182e-06 539.413 1036.7756)" class="st6" cx="788.1" cy="248.7" rx="3.5" ry="3.5"/>
		
			<ellipse id="Ellipse_86" transform="matrix(-2.535182e-06 -1 1 -2.535182e-06 594.9881 1059.2065)" class="st6" cx="827.1" cy="232.1" rx="3.5" ry="3.5"/>
		
			<ellipse id="Ellipse_87" transform="matrix(-2.535182e-06 -1 1 -2.535182e-06 644.2812 1090.9016)" class="st6" cx="867.6" cy="223.3" rx="3.5" ry="3.5"/>
	</g>
</g>
</svg>
