<?xml version="1.0" encoding="utf-8"?>
<!-- Generator: Adobe Illustrator 24.3.0, SVG Export Plug-In . SVG Version: 6.00 Build 0)  -->
<svg version="1.1" id="Layer_1" xmlns="http://www.w3.org/2000/svg" xmlns:xlink="http://www.w3.org/1999/xlink" x="0px" y="0px"
	 viewBox="0 0 26.4 26.5" style="enable-background:new 0 0 26.4 26.5;" xml:space="preserve">
<style type="text/css">
	.st0{fill:#050606;}
	.st1{fill:#B5B4D5;}
	.st2{fill:#5A5EA1;}
	.st3{opacity:0.26;fill:#EEEEEE;enable-background:new    ;}
	.st4{clip-path:url(#SVGID_2_);}
	.st5{fill:url(#Path_1544_1_);}
	.st6{fill:#192870;}
	.st7{fill:#FFFFFF;}
	.st8{opacity:0.16;}
	.st9{fill:url(#Path_1546_1_);}
	.st10{fill:url(#Path_1547_1_);}
	.st11{fill:none;stroke:#FFFFFF;stroke-width:3;stroke-miterlimit:10;}
	.st12{fill:#5A5EA1;stroke:#5A5EA1;stroke-miterlimit:10;}
	.st13{fill:#2B2D62;}
	.st14{fill:#8A7565;}
	.st15{fill:none;stroke:#000000;}
</style>
<path id="facebook" d="M11.9,0.1C5,0.9-0.2,6.8,0,13.8c0.3,7.6,6.4,12.4,11.5,12.7v-9.9H9.4v-3.8h2.1c0-1.1,0-2.2,0-3.2
	c-0.1-1.6,0.8-3.1,2.2-3.7c1.9-0.8,3.8-0.3,5.7-0.4v3.9c-0.7-0.1-1.5,0-2.2,0c-0.4,0.1-1,0.4-1.1,0.8c-0.1,0.9-0.1,1.8-0.1,2.7h3.5
	c-0.2,1.3-0.3,2.5-0.4,3.8h-3v9.6c5.5-1,10.6-6.6,10.2-13.7C26,5.3,19.7-0.4,12.4,0C12.2,0,12.1,0,11.9,0.1z"/>
</svg>
