<?xml version="1.0" encoding="utf-8"?>
<!-- Generator: Adobe Illustrator 26.0.3, SVG Export Plug-In . SVG Version: 6.00 Build 0)  -->
<svg version="1.1" id="Layer_1" xmlns="http://www.w3.org/2000/svg" xmlns:xlink="http://www.w3.org/1999/xlink" x="0px" y="0px"
	 viewBox="0 0 50 50" style="enable-background:new 0 0 50 50;" xml:space="preserve">
<style type="text/css">
	.st0{fill:#050606;}
	.st1{fill:#B5B4D5;}
</style>
<g>
	<g id="Group_454">
		<g id="Group_450" transform="translate(9.851 9.003)">
			<path id="Path_1361" class="st0" d="M-1.94,14.9c-0.06,0-0.18,0-0.18-0.06c-0.06-0.06-0.12-0.12-0.06-0.24
				c0-0.06,0.06-0.12,0.06-0.18c0.06-0.06,0.12-0.06,0.18-0.06c0.06,0,0.18,0,0.18,0.06c0.06,0.06,0.06,0.12,0.06,0.18
				c0,0.06,0,0.18-0.06,0.24C-1.82,14.84-1.88,14.9-1.94,14.9"/>
			<path id="Path_1362" class="st0" d="M15.64-1.71c-0.18,0-0.43,0-0.61,0v-0.61c0.24,0,0.43,0,0.67,0L15.64-1.71z M13.2-1.64
				l-0.06-0.61c0.24,0,0.43-0.06,0.67-0.06l0.06,0.61C13.62-1.71,13.38-1.64,13.2-1.64 M19.36-1.22c-0.18-0.06-0.43-0.12-0.61-0.12
				l0.12-0.61c0.18,0.06,0.43,0.06,0.61,0.12L19.36-1.22z M9.53-0.91L9.35-1.52c0.18-0.06,0.43-0.12,0.61-0.18l0.18,0.61
				C9.9-1.03,9.72-0.97,9.53-0.91 M22.9,0c-0.18-0.06-0.37-0.18-0.55-0.24l0.24-0.55c0.18,0.06,0.37,0.18,0.61,0.24L22.9,0z
				 M6.05,0.55L5.75,0C5.93-0.12,6.11-0.18,6.3-0.3L6.6,0.25C6.42,0.37,6.24,0.43,6.05,0.55 M26.14,1.9
				c-0.18-0.12-0.31-0.24-0.49-0.37l0.37-0.49c0.18,0.12,0.37,0.24,0.55,0.37L26.14,1.9z M3,2.63L2.57,2.2
				c0.18-0.12,0.31-0.24,0.49-0.43l0.43,0.49C3.31,2.38,3.18,2.51,3,2.63 M28.82,4.4c-0.12-0.18-0.31-0.31-0.43-0.43l0.49-0.43
				c0.12,0.18,0.31,0.31,0.43,0.49L28.82,4.4z M0.44,5.32l-0.49-0.37c0.12-0.18,0.24-0.31,0.43-0.49l0.49,0.37
				C0.74,5.01,0.56,5.13,0.44,5.32 M31.02,7.39c-0.12-0.18-0.18-0.37-0.31-0.55l0.55-0.31c0.12,0.18,0.24,0.37,0.31,0.55L31.02,7.39
				z M-1.46,8.43l-0.55-0.24C-1.88,8-1.82,7.82-1.7,7.63l0.55,0.31C-1.27,8.06-1.39,8.25-1.46,8.43 M32.49,10.69
				c-0.06-0.18-0.12-0.37-0.18-0.55l0.61-0.18c0.06,0.18,0.12,0.37,0.18,0.61L32.49,10.69z M-2.74,11.85l-0.61-0.12
				c0.06-0.18,0.12-0.43,0.18-0.61l0.61,0.18C-2.62,11.42-2.68,11.66-2.74,11.85 M33.22,14.29c0-0.18-0.06-0.43-0.06-0.61l0.61-0.06
				c0,0.18,0.06,0.43,0.06,0.61L33.22,14.29z M-3.23,15.45h-0.61c0-0.18,0-0.43,0-0.61l0.61,0.06C-3.17,15.02-3.23,15.27-3.23,15.45
				 M33.83,17.95l-0.61-0.06c0-0.18,0.06-0.43,0.06-0.61l0.61,0.06C33.83,17.53,33.83,17.77,33.83,17.95 M-3.53,19.17
				c-0.06-0.18-0.06-0.43-0.12-0.61l0.61-0.06c0,0.18,0.06,0.43,0.12,0.61L-3.53,19.17z M32.98,21.62l-0.61-0.18
				c0.06-0.18,0.12-0.37,0.18-0.55l0.61,0.18C33.1,21.25,33.04,21.43,32.98,21.62 M-2.49,22.78c-0.06-0.18-0.18-0.37-0.24-0.61
				l0.61-0.18c0.06,0.18,0.12,0.37,0.24,0.55L-2.49,22.78z M31.39,25.1l-0.55-0.31c0.12-0.18,0.18-0.37,0.31-0.55l0.55,0.31
				C31.57,24.73,31.51,24.91,31.39,25.1 M-0.66,26.13c-0.12-0.18-0.24-0.37-0.37-0.55l0.55-0.31c0.12,0.18,0.24,0.37,0.37,0.49
				L-0.66,26.13z M29.13,28.09l-0.49-0.43c0.12-0.12,0.31-0.31,0.43-0.49l0.49,0.37C29.37,27.78,29.25,27.96,29.13,28.09 M1.84,29
				c-0.18-0.12-0.31-0.31-0.43-0.43l0.49-0.43c0.12,0.12,0.31,0.31,0.43,0.43L1.84,29z M26.2,30.65l-0.37-0.49
				c0.18-0.12,0.31-0.24,0.49-0.37l0.37,0.49C26.57,30.41,26.38,30.53,26.2,30.65 M4.89,31.32c-0.18-0.12-0.37-0.24-0.55-0.37
				l0.37-0.49c0.18,0.12,0.37,0.24,0.55,0.31L4.89,31.32z M22.9,32.54l-0.24-0.55c0.18-0.06,0.37-0.18,0.55-0.24l0.31,0.55
				C23.27,32.36,23.09,32.48,22.9,32.54 M8.37,33.03c-0.18-0.06-0.43-0.12-0.61-0.24l0.24-0.55c0.18,0.06,0.37,0.12,0.61,0.24
				L8.37,33.03z M19.18,33.76l-0.12-0.61c0.18-0.06,0.43-0.06,0.61-0.12l0.18,0.61C19.61,33.64,19.42,33.7,19.18,33.76 M12.1,34.01
				c-0.24-0.06-0.43-0.06-0.61-0.12l0.12-0.61c0.18,0.06,0.43,0.06,0.61,0.12L12.1,34.01z M15.33,34.19v-0.61c0.18,0,0.43,0,0.61,0
				v0.61C15.76,34.19,15.58,34.19,15.33,34.19"/>
		</g>
		<rect id="Rectangle_303" x="23.93" y="1.13" class="st0" width="1.89" height="6.04"/>
		<rect id="Rectangle_304" x="23.93" y="42.83" class="st0" width="1.89" height="6.04"/>
		<g id="Group_451" transform="translate(14.441 12.495)">
			<path id="Path_1363" class="st0" d="M-5.32,11.4c-0.06,0-0.18,0-0.18-0.06c-0.06-0.06-0.12-0.12-0.06-0.24
				c0-0.06,0-0.12,0.06-0.18c0.06-0.06,0.12-0.06,0.18-0.06c0.06,0,0.18,0,0.18,0.06c0.06,0.06,0.06,0.12,0.06,0.18
				c0,0.06,0,0.18-0.06,0.24C-5.2,11.4-5.26,11.4-5.32,11.4"/>
			<path id="Path_1364" class="st0" d="M-5.32,10.18c-0.06,0-0.18,0-0.18-0.06C-5.56,10.06-5.62,10-5.56,9.88
				c0-0.06,0-0.12,0.06-0.18c0.06-0.06,0.12-0.06,0.18-0.06c0.06,0,0.18,0,0.18,0.06c0.06,0.06,0.06,0.12,0.06,0.18
				s0,0.18-0.06,0.24C-5.2,10.18-5.26,10.18-5.32,10.18"/>
			<path id="Path_1365" class="st0" d="M-4.1,11.4c-0.06,0-0.18,0-0.18-0.06c-0.06-0.06-0.12-0.12-0.06-0.24
				c0-0.06,0-0.12,0.06-0.18s0.12-0.06,0.18-0.06s0.18,0,0.18,0.06c0.06,0.06,0.06,0.12,0.06,0.18c0,0.06,0,0.18-0.06,0.24
				C-3.98,11.4-4.04,11.4-4.1,11.4"/>
			<path id="Path_1366" class="st0" d="M-4.1,10.18c-0.06,0-0.18,0-0.18-0.06C-4.34,10.06-4.4,10-4.34,9.88c0-0.06,0-0.12,0.06-0.18
				c0.06-0.06,0.12-0.06,0.18-0.06s0.18,0,0.18,0.06c0.06,0.06,0.06,0.12,0.06,0.18s0,0.18-0.06,0.24
				C-3.98,10.18-4.04,10.18-4.1,10.18"/>
			<path id="Path_1367" class="st0" d="M-4.1,9.02c-0.06,0-0.18,0-0.18-0.06C-4.34,8.9-4.4,8.84-4.34,8.72c0-0.06,0-0.12,0.06-0.18
				c0.06-0.06,0.12-0.06,0.18-0.06s0.18,0,0.18,0.06c0.06,0.06,0.06,0.12,0.06,0.18s0,0.18-0.06,0.24C-3.98,8.96-4.04,9.02-4.1,9.02
				"/>
			<path id="Path_1368" class="st0" d="M-2.88,11.4c-0.06,0-0.18,0-0.18-0.06c-0.06-0.06-0.12-0.12-0.06-0.24
				c0-0.06,0.06-0.12,0.06-0.18c0.06-0.06,0.12-0.06,0.18-0.06c0.06,0,0.18,0,0.18,0.06c0.06,0.06,0.06,0.12,0.06,0.18
				c0,0.06,0,0.18-0.06,0.24C-2.76,11.4-2.82,11.4-2.88,11.4"/>
			<path id="Path_1369" class="st0" d="M-2.88,10.18c-0.06,0-0.18,0-0.18-0.06C-3.12,10.06-3.18,10-3.12,9.88
				c0-0.06,0.06-0.12,0.06-0.18C-3,9.63-2.94,9.63-2.88,9.63c0.06,0,0.18,0,0.18,0.06c0.06,0.06,0.06,0.12,0.06,0.18
				s0,0.18-0.06,0.24C-2.76,10.18-2.82,10.18-2.88,10.18"/>
			<path id="Path_1370" class="st0" d="M-2.88,9.02c-0.06,0-0.18,0-0.18-0.06C-3.12,8.9-3.18,8.84-3.12,8.72
				c0-0.06,0.06-0.12,0.06-0.18C-3,8.47-2.94,8.47-2.88,8.47c0.06,0,0.18,0,0.18,0.06c0.06,0.06,0.06,0.12,0.06,0.18
				s0,0.18-0.06,0.24C-2.76,8.96-2.82,9.02-2.88,9.02"/>
			<path id="Path_1371" class="st0" d="M-2.88,7.8c-0.06,0-0.18,0-0.18-0.06C-3.12,7.68-3.18,7.62-3.12,7.5
				c0-0.06,0.06-0.12,0.06-0.18C-3,7.25-2.94,7.25-2.88,7.25c0.06,0,0.18,0,0.18,0.06c0.06,0.06,0.06,0.12,0.06,0.18
				c0,0.06,0,0.18-0.06,0.24C-2.76,7.8-2.82,7.8-2.88,7.8"/>
			<path id="Path_1372" class="st0" d="M-1.66,11.4c-0.06,0-0.18,0-0.18-0.06c-0.06-0.06-0.12-0.12-0.06-0.24
				c0-0.06,0-0.12,0.06-0.18s0.12-0.06,0.18-0.06c0.06,0,0.18,0,0.18,0.06c0.06,0.06,0.06,0.12,0.06,0.18c0,0.06,0,0.18-0.06,0.24
				C-1.53,11.4-1.6,11.4-1.66,11.4"/>
			<path id="Path_1373" class="st0" d="M-1.66,10.18c-0.06,0-0.18,0-0.18-0.06C-1.9,10.06-1.96,10-1.9,9.88c0-0.06,0-0.12,0.06-0.18
				c0.06-0.06,0.12-0.06,0.18-0.06c0.06,0,0.18,0,0.18,0.06c0.06,0.06,0.06,0.12,0.06,0.18s0,0.18-0.06,0.24
				C-1.53,10.18-1.6,10.18-1.66,10.18"/>
			<path id="Path_1374" class="st0" d="M-1.66,9.02c-0.06,0-0.18,0-0.18-0.06C-1.9,8.9-1.96,8.84-1.9,8.72c0-0.06,0-0.12,0.06-0.18
				c0.06-0.06,0.12-0.06,0.18-0.06c0.06,0,0.18,0,0.18,0.06c0.06,0.06,0.06,0.12,0.06,0.18s0,0.18-0.06,0.24
				C-1.53,8.96-1.6,9.02-1.66,9.02"/>
			<path id="Path_1375" class="st0" d="M-1.66,7.8c-0.06,0-0.18,0-0.18-0.06C-1.9,7.68-1.96,7.62-1.9,7.5c0-0.06,0-0.12,0.06-0.18
				c0.06-0.06,0.12-0.06,0.18-0.06c0.06,0,0.18,0,0.18,0.06c0.06,0.06,0.06,0.12,0.06,0.18c0,0.06,0,0.18-0.06,0.24
				C-1.53,7.8-1.6,7.8-1.66,7.8"/>
			<path id="Path_1376" class="st0" d="M-1.66,6.64c-0.06,0-0.18,0-0.18-0.06C-1.9,6.52-1.96,6.46-1.9,6.34c0-0.06,0-0.12,0.06-0.18
				c0.06-0.06,0.12-0.06,0.18-0.06c0.06,0,0.18,0,0.18,0.06c0.06,0.06,0.06,0.12,0.06,0.18c0,0.06,0,0.18-0.06,0.24
				C-1.53,6.58-1.6,6.64-1.66,6.64"/>
			<path id="Path_1377" class="st0" d="M-0.44,11.4c-0.06,0-0.18,0-0.18-0.06c-0.06-0.06-0.12-0.12-0.06-0.24
				c0-0.06,0-0.12,0.06-0.18s0.12-0.06,0.18-0.06c0.06,0,0.18,0,0.18,0.06c0.06,0.06,0.06,0.12,0.06,0.18c0,0.06,0,0.18-0.06,0.24
				C-0.31,11.4-0.37,11.4-0.44,11.4"/>
			<path id="Path_1378" class="st0" d="M-0.44,10.18c-0.06,0-0.18,0-0.18-0.06C-0.68,10.06-0.74,10-0.68,9.88
				c0-0.06,0-0.12,0.06-0.18c0.06-0.06,0.12-0.06,0.18-0.06c0.06,0,0.18,0,0.18,0.06c0.06,0.06,0.06,0.12,0.06,0.18
				s0,0.18-0.06,0.24C-0.31,10.18-0.37,10.18-0.44,10.18"/>
			<path id="Path_1379" class="st0" d="M-0.44,9.02c-0.06,0-0.18,0-0.18-0.06C-0.68,8.9-0.74,8.84-0.68,8.72
				c0-0.06,0-0.12,0.06-0.18c0.06-0.06,0.12-0.06,0.18-0.06c0.06,0,0.18,0,0.18,0.06c0.06,0.06,0.06,0.12,0.06,0.18
				s0,0.18-0.06,0.24C-0.31,8.96-0.37,9.02-0.44,9.02"/>
			<path id="Path_1380" class="st0" d="M-0.44,7.8c-0.06,0-0.18,0-0.18-0.06C-0.68,7.68-0.74,7.62-0.68,7.5c0-0.06,0-0.12,0.06-0.18
				c0.06-0.06,0.12-0.06,0.18-0.06c0.06,0,0.18,0,0.18,0.06c0.06,0.06,0.06,0.12,0.06,0.18c0,0.06,0,0.18-0.06,0.24
				C-0.31,7.8-0.37,7.8-0.44,7.8"/>
			<path id="Path_1381" class="st0" d="M-0.44,6.64c-0.06,0-0.18,0-0.18-0.06c-0.06-0.06-0.12-0.12-0.06-0.24
				c0-0.06,0-0.12,0.06-0.18c0.06-0.06,0.12-0.06,0.18-0.06c0.06,0,0.18,0,0.18,0.06c0.06,0.06,0.06,0.12,0.06,0.18
				c0,0.06,0,0.18-0.06,0.24C-0.31,6.58-0.37,6.64-0.44,6.64"/>
			<path id="Path_1382" class="st0" d="M-0.44,5.42c-0.06,0-0.18,0-0.18-0.06C-0.68,5.3-0.74,5.24-0.68,5.11
				c0-0.06,0-0.12,0.06-0.18c0.06-0.06,0.12-0.06,0.18-0.06c0.06,0,0.18,0,0.18,0.06c0.06,0.06,0.06,0.12,0.06,0.18
				c0,0.06,0,0.18-0.06,0.24C-0.31,5.42-0.37,5.42-0.44,5.42"/>
			<path id="Path_1383" class="st0" d="M0.79,11.4c-0.06,0-0.18,0-0.18-0.06c-0.06-0.06-0.12-0.12-0.06-0.24
				c0-0.06,0.06-0.12,0.06-0.18c0.06-0.06,0.12-0.06,0.18-0.06c0.06,0,0.18,0,0.18,0.06c0.06,0.06,0.06,0.12,0.06,0.18
				c0,0.06,0,0.18-0.06,0.24C0.91,11.4,0.85,11.4,0.79,11.4"/>
			<path id="Path_1384" class="st0" d="M0.79,10.18c-0.06,0-0.18,0-0.18-0.06C0.54,10.06,0.48,10,0.54,9.88
				c0-0.06,0.06-0.12,0.06-0.18c0.06-0.06,0.12-0.06,0.18-0.06c0.06,0,0.18,0,0.18,0.06c0.06,0.06,0.06,0.12,0.06,0.18
				s0,0.18-0.06,0.24C0.91,10.18,0.85,10.18,0.79,10.18"/>
			<path id="Path_1385" class="st0" d="M0.79,9.02c-0.06,0-0.18,0-0.18-0.06C0.54,8.9,0.48,8.84,0.54,8.72
				c0-0.06,0.06-0.12,0.06-0.18c0.06-0.06,0.12-0.06,0.18-0.06c0.06,0,0.18,0,0.18,0.06c0.06,0.06,0.06,0.12,0.06,0.18
				s0,0.18-0.06,0.24C0.91,8.96,0.85,9.02,0.79,9.02"/>
			<path id="Path_1386" class="st0" d="M0.79,7.8c-0.06,0-0.18,0-0.18-0.06C0.54,7.68,0.48,7.62,0.54,7.5
				c0-0.06,0.06-0.12,0.06-0.18c0.06-0.06,0.12-0.06,0.18-0.06c0.06,0,0.18,0,0.18,0.06C1.03,7.37,1.03,7.43,1.03,7.5
				c0,0.06,0,0.18-0.06,0.24C0.91,7.8,0.85,7.8,0.79,7.8"/>
			<path id="Path_1387" class="st0" d="M0.79,6.64c-0.06,0-0.18,0-0.18-0.06C0.54,6.52,0.48,6.46,0.54,6.34
				c0-0.06,0.06-0.12,0.06-0.18c0.06-0.06,0.12-0.06,0.18-0.06c0.06,0,0.18,0,0.18,0.06c0.06,0.06,0.06,0.12,0.06,0.18
				c0,0.06,0,0.18-0.06,0.24C0.91,6.58,0.85,6.64,0.79,6.64"/>
			<path id="Path_1388" class="st0" d="M0.79,5.42c-0.06,0-0.18,0-0.18-0.06C0.54,5.3,0.48,5.24,0.54,5.11
				c0-0.06,0.06-0.12,0.06-0.18c0.06-0.06,0.12-0.06,0.18-0.06c0.06,0,0.18,0,0.18,0.06c0.06,0.06,0.06,0.12,0.06,0.18
				c0,0.06,0,0.18-0.06,0.24C0.91,5.42,0.85,5.42,0.79,5.42"/>
			<path id="Path_1389" class="st0" d="M0.79,4.2c-0.06,0-0.18,0-0.18-0.06C0.54,4.08,0.48,4.02,0.54,3.89
				c0-0.06,0.06-0.12,0.06-0.18c0.06-0.06,0.12-0.06,0.18-0.06c0.06,0,0.18,0,0.18,0.06c0.06,0.06,0.06,0.12,0.06,0.18
				c0,0.06,0,0.18-0.06,0.24C0.91,4.2,0.85,4.2,0.79,4.2"/>
			<path id="Path_1390" class="st0" d="M2.01,11.4c-0.06,0-0.18,0-0.18-0.06c-0.06-0.06-0.12-0.12-0.06-0.24
				c0-0.06,0.06-0.12,0.06-0.18c0.06-0.06,0.12-0.06,0.18-0.06c0.06,0,0.18,0,0.18,0.06c0.06,0.06,0.06,0.12,0.06,0.18
				c0,0.06,0,0.18-0.06,0.24C2.13,11.4,2.07,11.4,2.01,11.4"/>
			<path id="Path_1391" class="st0" d="M2.01,10.18c-0.06,0-0.18,0-0.18-0.06C1.76,10.06,1.7,10,1.76,9.88
				c0-0.06,0.06-0.12,0.06-0.18c0.06-0.06,0.12-0.06,0.18-0.06c0.06,0,0.18,0,0.18,0.06c0.06,0.06,0.06,0.12,0.06,0.18
				s0,0.18-0.06,0.24C2.13,10.18,2.07,10.18,2.01,10.18"/>
			<path id="Path_1392" class="st0" d="M2.01,9.02c-0.06,0-0.18,0-0.18-0.06C1.76,8.9,1.7,8.84,1.76,8.72
				c0-0.06,0.06-0.12,0.06-0.18c0.06-0.06,0.12-0.06,0.18-0.06c0.06,0,0.18,0,0.18,0.06c0.06,0.06,0.06,0.12,0.06,0.18
				s0,0.18-0.06,0.24C2.13,8.96,2.07,9.02,2.01,9.02"/>
			<path id="Path_1393" class="st0" d="M2.01,7.8c-0.06,0-0.18,0-0.18-0.06C1.76,7.68,1.7,7.62,1.76,7.5c0-0.06,0.06-0.12,0.06-0.18
				c0.06-0.06,0.12-0.06,0.18-0.06c0.06,0,0.18,0,0.18,0.06C2.25,7.37,2.25,7.43,2.25,7.5c0,0.06,0,0.18-0.06,0.24
				C2.13,7.8,2.07,7.8,2.01,7.8"/>
			<path id="Path_1394" class="st0" d="M2.01,6.64c-0.06,0-0.18,0-0.18-0.06C1.76,6.52,1.7,6.46,1.76,6.34
				c0-0.06,0.06-0.12,0.06-0.18c0.06-0.06,0.12-0.06,0.18-0.06c0.06,0,0.18,0,0.18,0.06c0.06,0.06,0.06,0.12,0.06,0.18
				c0,0.06,0,0.18-0.06,0.24C2.13,6.58,2.07,6.64,2.01,6.64"/>
			<path id="Path_1395" class="st0" d="M2.01,5.42c-0.06,0-0.18,0-0.18-0.06C1.76,5.3,1.7,5.24,1.76,5.11
				c0-0.06,0.06-0.12,0.06-0.18c0.06-0.06,0.12-0.06,0.18-0.06c0.06,0,0.18,0,0.18,0.06c0.06,0.06,0.06,0.12,0.06,0.18
				c0,0.06,0,0.18-0.06,0.24C2.13,5.42,2.07,5.42,2.01,5.42"/>
			<path id="Path_1396" class="st0" d="M2.01,4.2c-0.06,0-0.18,0-0.18-0.06C1.76,4.08,1.7,4.02,1.76,3.89
				c0-0.06,0.06-0.12,0.06-0.18c0.06-0.06,0.12-0.06,0.18-0.06c0.06,0,0.18,0,0.18,0.06c0.06,0.06,0.06,0.12,0.06,0.18
				c0,0.06,0,0.18-0.06,0.24C2.13,4.2,2.07,4.2,2.01,4.2"/>
			<path id="Path_1397" class="st0" d="M8.78-2.03c-0.24,0-0.43-0.06-0.61-0.24C7.99-2.46,7.93-2.64,7.93-2.88s0.06-0.43,0.24-0.61
				c0.18-0.18,0.37-0.24,0.61-0.24c0.24,0,0.43,0.06,0.61,0.24c0.18,0.18,0.24,0.37,0.24,0.61S9.58-2.39,9.39-2.27
				C9.21-2.09,9.03-2.03,8.78-2.03"/>
			<path id="Path_1398" class="st0" d="M8.54,1.02c-0.24,0-0.43-0.06-0.61-0.24C7.75,0.6,7.68,0.41,7.68,0.17s0.06-0.43,0.24-0.61
				c0.18-0.18,0.37-0.24,0.61-0.24c0.24,0,0.43,0.06,0.61,0.24c0.18,0.18,0.24,0.37,0.24,0.61S9.33,0.66,9.15,0.78
				C9.03,0.96,8.78,1.02,8.54,1.02"/>
			<path id="Path_1399" class="st0" d="M5.61,3.77c-0.31,0-0.55-0.12-0.79-0.31C4.57,3.28,4.45,2.98,4.51,2.67
				c0-0.31,0.12-0.55,0.31-0.79C5,1.7,5.3,1.57,5.61,1.57c0.31,0,0.61,0.12,0.79,0.31c0.24,0.18,0.31,0.49,0.31,0.79
				S6.59,3.28,6.4,3.47C6.22,3.65,5.91,3.77,5.61,3.77"/>
			<path id="Path_1400" class="st0" d="M2.13,6.52c-0.31,0-0.55-0.12-0.79-0.31S0.97,5.73,1.03,5.42c0-0.31,0.12-0.55,0.31-0.79
				c0.18-0.18,0.49-0.31,0.79-0.31s0.61,0.12,0.79,0.31c0.24,0.18,0.31,0.49,0.31,0.79c0,0.31-0.12,0.61-0.31,0.79
				C2.68,6.46,2.43,6.52,2.13,6.52"/>
			<path id="Path_1401" class="st0" d="M-0.25,10.43c-0.31,0-0.55-0.12-0.79-0.31s-0.37-0.49-0.31-0.79c0-0.31,0.12-0.55,0.31-0.79
				c0.18-0.18,0.49-0.31,0.79-0.31s0.61,0.12,0.79,0.31c0.24,0.18,0.31,0.49,0.31,0.79s-0.12,0.61-0.31,0.79
				C0.36,10.3,0.05,10.43-0.25,10.43"/>
			<path id="Path_1402" class="st0" d="M6.83,10.55c-0.31,0-0.55-0.12-0.79-0.31c-0.24-0.18-0.37-0.49-0.31-0.79
				c0-0.31,0.12-0.55,0.31-0.79c0.18-0.18,0.49-0.31,0.79-0.31c0.31,0,0.61,0.12,0.79,0.31c0.24,0.18,0.31,0.49,0.31,0.79
				s-0.12,0.61-0.31,0.79C7.44,10.49,7.13,10.55,6.83,10.55"/>
			<path id="Path_1403" class="st0" d="M2.01,3.04c-0.06,0-0.18,0-0.18-0.06C1.76,2.92,1.7,2.86,1.76,2.73
				c0-0.06,0.06-0.12,0.06-0.18c0.06-0.06,0.12-0.06,0.18-0.06c0.06,0,0.18,0,0.18,0.06c0.06,0.06,0.06,0.12,0.06,0.18
				c0,0.06,0,0.18-0.06,0.24C2.13,2.98,2.07,3.04,2.01,3.04"/>
			<path id="Path_1404" class="st0" d="M3.17,11.4c-0.06,0-0.18,0-0.18-0.06c-0.06-0.06-0.12-0.12-0.06-0.24
				c0-0.06,0-0.12,0.06-0.18c0.06-0.06,0.12-0.06,0.18-0.06c0.06,0,0.18,0,0.18,0.06c0.06,0.06,0.06,0.12,0.06,0.18
				c0,0.06,0,0.18-0.06,0.24C3.35,11.4,3.29,11.4,3.17,11.4"/>
			<path id="Path_1405" class="st0" d="M3.17,10.18c-0.06,0-0.18,0-0.18-0.06C2.92,10.06,2.86,10,2.92,9.88c0-0.06,0-0.12,0.06-0.18
				c0.06-0.06,0.12-0.06,0.18-0.06c0.06,0,0.18,0,0.18,0.06c0.06,0.06,0.06,0.12,0.06,0.18s0,0.18-0.06,0.24
				C3.35,10.18,3.29,10.18,3.17,10.18"/>
			<path id="Path_1406" class="st0" d="M3.17,9.02c-0.06,0-0.18,0-0.18-0.06C2.92,8.9,2.86,8.84,2.92,8.72c0-0.06,0-0.12,0.06-0.18
				c0.06-0.06,0.12-0.06,0.18-0.06c0.06,0,0.18,0,0.18,0.06c0.06,0.06,0.06,0.12,0.06,0.18s0,0.18-0.06,0.24
				C3.35,8.96,3.29,9.02,3.17,9.02"/>
			<path id="Path_1407" class="st0" d="M3.17,7.8c-0.06,0-0.18,0-0.18-0.06C2.92,7.68,2.86,7.62,2.92,7.5c0-0.06,0-0.12,0.06-0.18
				c0.06-0.06,0.12-0.06,0.18-0.06c0.06,0,0.18,0,0.18,0.06C3.41,7.37,3.41,7.43,3.41,7.5c0,0.06,0,0.18-0.06,0.24
				C3.35,7.8,3.29,7.8,3.17,7.8"/>
			<path id="Path_1408" class="st0" d="M3.17,6.64c-0.06,0-0.18,0-0.18-0.06C2.92,6.52,2.86,6.46,2.92,6.34c0-0.06,0-0.12,0.06-0.18
				c0.06-0.06,0.12-0.06,0.18-0.06c0.06,0,0.18,0,0.18,0.06c0.06,0.06,0.06,0.12,0.06,0.18c0,0.06,0,0.18-0.06,0.24
				C3.35,6.58,3.29,6.64,3.17,6.64"/>
			<path id="Path_1409" class="st0" d="M1.82,5.3c-0.06,0-0.18,0-0.18-0.06C1.58,5.18,1.52,5.11,1.58,4.99c0-0.06,0-0.12,0.06-0.18
				C1.7,4.75,1.76,4.75,1.82,4.75c0.06,0,0.18,0,0.18,0.06c0.06,0.06,0.06,0.12,0.06,0.18c0,0.06,0,0.18-0.06,0.24
				C2.01,5.3,1.95,5.3,1.82,5.3"/>
			<path id="Path_1410" class="st0" d="M3.17,4.2c-0.06,0-0.18,0-0.18-0.06C2.92,4.08,2.86,4.02,2.92,3.89c0-0.06,0-0.12,0.06-0.18
				c0.06-0.06,0.12-0.06,0.18-0.06c0.06,0,0.18,0,0.18,0.06c0.06,0.06,0.06,0.12,0.06,0.18c0,0.06,0,0.18-0.06,0.24
				C3.35,4.2,3.29,4.2,3.17,4.2"/>
			<path id="Path_1411" class="st0" d="M3.17,3.04c-0.06,0-0.18,0-0.18-0.06C2.92,2.92,2.86,2.86,2.92,2.73c0-0.06,0-0.12,0.06-0.18
				c0.06-0.06,0.12-0.06,0.18-0.06c0.06,0,0.18,0,0.18,0.06c0.06,0.06,0.06,0.12,0.06,0.18c0,0.06,0,0.18-0.06,0.24
				C3.35,2.98,3.29,3.04,3.17,3.04"/>
			<path id="Path_1412" class="st0" d="M3.17,1.82c-0.06,0-0.18,0-0.18-0.06C2.92,1.7,2.86,1.64,2.92,1.51c0-0.06,0-0.12,0.06-0.18
				c0.06-0.06,0.12-0.06,0.18-0.06c0.06,0,0.18,0,0.18,0.06c0.06,0.06,0.06,0.12,0.06,0.18c0,0.06,0,0.18-0.06,0.24
				C3.35,1.82,3.29,1.82,3.17,1.82"/>
			<path id="Path_1413" class="st0" d="M4.39,11.4c-0.06,0-0.18,0-0.18-0.06c-0.06-0.06-0.12-0.12-0.06-0.24
				c0-0.06,0.06-0.12,0.06-0.18c0.06-0.06,0.12-0.06,0.18-0.06c0.06,0,0.18,0,0.18,0.06c0.06,0.06,0.06,0.12,0.06,0.18
				c0,0.06,0,0.18-0.06,0.24C4.57,11.4,4.51,11.4,4.39,11.4"/>
			<path id="Path_1414" class="st0" d="M4.39,10.18c-0.06,0-0.18,0-0.18-0.06C4.14,10.06,4.08,10,4.14,9.88
				c0-0.06,0.06-0.12,0.06-0.18c0.06-0.06,0.12-0.06,0.18-0.06c0.06,0,0.18,0,0.18,0.06c0.06,0.06,0.06,0.12,0.06,0.18
				s0,0.18-0.06,0.24C4.57,10.18,4.51,10.18,4.39,10.18"/>
			<path id="Path_1415" class="st0" d="M4.39,9.02c-0.06,0-0.18,0-0.18-0.06C4.14,8.9,4.08,8.84,4.14,8.72
				c0-0.06,0.06-0.12,0.06-0.18c0.06-0.06,0.12-0.06,0.18-0.06c0.06,0,0.18,0,0.18,0.06c0.06,0.06,0.06,0.12,0.06,0.18
				s0,0.18-0.06,0.24C4.57,8.96,4.51,9.02,4.39,9.02"/>
			<path id="Path_1416" class="st0" d="M4.39,7.8c-0.06,0-0.18,0-0.18-0.06C4.14,7.68,4.08,7.62,4.14,7.5
				c0-0.06,0.06-0.12,0.06-0.18c0.06-0.06,0.12-0.06,0.18-0.06c0.06,0,0.18,0,0.18,0.06C4.63,7.37,4.63,7.43,4.63,7.5
				c0,0.06,0,0.18-0.06,0.24C4.57,7.8,4.51,7.8,4.39,7.8"/>
			<path id="Path_1417" class="st0" d="M4.39,6.64c-0.06,0-0.18,0-0.18-0.06C4.14,6.52,4.08,6.46,4.14,6.34
				c0-0.06,0.06-0.12,0.06-0.18c0.06-0.06,0.12-0.06,0.18-0.06c0.06,0,0.18,0,0.18,0.06c0.06,0.06,0.06,0.12,0.06,0.18
				c0,0.06,0,0.18-0.06,0.24C4.57,6.58,4.51,6.64,4.39,6.64"/>
			<path id="Path_1418" class="st0" d="M4.39,5.42c-0.06,0-0.18,0-0.18-0.06C4.14,5.3,4.08,5.24,4.14,5.11
				c0-0.06,0.06-0.12,0.06-0.18c0.06-0.06,0.12-0.06,0.18-0.06c0.06,0,0.18,0,0.18,0.06c0.06,0.06,0.06,0.12,0.06,0.18
				c0,0.06,0,0.18-0.06,0.24C4.57,5.42,4.51,5.42,4.39,5.42"/>
			<path id="Path_1419" class="st0" d="M4.39,4.2c-0.06,0-0.18,0-0.18-0.06C4.14,4.08,4.08,4.02,4.14,3.89
				c0-0.06,0.06-0.12,0.06-0.18c0.06-0.06,0.12-0.06,0.18-0.06c0.06,0,0.18,0,0.18,0.06c0.06,0.06,0.06,0.12,0.06,0.18
				c0,0.06,0,0.18-0.06,0.24C4.57,4.2,4.51,4.2,4.39,4.2"/>
			<path id="Path_1420" class="st0" d="M4.39,3.04c-0.06,0-0.18,0-0.18-0.06C4.14,2.92,4.08,2.86,4.14,2.73
				c0-0.06,0.06-0.12,0.06-0.18c0.06-0.06,0.12-0.06,0.18-0.06c0.06,0,0.18,0,0.18,0.06c0.06,0.06,0.06,0.12,0.06,0.18
				c0,0.06,0,0.18-0.06,0.24C4.57,2.98,4.51,3.04,4.39,3.04"/>
			<path id="Path_1421" class="st0" d="M4.39,1.82c-0.06,0-0.18,0-0.18-0.06C4.14,1.7,4.08,1.64,4.14,1.51
				c0-0.06,0.06-0.12,0.06-0.18c0.06-0.06,0.12-0.06,0.18-0.06c0.06,0,0.18,0,0.18,0.06c0.06,0.06,0.06,0.12,0.06,0.18
				c0,0.06,0,0.18-0.06,0.24C4.57,1.82,4.51,1.82,4.39,1.82"/>
			<path id="Path_1422" class="st0" d="M4.39,0.66c-0.06,0-0.18,0-0.18-0.06C4.14,0.54,4.08,0.48,4.14,0.35
				c0-0.06,0.06-0.12,0.06-0.18c0.06-0.06,0.12-0.06,0.18-0.06c0.06,0,0.18,0,0.18,0.06c0.06,0.06,0.06,0.12,0.06,0.18
				c0,0.06,0,0.18-0.06,0.24C4.57,0.6,4.51,0.66,4.39,0.66"/>
			<path id="Path_1423" class="st0" d="M5.61,11.4c-0.06,0-0.18,0-0.18-0.06c-0.06-0.06-0.12-0.12-0.06-0.24
				c0-0.06,0.06-0.12,0.06-0.18c0.06-0.06,0.12-0.06,0.18-0.06c0.06,0,0.18,0,0.18,0.06c0.06,0.06,0.06,0.12,0.06,0.18
				c0,0.06,0,0.18-0.06,0.24C5.79,11.4,5.73,11.4,5.61,11.4"/>
			<path id="Path_1424" class="st0" d="M5.61,10.18c-0.06,0-0.18,0-0.18-0.06C5.36,10.06,5.3,10,5.36,9.88
				c0-0.06,0.06-0.12,0.06-0.18c0.06-0.06,0.12-0.06,0.18-0.06c0.06,0,0.18,0,0.18,0.06c0.06,0.06,0.06,0.12,0.06,0.18
				s0,0.18-0.06,0.24C5.79,10.18,5.73,10.18,5.61,10.18"/>
			<path id="Path_1425" class="st0" d="M5.61,9.02c-0.06,0-0.18,0-0.18-0.06C5.36,8.9,5.3,8.84,5.36,8.72
				c0-0.06,0.06-0.12,0.06-0.18c0.06-0.06,0.12-0.06,0.18-0.06c0.06,0,0.18,0,0.18,0.06c0.06,0.06,0.06,0.12,0.06,0.18
				s0,0.18-0.06,0.24C5.79,8.96,5.73,9.02,5.61,9.02"/>
		</g>
		<path id="Path_1426" class="st1" d="M42.74,25.67L25.76,42.46V25.67H42.74z"/>
		<path id="Path_1427" class="st0" d="M26.07,25.98v15.63l15.87-15.63H26.07z M26.01,42.64l-0.55-0.24V25.31h18.19L26.01,42.64z"/>
		<g id="Group_452" transform="translate(32.387 12.773)">
			<path id="Path_1428" class="st0" d="M-12.31,7.51c-0.06,0-0.18,0-0.18-0.06c-0.06-0.06-0.12-0.12-0.06-0.24
				c0-0.06,0.06-0.12,0.06-0.18c0.06-0.06,0.12-0.06,0.18-0.06s0.18,0,0.18,0.06c0.06,0.06,0.06,0.12,0.06,0.18
				c0,0.06,0,0.18-0.06,0.24C-12.19,7.51-12.25,7.51-12.31,7.51"/>
			<path id="Path_1429" class="st0" d="M-12.31,6.35c-0.06,0-0.18,0-0.18-0.06c-0.06-0.06-0.12-0.12-0.06-0.24
				c0-0.06,0.06-0.12,0.06-0.18c0.06-0.06,0.12-0.06,0.18-0.06s0.18,0,0.18,0.06c0.06,0.06,0.06,0.12,0.06,0.18
				c0,0.06,0,0.18-0.06,0.24C-12.19,6.29-12.25,6.35-12.31,6.35"/>
			<path id="Path_1430" class="st0" d="M-12.31,5.13c-0.06,0-0.18,0-0.18-0.06c-0.06-0.06-0.12-0.12-0.06-0.24
				c0-0.06,0.06-0.12,0.06-0.18c0.06-0.06,0.12-0.06,0.18-0.06s0.18,0,0.18,0.06c0.06,0.06,0.06,0.12,0.06,0.18
				c0,0.06,0,0.18-0.06,0.24C-12.19,5.13-12.25,5.13-12.31,5.13"/>
			<path id="Path_1431" class="st0" d="M-12.31,3.97c-0.06,0-0.18,0-0.18-0.06c-0.06-0.06-0.12-0.12-0.06-0.24
				c0-0.06,0.06-0.12,0.06-0.18c0.06-0.06,0.12-0.06,0.18-0.06s0.18,0,0.18,0.06c0.06,0.06,0.06,0.12,0.06,0.18
				c0,0.06,0,0.18-0.06,0.24C-12.19,3.91-12.25,3.97-12.31,3.97"/>
			<path id="Path_1432" class="st0" d="M-12.31,2.75c-0.06,0-0.18,0-0.18-0.06c-0.06-0.06-0.12-0.12-0.06-0.24
				c0-0.06,0.06-0.12,0.06-0.18c0.06-0.06,0.12-0.06,0.18-0.06s0.18,0,0.18,0.06c0.06,0.06,0.06,0.12,0.06,0.18
				c0,0.06,0,0.18-0.06,0.24C-12.19,2.75-12.25,2.75-12.31,2.75"/>
			<path id="Path_1433" class="st0" d="M-12.31,1.53c-0.06,0-0.18,0-0.18-0.06c-0.06-0.06-0.12-0.12-0.06-0.24
				c0-0.06,0.06-0.12,0.06-0.18c0.06-0.06,0.12-0.06,0.18-0.06s0.18,0,0.18,0.06c0.06,0.06,0.06,0.12,0.06,0.18
				c0,0.06,0,0.18-0.06,0.24S-12.25,1.53-12.31,1.53"/>
			<path id="Path_1434" class="st0" d="M-12.31,0.37c-0.06,0-0.18,0-0.18-0.06c-0.06-0.06-0.12-0.12-0.06-0.24
				c0-0.06,0.06-0.12,0.06-0.18c0.06-0.06,0.12-0.06,0.18-0.06s0.18,0,0.18,0.06c0.06,0.06,0.06,0.12,0.06,0.18
				c0,0.06,0,0.18-0.06,0.24C-12.19,0.31-12.25,0.37-12.31,0.37"/>
			<path id="Path_1435" class="st0" d="M-12.31-0.85c-0.06,0-0.18,0-0.18-0.06c-0.06-0.06-0.12-0.12-0.06-0.24
				c0-0.06,0.06-0.12,0.06-0.18c0.06-0.06,0.12-0.06,0.18-0.06s0.18,0,0.18,0.06c0.06,0.06,0.06,0.12,0.06,0.18
				c0,0.06,0,0.18-0.06,0.24S-12.25-0.85-12.31-0.85"/>
			<path id="Path_1436" class="st0" d="M-11.09,11.11c-0.06,0-0.18,0-0.18-0.06c-0.06-0.06-0.12-0.12-0.06-0.24
				c0-0.06,0-0.12,0.06-0.18s0.12-0.06,0.18-0.06s0.18,0,0.18,0.06c0.06,0.06,0.06,0.12,0.06,0.18c0,0.06,0,0.18-0.06,0.24
				C-10.97,11.11-11.03,11.11-11.09,11.11"/>
			<path id="Path_1437" class="st0" d="M-11.09,9.95c-0.06,0-0.18,0-0.18-0.06c-0.06-0.06-0.12-0.12-0.06-0.24
				c0-0.06,0-0.12,0.06-0.18s0.12-0.06,0.18-0.06s0.18,0,0.18,0.06c0.06,0.06,0.06,0.12,0.06,0.18c0,0.06,0,0.18-0.06,0.24
				C-10.97,9.89-11.03,9.95-11.09,9.95"/>
			<path id="Path_1438" class="st0" d="M-11.09,8.73c-0.06,0-0.18,0-0.18-0.06c-0.06-0.06-0.12-0.12-0.06-0.24
				c0-0.06,0-0.12,0.06-0.18c0.06-0.06,0.12-0.06,0.18-0.06s0.18,0,0.18,0.06c0.06,0.06,0.06,0.12,0.06,0.18
				c0,0.06,0,0.18-0.06,0.24C-10.97,8.73-11.03,8.73-11.09,8.73"/>
			<path id="Path_1439" class="st0" d="M-11.09,7.51c-0.06,0-0.18,0-0.18-0.06c-0.06-0.06-0.12-0.12-0.06-0.24
				c0-0.06,0-0.12,0.06-0.18c0.06-0.06,0.12-0.06,0.18-0.06s0.18,0,0.18,0.06c0.06,0.06,0.06,0.12,0.06,0.18
				c0,0.06,0,0.18-0.06,0.24C-10.97,7.51-11.03,7.51-11.09,7.51"/>
			<path id="Path_1440" class="st0" d="M-11.09,6.35c-0.06,0-0.18,0-0.18-0.06c-0.06-0.06-0.12-0.12-0.06-0.24
				c0-0.06,0-0.12,0.06-0.18c0.06-0.06,0.12-0.06,0.18-0.06s0.18,0,0.18,0.06c0.06,0.06,0.06,0.12,0.06,0.18
				c0,0.06,0,0.18-0.06,0.24C-10.97,6.29-11.03,6.35-11.09,6.35"/>
			<path id="Path_1441" class="st0" d="M-11.09,5.13c-0.06,0-0.18,0-0.18-0.06c-0.06-0.06-0.12-0.12-0.06-0.24
				c0-0.06,0-0.12,0.06-0.18c0.06-0.06,0.12-0.06,0.18-0.06s0.18,0,0.18,0.06c0.06,0.06,0.06,0.12,0.06,0.18
				c0,0.06,0,0.18-0.06,0.24C-10.97,5.13-11.03,5.13-11.09,5.13"/>
			<path id="Path_1442" class="st0" d="M-11.09,3.97c-0.06,0-0.18,0-0.18-0.06c-0.06-0.06-0.12-0.12-0.06-0.24
				c0-0.06,0-0.12,0.06-0.18c0.06-0.06,0.12-0.06,0.18-0.06s0.18,0,0.18,0.06c0.06,0.06,0.06,0.12,0.06,0.18
				c0,0.06,0,0.18-0.06,0.24C-10.97,3.91-11.03,3.97-11.09,3.97"/>
			<path id="Path_1443" class="st0" d="M-11.09,2.75c-0.06,0-0.18,0-0.18-0.06c-0.06-0.06-0.12-0.12-0.06-0.24
				c0-0.06,0-0.12,0.06-0.18c0.06-0.06,0.12-0.06,0.18-0.06s0.18,0,0.18,0.06c0.06,0.06,0.06,0.12,0.06,0.18
				c0,0.06,0,0.18-0.06,0.24C-10.97,2.75-11.03,2.75-11.09,2.75"/>
			<path id="Path_1444" class="st0" d="M-11.09,1.53c-0.06,0-0.18,0-0.18-0.06c-0.06-0.06-0.12-0.12-0.06-0.24
				c0-0.06,0-0.12,0.06-0.18c0.06-0.06,0.12-0.06,0.18-0.06s0.18,0,0.18,0.06c0.06,0.06,0.06,0.12,0.06,0.18
				c0,0.06,0,0.18-0.06,0.24C-10.97,1.53-11.03,1.53-11.09,1.53"/>
			<path id="Path_1445" class="st0" d="M-11.09,0.37c-0.06,0-0.18,0-0.18-0.06c-0.06-0.06-0.12-0.12-0.06-0.24
				c0-0.06,0-0.12,0.06-0.18c0.06-0.06,0.12-0.06,0.18-0.06s0.18,0,0.18,0.06c0.06,0.06,0.06,0.12,0.06,0.18
				c0,0.06,0,0.18-0.06,0.24C-10.97,0.31-11.03,0.37-11.09,0.37"/>
			<path id="Path_1446" class="st0" d="M-11.09-0.85c-0.06,0-0.18,0-0.18-0.06c-0.06-0.06-0.12-0.12-0.06-0.24
				c0-0.06,0-0.12,0.06-0.18c0.06-0.06,0.12-0.06,0.18-0.06s0.18,0,0.18,0.06c0.06,0.06,0.06,0.12,0.06,0.18
				c0,0.06,0,0.18-0.06,0.24C-10.97-0.85-11.03-0.85-11.09-0.85"/>
			<path id="Path_1447" class="st0" d="M-11.09-2.01c-0.06,0-0.18,0-0.18-0.06c-0.06-0.06-0.12-0.12-0.06-0.24
				c0-0.06,0-0.12,0.06-0.18c0.06-0.06,0.12-0.06,0.18-0.06s0.18,0,0.18,0.06c0.06,0.06,0.06,0.12,0.06,0.18
				c0,0.06,0,0.18-0.06,0.24C-10.97-2.08-11.03-2.01-11.09-2.01"/>
			<path id="Path_1448" class="st0" d="M-9.87,11.11c-0.06,0-0.18,0-0.18-0.06c-0.06-0.06-0.12-0.12-0.06-0.24
				c0-0.06,0-0.12,0.06-0.18s0.12-0.06,0.18-0.06c0.06,0,0.18,0,0.18,0.06c0.06,0.06,0.06,0.12,0.06,0.18c0,0.06,0,0.18-0.06,0.24
				C-9.75,11.11-9.81,11.11-9.87,11.11"/>
			<path id="Path_1449" class="st0" d="M-9.87,9.95c-0.06,0-0.18,0-0.18-0.06c-0.06-0.06-0.12-0.12-0.06-0.24
				c0-0.06,0-0.12,0.06-0.18S-9.93,9.4-9.87,9.4c0.06,0,0.18,0,0.18,0.06c0.06,0.06,0.06,0.12,0.06,0.18c0,0.06,0,0.18-0.06,0.24
				C-9.75,9.89-9.81,9.95-9.87,9.95"/>
			<path id="Path_1450" class="st0" d="M-9.87,8.73c-0.06,0-0.18,0-0.18-0.06c-0.06-0.06-0.12-0.12-0.06-0.24
				c0-0.06,0-0.12,0.06-0.18c0.06-0.06,0.12-0.06,0.18-0.06c0.06,0,0.18,0,0.18,0.06c0.06,0.06,0.06,0.12,0.06,0.18
				c0,0.06,0,0.18-0.06,0.24C-9.75,8.73-9.81,8.73-9.87,8.73"/>
			<path id="Path_1451" class="st0" d="M-9.87,7.51c-0.06,0-0.18,0-0.18-0.06c-0.06-0.06-0.12-0.12-0.06-0.24
				c0-0.06,0-0.12,0.06-0.18c0.06-0.06,0.12-0.06,0.18-0.06c0.06,0,0.18,0,0.18,0.06c0.06,0.06,0.06,0.12,0.06,0.18
				c0,0.06,0,0.18-0.06,0.24C-9.75,7.51-9.81,7.51-9.87,7.51"/>
			<path id="Path_1452" class="st0" d="M-9.87,6.35c-0.06,0-0.18,0-0.18-0.06c-0.06-0.06-0.12-0.12-0.06-0.24
				c0-0.06,0-0.12,0.06-0.18C-9.99,5.8-9.93,5.8-9.87,5.8c0.06,0,0.18,0,0.18,0.06c0.06,0.06,0.06,0.12,0.06,0.18
				c0,0.06,0,0.18-0.06,0.24C-9.75,6.29-9.81,6.35-9.87,6.35"/>
			<path id="Path_1453" class="st0" d="M-9.87,5.13c-0.06,0-0.18,0-0.18-0.06c-0.06-0.06-0.12-0.12-0.06-0.24
				c0-0.06,0-0.12,0.06-0.18c0.06-0.06,0.12-0.06,0.18-0.06c0.06,0,0.18,0,0.18,0.06c0.06,0.06,0.06,0.12,0.06,0.18
				c0,0.06,0,0.18-0.06,0.24C-9.75,5.13-9.81,5.13-9.87,5.13"/>
			<path id="Path_1454" class="st0" d="M-9.87,3.97c-0.06,0-0.18,0-0.18-0.06c-0.06-0.06-0.12-0.12-0.06-0.24
				c0-0.06,0-0.12,0.06-0.18c0.06-0.06,0.12-0.06,0.18-0.06c0.06,0,0.18,0,0.18,0.06c0.06,0.06,0.06,0.12,0.06,0.18
				c0,0.06,0,0.18-0.06,0.24C-9.75,3.91-9.81,3.97-9.87,3.97"/>
			<path id="Path_1455" class="st0" d="M-9.87,2.75c-0.06,0-0.18,0-0.18-0.06c-0.06-0.06-0.12-0.12-0.06-0.24
				c0-0.06,0-0.12,0.06-0.18C-9.99,2.2-9.93,2.2-9.87,2.2c0.06,0,0.18,0,0.18,0.06c0.06,0.06,0.06,0.12,0.06,0.18
				c0,0.06,0,0.18-0.06,0.24C-9.75,2.75-9.81,2.75-9.87,2.75"/>
			<path id="Path_1456" class="st0" d="M-9.87,1.53c-0.06,0-0.18,0-0.18-0.06c-0.06-0.06-0.12-0.12-0.06-0.24
				c0-0.06,0-0.12,0.06-0.18c0.06-0.06,0.12-0.06,0.18-0.06c0.06,0,0.18,0,0.18,0.06c0.06,0.06,0.06,0.12,0.06,0.18
				c0,0.06,0,0.18-0.06,0.24C-9.75,1.53-9.81,1.53-9.87,1.53"/>
			<path id="Path_1457" class="st0" d="M-9.87,0.37c-0.06,0-0.18,0-0.18-0.06c-0.06-0.06-0.12-0.12-0.06-0.24
				c0-0.06,0-0.12,0.06-0.18c0.06-0.06,0.12-0.06,0.18-0.06c0.06,0,0.18,0,0.18,0.06C-9.62-0.06-9.62,0-9.62,0.06
				c0,0.06,0,0.18-0.06,0.24C-9.75,0.31-9.81,0.37-9.87,0.37"/>
			<path id="Path_1458" class="st0" d="M-9.87-0.85c-0.06,0-0.18,0-0.18-0.06c-0.06-0.06-0.12-0.12-0.06-0.24
				c0-0.06,0-0.12,0.06-0.18C-9.99-1.4-9.93-1.4-9.87-1.4c0.06,0,0.18,0,0.18,0.06c0.06,0.06,0.06,0.12,0.06,0.18
				c0,0.06,0,0.18-0.06,0.24C-9.75-0.85-9.81-0.85-9.87-0.85"/>
			<path id="Path_1459" class="st0" d="M-9.87-2.01c-0.06,0-0.18,0-0.18-0.06c-0.06-0.06-0.12-0.12-0.06-0.24
				c0-0.06,0-0.12,0.06-0.18c0.06-0.06,0.12-0.06,0.18-0.06c0.06,0,0.18,0,0.18,0.06c0.06,0.06,0.06,0.12,0.06,0.18
				c0,0.06,0,0.18-0.06,0.24C-9.75-2.08-9.81-2.01-9.87-2.01"/>
			<path id="Path_1460" class="st0" d="M-9.87-3.24c-0.06,0-0.18,0-0.18-0.06c-0.06-0.06-0.12-0.12-0.06-0.24
				c0-0.06,0-0.12,0.06-0.18c0.06-0.06,0.12-0.06,0.18-0.06c0.06,0,0.18,0,0.18,0.06c0.06,0.06,0.06,0.12,0.06,0.18
				c0,0.06,0,0.18-0.06,0.24C-9.75-3.24-9.81-3.24-9.87-3.24"/>
			<path id="Path_1461" class="st0" d="M-8.65,11.11c-0.06,0-0.18,0-0.18-0.06c-0.06-0.06-0.12-0.12-0.06-0.24
				c0-0.06,0.06-0.12,0.06-0.18c0.06-0.06,0.12-0.06,0.18-0.06c0.06,0,0.18,0,0.18,0.06c0.06,0.06,0.06,0.12,0.06,0.18
				c0,0.06,0,0.18-0.06,0.24C-8.52,11.11-8.59,11.11-8.65,11.11"/>
			<path id="Path_1462" class="st0" d="M-8.65,9.95c-0.06,0-0.18,0-0.18-0.06c-0.06-0.06-0.12-0.12-0.06-0.24
				c0-0.06,0.06-0.12,0.06-0.18C-8.77,9.4-8.71,9.4-8.65,9.4c0.06,0,0.18,0,0.18,0.06C-8.4,9.52-8.4,9.59-8.4,9.65
				c0,0.06,0,0.18-0.06,0.24C-8.52,9.89-8.59,9.95-8.65,9.95"/>
			<path id="Path_1463" class="st0" d="M-8.65,8.73c-0.06,0-0.18,0-0.18-0.06c-0.06-0.06-0.12-0.12-0.06-0.24
				c0-0.06,0.06-0.12,0.06-0.18c0.06-0.06,0.12-0.06,0.18-0.06c0.06,0,0.18,0,0.18,0.06C-8.4,8.3-8.4,8.36-8.4,8.43
				c0,0.06,0,0.18-0.06,0.24C-8.52,8.73-8.59,8.73-8.65,8.73"/>
			<path id="Path_1464" class="st0" d="M-8.65,7.51c-0.06,0-0.18,0-0.18-0.06C-8.89,7.39-8.95,7.33-8.89,7.2
				c0-0.06,0.06-0.12,0.06-0.18c0.06-0.06,0.12-0.06,0.18-0.06c0.06,0,0.18,0,0.18,0.06C-8.4,7.08-8.4,7.14-8.4,7.2
				c0,0.06,0,0.18-0.06,0.24C-8.52,7.51-8.59,7.51-8.65,7.51"/>
			<path id="Path_1465" class="st0" d="M-8.65,6.35c-0.06,0-0.18,0-0.18-0.06c-0.06-0.06-0.12-0.12-0.06-0.24
				c0-0.06,0.06-0.12,0.06-0.18C-8.77,5.8-8.71,5.8-8.65,5.8c0.06,0,0.18,0,0.18,0.06C-8.4,5.92-8.4,5.98-8.4,6.04
				c0,0.06,0,0.18-0.06,0.24C-8.52,6.29-8.59,6.35-8.65,6.35"/>
			<path id="Path_1466" class="st0" d="M-8.65,5.13c-0.06,0-0.18,0-0.18-0.06c-0.06-0.06-0.12-0.12-0.06-0.24
				c0-0.06,0.06-0.12,0.06-0.18c0.06-0.06,0.12-0.06,0.18-0.06c0.06,0,0.18,0,0.18,0.06C-8.4,4.7-8.4,4.76-8.4,4.82
				c0,0.06,0,0.18-0.06,0.24C-8.52,5.13-8.59,5.13-8.65,5.13"/>
			<path id="Path_1467" class="st0" d="M-8.65,3.97c-0.06,0-0.18,0-0.18-0.06c-0.06-0.06-0.12-0.12-0.06-0.24
				c0-0.06,0.06-0.12,0.06-0.18c0.06-0.06,0.12-0.06,0.18-0.06c0.06,0,0.18,0,0.18,0.06C-8.4,3.54-8.4,3.6-8.4,3.66
				c0,0.06,0,0.18-0.06,0.24C-8.52,3.91-8.59,3.97-8.65,3.97"/>
			<path id="Path_1468" class="st0" d="M-8.65,2.75c-0.06,0-0.18,0-0.18-0.06c-0.06-0.06-0.12-0.12-0.06-0.24
				c0-0.06,0.06-0.12,0.06-0.18C-8.77,2.2-8.71,2.2-8.65,2.2c0.06,0,0.18,0,0.18,0.06C-8.4,2.32-8.4,2.38-8.4,2.44
				c0,0.06,0,0.18-0.06,0.24C-8.52,2.75-8.59,2.75-8.65,2.75"/>
			<path id="Path_1469" class="st0" d="M-8.65,1.53c-0.06,0-0.18,0-0.18-0.06C-8.89,1.4-8.95,1.34-8.89,1.22
				c0-0.06,0.06-0.12,0.06-0.18c0.06-0.06,0.12-0.06,0.18-0.06c0.06,0,0.18,0,0.18,0.06C-8.4,1.1-8.4,1.16-8.4,1.22
				c0,0.06,0,0.18-0.06,0.24S-8.59,1.53-8.65,1.53"/>
			<path id="Path_1470" class="st0" d="M-8.65,0.37c-0.06,0-0.18,0-0.18-0.06c-0.06-0.06-0.12-0.12-0.06-0.24
				c0-0.06,0.06-0.12,0.06-0.18c0.06-0.06,0.12-0.06,0.18-0.06c0.06,0,0.18,0,0.18,0.06C-8.4-0.06-8.4,0-8.4,0.06
				c0,0.06,0,0.18-0.06,0.24C-8.52,0.31-8.59,0.37-8.65,0.37"/>
			<path id="Path_1471" class="st0" d="M-8.65-0.85c-0.06,0-0.18,0-0.18-0.06c-0.06-0.06-0.12-0.12-0.06-0.24
				c0-0.06,0.06-0.12,0.06-0.18C-8.77-1.4-8.71-1.4-8.65-1.4c0.06,0,0.18,0,0.18,0.06C-8.4-1.28-8.4-1.22-8.4-1.16
				c0,0.06,0,0.18-0.06,0.24S-8.59-0.85-8.65-0.85"/>
			<path id="Path_1472" class="st0" d="M-8.65-2.01c-0.06,0-0.18,0-0.18-0.06C-8.89-2.14-8.95-2.2-8.89-2.32
				c0-0.06,0.06-0.12,0.06-0.18c0.06-0.06,0.12-0.06,0.18-0.06c0.06,0,0.18,0,0.18,0.06C-8.4-2.44-8.4-2.38-8.4-2.32
				c0,0.06,0,0.18-0.06,0.24C-8.52-2.08-8.59-2.01-8.65-2.01"/>
			<path id="Path_1473" class="st0" d="M-8.65-3.24c-0.06,0-0.18,0-0.18-0.06c-0.06-0.06-0.12-0.12-0.06-0.24
				c0-0.06,0-0.12,0.06-0.18c0.06-0.06,0.12-0.06,0.18-0.06c0.06,0,0.18,0,0.18,0.06C-8.4-3.66-8.4-3.6-8.4-3.54
				c0,0.06,0,0.18-0.06,0.24C-8.52-3.24-8.59-3.24-8.65-3.24"/>
		</g>
		<path id="Path_1474" class="st1" d="M25.7,7.3l17.03,16.79H25.7V7.3z"/>
		<path id="Path_1475" class="st0" d="M26.01,23.78h15.93L26.01,8.15V23.78z M43.59,24.45H25.34V7.36l0.55-0.24L43.59,24.45z"/>
		<g id="Group_453" transform="translate(38.368 10.814)">
			<path id="Path_1476" class="st0" d="M-14.64-2.47c-0.06,0-0.18,0-0.18-0.06c-0.06-0.06-0.12-0.12-0.06-0.24
				c0-0.06,0-0.12,0.06-0.18c0.06-0.06,0.12-0.06,0.18-0.06c0.06,0,0.18,0,0.18,0.06c0.06,0.06,0.06,0.12,0.06,0.18
				c0,0.06,0,0.18-0.06,0.24C-14.52-2.47-14.58-2.47-14.64-2.47"/>
		</g>
		<rect id="Rectangle_305" x="28.69" y="10.65" class="st0" width="0.67" height="13.43"/>
		<rect id="Rectangle_306" x="25.46" y="12.85" class="st0" width="5.86" height="0.67"/>
		<rect id="Rectangle_307" x="25.58" y="16.58" class="st0" width="10.01" height="0.67"/>
		<rect id="Rectangle_308" x="25.82" y="20.91" class="st0" width="14.29" height="0.67"/>
		<rect id="Rectangle_309" x="32.72" y="14.62" class="st0" width="0.67" height="9.71"/>
		<path id="Path_1477" class="st1" d="M24.11,42.46L7.08,25.67h17.03V42.46z"/>
		<path id="Path_1478" class="st0" d="M7.88,25.98l15.93,15.63V25.98H7.88z M23.87,42.64L6.23,25.37h18.19v17.09L23.87,42.64z"/>
		<rect id="Rectangle_310" x="36.87" y="18.53" class="st0" width="0.67" height="5.56"/>
		<rect id="Rectangle_311" x="43.77" y="24.02" class="st0" width="6.23" height="1.83"/>
		<path id="Path_1479" class="st0" d="M7.88,23.72h15.93V8.09L7.88,23.72z M24.42,24.39H6.23L23.87,7.11l0.55,0.24V24.39z"/>
		<rect id="Rectangle_312" y="24.02" class="st0" width="6.23" height="1.83"/>
		<path id="Path_1496" class="st0" d="M25.34,29.7l4.46-4.33l0.49,0.49l-4.46,4.33L25.34,29.7z"/>
		<path id="Path_1497" class="st0" d="M25.58,33.67l8.3-8.24l0.49,0.43l-8.36,8.24L25.58,33.67z"/>
		<path id="Path_1498" class="st0" d="M25.46,37.88l12.58-12.33l0.49,0.49L25.95,38.31L25.46,37.88z"/>
		<path id="Path_1499" class="st0" d="M25.95,29.33l0.49-0.49l1.95,1.95l-0.49,0.49L25.95,29.33z"/>
		<path id="Path_1500" class="st0" d="M26.31,33.12l0.49-0.43l1.95,1.95l-0.49,0.49L26.31,33.12z"/>
		<path id="Path_1501" class="st0" d="M26.5,37.27l0.49-0.49l1.95,1.95l-0.49,0.49L26.5,37.27z"/>
		<path id="Path_1502" class="st0" d="M29.37,30.13l0.49-0.49l1.95,1.95l-0.49,0.49L29.37,30.13z"/>
		<path id="Path_1503" class="st0" d="M29.55,34.28l0.49-0.43l1.95,1.95l-0.49,0.49L29.55,34.28z"/>
		<path id="Path_1504" class="st0" d="M29,26.71l0.49-0.49l1.95,1.95l-0.43,0.49L29,26.71z"/>
		<path id="Path_1505" class="st0" d="M32.42,27.5l0.49-0.49l1.95,1.95l-0.49,0.49L32.42,27.5z"/>
		<path id="Path_1506" class="st0" d="M32.6,31.65l0.49-0.49l1.95,1.95l-0.49,0.49L32.6,31.65z"/>
		<path id="Path_1507" class="st0" d="M35.65,28.66l0.49-0.43l1.95,1.95l-0.49,0.49L35.65,28.66z"/>
		<rect id="Rectangle_325" x="20.45" y="25.73" class="st0" width="0.67" height="13.43"/>
		<rect id="Rectangle_326" x="18.44" y="36.29" class="st0" width="5.86" height="0.67"/>
		<rect id="Rectangle_327" x="14.16" y="32.57" class="st0" width="10.01" height="0.67"/>
		<rect id="Rectangle_328" x="9.71" y="28.24" class="st0" width="14.29" height="0.67"/>
		<rect id="Rectangle_329" x="16.42" y="25.49" class="st0" width="0.67" height="9.71"/>
		<rect id="Rectangle_330" x="12.27" y="25.67" class="st0" width="0.67" height="5.56"/>
	</g>
</g>
</svg>
